{"glyphs":{"0":{"ha":833,"x_min":89,"x_max":769,"o":"m 410 -11 q 171 97 253 -11 q 89 415 89 206 q 131 725 89 596 q 254 922 174 854 q 447 990 335 990 q 688 882 606 990 q 769 564 769 774 q 675 140 769 290 q 410 -11 581 -11 m 413 65 q 613 195 544 65 q 681 579 681 325 q 624 832 681 750 q 447 914 567 914 q 247 784 315 914 q 178 400 178 654 q 235 147 178 229 q 413 65 293 65 z "},"1":{"ha":833,"x_min":164,"x_max":689,"o":"m 689 75 l 682 0 l 164 0 l 171 75 l 385 75 l 450 867 l 267 754 l 226 821 l 479 979 l 543 979 l 471 75 l 689 75 z "},"2":{"ha":833,"x_min":99,"x_max":733,"o":"m 222 75 l 724 75 l 717 0 l 99 0 l 104 64 l 483 450 q 610 608 574 542 q 647 747 647 675 q 598 869 647 824 q 467 915 549 915 q 316 887 388 915 q 172 797 244 858 l 143 865 q 290 957 204 924 q 467 990 376 990 q 661 925 589 990 q 733 749 733 860 q 689 578 733 660 q 539 390 644 497 l 222 75 z "},"3":{"ha":833,"x_min":69,"x_max":733,"o":"m 550 500 q 673 422 629 479 q 717 281 717 365 q 677 128 717 193 q 563 26 638 63 q 390 -10 489 -10 q 215 22 297 -10 q 69 115 133 54 l 110 183 q 248 94 179 122 q 394 65 317 65 q 567 121 504 65 q 631 278 631 176 q 403 460 631 460 l 299 460 l 306 535 l 401 535 q 581 594 514 535 q 647 754 647 653 q 597 872 647 828 q 464 915 547 915 q 315 887 386 915 q 172 797 244 858 l 143 865 q 291 957 204 924 q 468 990 378 990 q 661 926 589 990 q 733 756 733 863 q 684 600 733 669 q 550 500 635 531 z "},"4":{"ha":833,"x_min":68,"x_max":775,"o":"m 768 222 l 617 222 l 599 0 l 514 0 l 532 222 l 68 222 l 74 288 l 606 979 l 676 979 l 622 296 l 775 296 l 768 222 m 538 296 l 579 825 l 172 296 l 538 296 z "},"5":{"ha":833,"x_min":103,"x_max":771,"o":"m 276 906 l 246 521 q 344 585 286 563 q 467 608 403 608 q 619 573 553 608 q 721 474 685 538 q 757 326 757 410 q 715 151 757 228 q 596 33 672 75 q 421 -10 519 -10 q 249 22 331 -10 q 103 115 168 54 l 144 183 q 281 94 213 124 q 424 65 350 65 q 603 135 536 65 q 669 322 669 206 q 612 476 669 418 q 460 533 554 533 q 217 407 303 533 l 151 407 l 196 979 l 771 979 l 765 906 l 276 906 z "},"6":{"ha":832,"x_min":93,"x_max":799,"o":"m 494 915 q 280 803 361 915 q 182 483 199 692 l 178 433 q 288 561 215 514 q 451 608 360 608 q 611 572 542 608 q 718 467 681 535 q 756 313 756 400 q 715 146 756 219 q 601 31 674 72 q 438 -11 528 -11 q 183 97 272 -11 q 93 407 93 206 q 142 715 93 583 q 282 919 192 847 q 493 990 372 990 q 656 958 578 990 q 799 865 733 926 l 757 797 q 494 915 628 915 m 442 533 q 319 502 374 533 q 233 415 264 471 q 203 289 203 358 q 267 126 203 188 q 438 64 332 64 q 604 133 540 64 q 668 313 668 201 q 606 473 668 413 q 442 533 544 533 z "},"7":{"ha":833,"x_min":147,"x_max":782,"o":"m 782 979 l 778 917 l 247 0 l 156 0 l 681 904 l 147 904 l 153 979 l 782 979 z "},"8":{"ha":833,"x_min":65,"x_max":769,"o":"m 589 499 q 756 263 756 447 q 713 119 756 181 q 592 25 671 58 q 406 -8 513 -8 q 153 58 240 -8 q 65 251 65 125 q 120 410 65 340 q 269 504 175 479 q 161 586 199 531 q 124 719 124 642 q 165 861 124 800 q 281 956 206 922 q 457 990 357 990 q 688 926 606 990 q 769 750 769 861 q 721 593 769 660 q 589 499 672 526 m 211 714 q 270 581 211 629 q 440 533 329 533 q 619 589 557 533 q 682 742 682 644 q 625 870 682 825 q 456 915 568 915 q 274 863 338 915 q 211 714 211 810 m 401 67 q 599 118 529 67 q 668 264 668 169 q 609 412 668 365 q 415 458 550 458 q 153 251 153 458 q 401 67 153 67 z "},"9":{"ha":833,"x_min":61,"x_max":767,"o":"m 422 990 q 677 882 588 990 q 767 572 767 774 q 717 264 767 396 q 578 60 668 132 q 367 -11 488 -11 q 203 21 282 -11 q 61 114 125 53 l 101 182 q 365 64 232 64 q 580 176 499 64 q 678 496 661 288 l 682 546 q 573 418 646 465 q 408 371 500 371 q 249 408 318 371 q 142 512 179 444 q 104 667 104 579 q 145 833 104 760 q 259 949 186 907 q 422 990 332 990 m 418 446 q 541 477 486 446 q 626 565 596 508 q 657 690 657 621 q 592 853 657 792 q 422 915 528 915 q 256 847 319 915 q 192 667 192 778 q 253 506 192 567 q 418 446 315 446 z "},"\u0000":{"ha":0,"x_min":0,"x_max":0,"o":""},"\r":{"ha":350,"x_min":0,"x_max":0,"o":""}," ":{"ha":350,"x_min":0,"x_max":0,"o":""},"A":{"ha":1000,"x_min":10,"x_max":938,"o":"m 758 261 l 232 261 l 100 0 l 10 0 l 511 979 l 589 979 l 938 0 l 850 0 l 758 261 m 732 336 l 543 876 l 269 336 l 732 336 z "},"Á":{"ha":1000,"x_min":10,"x_max":938,"o":"m 758 261 l 232 261 l 100 0 l 10 0 l 511 979 l 589 979 l 938 0 l 850 0 l 758 261 m 732 336 l 543 876 l 269 336 l 732 336 m 525 1063 l 678 1271 l 788 1271 l 589 1063 l 525 1063 z "},"Ă":{"ha":1000,"x_min":10,"x_max":938,"o":"m 758 261 l 232 261 l 100 0 l 10 0 l 511 979 l 589 979 l 938 0 l 850 0 l 758 261 m 732 336 l 543 876 l 269 336 l 732 336 m 558 1081 q 430 1117 486 1081 q 349 1226 374 1153 l 414 1254 q 478 1172 443 1194 q 563 1149 513 1149 q 651 1172 613 1149 q 728 1254 690 1194 l 790 1226 q 558 1081 718 1081 z "},"Ắ":{"ha":1000,"x_min":10,"x_max":938,"o":"m 758 261 l 232 261 l 100 0 l 10 0 l 511 979 l 589 979 l 938 0 l 850 0 l 758 261 m 732 336 l 543 876 l 269 336 l 732 336 m 688 1400 l 796 1400 l 599 1203 l 538 1203 l 688 1400 m 557 1056 q 429 1091 485 1056 q 347 1201 374 1126 l 411 1229 q 476 1145 440 1168 q 563 1122 511 1122 q 651 1145 613 1122 q 728 1229 690 1168 l 789 1201 q 690 1090 750 1125 q 557 1056 631 1056 z "},"Ặ":{"ha":1000,"x_min":10,"x_max":938,"o":"m 758 261 l 232 261 l 100 0 l 10 0 l 511 979 l 589 979 l 938 0 l 850 0 l 758 261 m 732 336 l 543 876 l 269 336 l 732 336 m 518 -140 l 508 -247 l 400 -247 l 408 -140 l 518 -140 m 558 1081 q 430 1117 486 1081 q 349 1226 374 1153 l 414 1254 q 478 1172 443 1194 q 563 1149 513 1149 q 651 1172 613 1149 q 728 1254 690 1194 l 790 1226 q 558 1081 718 1081 z "},"Ằ":{"ha":1000,"x_min":10,"x_max":938,"o":"m 758 261 l 232 261 l 100 0 l 10 0 l 511 979 l 589 979 l 938 0 l 850 0 l 758 261 m 732 336 l 543 876 l 269 336 l 732 336 m 376 1400 l 474 1400 l 599 1203 l 538 1203 l 376 1400 m 557 1056 q 429 1091 485 1056 q 347 1201 374 1126 l 411 1229 q 476 1145 440 1168 q 563 1122 511 1122 q 651 1145 613 1122 q 728 1229 690 1168 l 789 1201 q 690 1090 750 1125 q 557 1056 631 1056 z "},"Ẳ":{"ha":1000,"x_min":10,"x_max":938,"o":"m 758 261 l 232 261 l 100 0 l 10 0 l 511 979 l 589 979 l 938 0 l 850 0 l 758 261 m 732 336 l 543 876 l 269 336 l 732 336 m 538 1226 q 556 1263 539 1251 q 601 1288 572 1275 q 632 1303 624 1297 q 640 1319 640 1310 q 625 1338 640 1332 q 585 1344 610 1344 q 494 1329 546 1344 l 481 1385 q 590 1407 531 1407 q 684 1385 650 1407 q 718 1328 718 1363 q 701 1284 718 1299 q 651 1256 683 1269 q 617 1238 629 1246 q 603 1215 604 1229 l 601 1203 l 536 1203 l 538 1226 m 557 1056 q 429 1091 485 1056 q 347 1201 374 1126 l 411 1229 q 476 1145 440 1168 q 563 1122 511 1122 q 651 1145 613 1122 q 728 1229 690 1168 l 789 1201 q 690 1090 750 1125 q 557 1056 631 1056 z "},"Ẵ":{"ha":1000,"x_min":10,"x_max":938,"o":"m 758 261 l 232 261 l 100 0 l 10 0 l 511 979 l 589 979 l 938 0 l 850 0 l 758 261 m 732 336 l 543 876 l 269 336 l 732 336 m 676 1267 q 624 1278 649 1267 q 561 1311 599 1289 q 517 1337 535 1328 q 482 1346 499 1346 q 431 1325 450 1346 q 410 1271 413 1304 l 356 1271 q 393 1376 358 1339 q 482 1413 428 1413 q 535 1401 510 1413 q 597 1368 560 1390 q 644 1342 626 1350 q 678 1333 661 1333 q 728 1354 710 1333 q 749 1408 747 1375 l 803 1408 q 765 1303 800 1340 q 676 1267 731 1267 m 557 1056 q 429 1091 485 1056 q 347 1201 374 1126 l 411 1229 q 476 1145 440 1168 q 563 1122 511 1122 q 651 1145 613 1122 q 728 1229 690 1168 l 789 1201 q 690 1090 750 1125 q 557 1056 631 1056 z "},"Â":{"ha":1000,"x_min":10,"x_max":938,"o":"m 758 261 l 232 261 l 100 0 l 10 0 l 511 979 l 589 979 l 938 0 l 850 0 l 758 261 m 732 336 l 543 876 l 269 336 l 732 336 m 365 1063 l 542 1271 l 606 1271 l 749 1063 l 664 1063 l 572 1213 l 453 1063 l 365 1063 z "},"Ấ":{"ha":1000,"x_min":10,"x_max":938,"o":"m 758 261 l 232 261 l 100 0 l 10 0 l 511 979 l 589 979 l 938 0 l 850 0 l 758 261 m 732 336 l 543 876 l 269 336 l 732 336 m 829 1400 l 936 1400 l 740 1203 l 682 1203 l 829 1400 m 542 1269 l 606 1269 l 749 1063 l 664 1063 l 572 1211 l 453 1063 l 365 1063 l 542 1269 z "},"Ậ":{"ha":1000,"x_min":10,"x_max":938,"o":"m 758 261 l 232 261 l 100 0 l 10 0 l 511 979 l 589 979 l 938 0 l 850 0 l 758 261 m 732 336 l 543 876 l 269 336 l 732 336 m 518 -140 l 508 -247 l 400 -247 l 408 -140 l 518 -140 m 365 1063 l 542 1271 l 606 1271 l 749 1063 l 664 1063 l 572 1213 l 453 1063 l 365 1063 z "},"Ầ":{"ha":1000,"x_min":10,"x_max":938,"o":"m 758 261 l 232 261 l 100 0 l 10 0 l 511 979 l 589 979 l 938 0 l 850 0 l 758 261 m 732 336 l 543 876 l 269 336 l 732 336 m 608 1400 l 704 1400 l 800 1203 l 742 1203 l 608 1400 m 542 1269 l 606 1269 l 749 1063 l 664 1063 l 572 1211 l 453 1063 l 365 1063 l 542 1269 z "},"Ẩ":{"ha":1000,"x_min":10,"x_max":938,"o":"m 758 261 l 232 261 l 100 0 l 10 0 l 511 979 l 589 979 l 938 0 l 850 0 l 758 261 m 732 336 l 543 876 l 269 336 l 732 336 m 682 1226 q 700 1263 683 1251 q 746 1288 717 1275 q 776 1303 768 1297 q 785 1319 785 1310 q 769 1338 785 1332 q 729 1344 754 1344 q 639 1329 690 1344 l 625 1385 q 735 1407 675 1407 q 828 1385 794 1407 q 863 1328 863 1363 q 845 1284 863 1299 q 796 1256 828 1269 q 761 1238 774 1246 q 747 1215 749 1229 l 746 1203 l 681 1203 l 682 1226 m 542 1269 l 606 1269 l 749 1063 l 664 1063 l 572 1211 l 453 1063 l 365 1063 l 542 1269 z "},"Ẫ":{"ha":1000,"x_min":10,"x_max":938,"o":"m 758 261 l 232 261 l 100 0 l 10 0 l 511 979 l 589 979 l 938 0 l 850 0 l 758 261 m 732 336 l 543 876 l 269 336 l 732 336 m 678 1293 q 622 1302 649 1293 q 561 1329 596 1311 q 517 1350 535 1343 q 482 1357 499 1357 q 432 1337 451 1357 q 411 1289 413 1317 l 357 1289 q 394 1388 360 1351 q 483 1424 429 1424 q 539 1414 513 1424 q 600 1388 565 1404 q 644 1367 626 1374 q 679 1360 663 1360 q 729 1380 710 1360 q 750 1428 749 1400 l 804 1428 q 767 1329 801 1365 q 678 1293 732 1293 m 542 1269 l 606 1269 l 749 1063 l 664 1063 l 572 1211 l 453 1063 l 365 1063 l 542 1269 z "},"Ȁ":{"ha":1000,"x_min":10,"x_max":938,"o":"m 758 261 l 232 261 l 100 0 l 10 0 l 511 979 l 589 979 l 938 0 l 850 0 l 758 261 m 732 336 l 543 876 l 269 336 l 732 336 m 336 1271 l 419 1271 l 503 1063 l 454 1063 l 336 1271 m 494 1271 l 578 1271 l 660 1063 l 611 1063 l 494 1271 z "},"Ä":{"ha":1000,"x_min":10,"x_max":938,"o":"m 758 261 l 232 261 l 100 0 l 10 0 l 511 979 l 589 979 l 938 0 l 850 0 l 758 261 m 732 336 l 543 876 l 269 336 l 732 336 m 507 1218 l 499 1118 l 394 1118 l 403 1218 l 507 1218 m 738 1218 l 729 1118 l 625 1118 l 633 1218 l 738 1218 z "},"Ạ":{"ha":1000,"x_min":10,"x_max":938,"o":"m 758 261 l 232 261 l 100 0 l 10 0 l 511 979 l 589 979 l 938 0 l 850 0 l 758 261 m 732 336 l 543 876 l 269 336 l 732 336 m 518 -140 l 508 -247 l 400 -247 l 408 -140 l 518 -140 z "},"À":{"ha":1000,"x_min":10,"x_max":938,"o":"m 758 261 l 232 261 l 100 0 l 10 0 l 511 979 l 589 979 l 938 0 l 850 0 l 758 261 m 732 336 l 543 876 l 269 336 l 732 336 m 367 1271 l 464 1271 l 589 1063 l 525 1063 l 367 1271 z "},"Ả":{"ha":1000,"x_min":10,"x_max":938,"o":"m 758 261 l 232 261 l 100 0 l 10 0 l 511 979 l 589 979 l 938 0 l 850 0 l 758 261 m 732 336 l 543 876 l 269 336 l 732 336 m 590 1063 l 525 1063 l 526 1085 q 544 1124 528 1108 q 589 1153 561 1139 q 619 1171 610 1163 q 629 1190 629 1179 q 614 1208 629 1201 q 572 1215 599 1215 q 485 1199 531 1215 l 469 1254 q 579 1278 521 1278 q 673 1256 639 1278 q 707 1196 707 1233 q 689 1149 707 1165 q 638 1117 671 1132 q 604 1097 615 1107 q 592 1075 593 1088 l 590 1063 z "},"Ȃ":{"ha":1000,"x_min":10,"x_max":938,"o":"m 758 261 l 232 261 l 100 0 l 10 0 l 511 979 l 589 979 l 938 0 l 850 0 l 758 261 m 732 336 l 543 876 l 269 336 l 732 336 m 572 1256 q 701 1219 644 1256 q 782 1108 757 1183 l 717 1082 q 653 1165 688 1142 q 568 1188 618 1188 q 479 1165 518 1188 q 403 1082 440 1142 l 340 1108 q 572 1256 414 1256 z "},"Ā":{"ha":1000,"x_min":10,"x_max":938,"o":"m 758 261 l 232 261 l 100 0 l 10 0 l 511 979 l 589 979 l 938 0 l 850 0 l 758 261 m 732 336 l 543 876 l 269 336 l 732 336 m 364 1204 l 774 1204 l 768 1132 l 357 1132 l 364 1204 z "},"Ą":{"ha":1000,"x_min":10,"x_max":976,"o":"m 976 -235 q 926 -256 957 -247 q 864 -265 894 -265 q 755 -228 796 -265 q 714 -128 714 -190 q 744 -28 714 -72 q 836 39 775 17 l 758 261 l 232 261 l 100 0 l 10 0 l 511 979 l 589 979 l 938 0 l 924 0 q 822 -35 856 0 q 789 -118 789 -71 q 811 -181 789 -160 q 874 -203 833 -203 q 960 -176 915 -203 l 976 -235 m 732 336 l 543 876 l 269 336 l 732 336 z "},"Å":{"ha":1000,"x_min":10,"x_max":938,"o":"m 758 261 l 232 261 l 100 0 l 10 0 l 496 950 q 440 998 461 965 q 418 1071 418 1031 q 458 1167 418 1128 q 554 1206 497 1206 q 651 1167 611 1206 q 692 1071 692 1128 q 667 994 692 1028 q 601 946 642 960 l 938 0 l 850 0 l 758 261 m 554 1143 q 506 1122 525 1143 q 486 1071 486 1101 q 506 1021 486 1042 q 554 1000 525 1000 q 603 1021 583 1000 q 624 1071 624 1042 q 604 1122 624 1101 q 554 1143 585 1143 m 732 336 l 543 876 l 269 336 l 732 336 z "},"Ǻ":{"ha":1000,"x_min":10,"x_max":938,"o":"m 758 261 l 232 261 l 100 0 l 10 0 l 496 950 q 440 998 461 965 q 418 1071 418 1031 q 458 1167 418 1128 q 554 1206 497 1206 q 636 1179 601 1206 l 765 1304 l 879 1304 l 672 1142 q 692 1071 692 1110 q 667 994 692 1028 q 601 946 642 960 l 938 0 l 850 0 l 758 261 m 554 1143 q 506 1122 525 1143 q 486 1071 486 1101 q 506 1021 486 1042 q 554 1000 525 1000 q 603 1021 583 1000 q 624 1071 624 1042 q 604 1122 624 1101 q 554 1143 585 1143 m 732 336 l 543 876 l 269 336 l 732 336 z "},"Ã":{"ha":1000,"x_min":10,"x_max":938,"o":"m 758 261 l 232 261 l 100 0 l 10 0 l 511 979 l 589 979 l 938 0 l 850 0 l 758 261 m 732 336 l 543 876 l 269 336 l 732 336 m 342 1099 q 379 1207 344 1169 q 469 1244 414 1244 q 523 1233 497 1244 q 583 1199 549 1221 q 629 1172 611 1181 q 664 1163 647 1163 q 715 1184 696 1163 q 735 1240 733 1206 l 789 1240 q 751 1132 786 1169 q 661 1094 717 1094 q 608 1106 633 1094 q 549 1140 582 1118 q 502 1167 519 1158 q 468 1175 485 1175 q 417 1154 436 1175 q 396 1099 399 1133 l 342 1099 z "},"Æ":{"ha":1374,"x_min":-18,"x_max":1350,"o":"m 732 904 l 781 535 l 1288 535 l 1282 460 l 792 460 l 843 75 l 1281 75 l 1274 0 l 774 0 l 739 261 l 254 261 l 79 0 l -18 0 l 649 979 l 1350 979 l 1346 904 l 732 904 m 729 336 l 660 865 l 304 336 l 729 336 z "},"Ǽ":{"ha":1374,"x_min":-18,"x_max":1350,"o":"m 732 904 l 781 535 l 1288 535 l 1282 460 l 792 460 l 843 75 l 1281 75 l 1274 0 l 774 0 l 739 261 l 254 261 l 79 0 l -18 0 l 649 979 l 1350 979 l 1346 904 l 732 904 m 729 336 l 660 865 l 304 336 l 729 336 m 715 1063 l 868 1271 l 978 1271 l 779 1063 l 715 1063 z "},"B":{"ha":931,"x_min":100,"x_max":850,"o":"m 671 499 q 794 422 753 478 q 836 283 836 367 q 749 74 836 149 q 506 0 663 0 l 100 0 l 176 979 l 540 979 q 771 917 692 979 q 850 740 850 856 q 804 590 850 653 q 671 499 758 528 m 257 906 l 228 535 l 521 535 q 700 587 636 535 q 764 738 764 639 q 538 906 764 906 l 257 906 m 506 74 q 688 124 625 74 q 750 276 750 175 q 522 460 750 460 l 222 460 l 192 74 l 506 74 z "},"C":{"ha":940,"x_min":100,"x_max":908,"o":"m 507 -11 q 292 44 385 -11 q 150 202 200 99 q 100 447 100 306 q 156 734 100 611 q 317 924 213 857 q 563 990 421 990 q 759 958 671 990 q 908 863 847 925 l 867 796 q 729 886 800 858 q 560 914 658 914 q 360 858 444 914 q 233 696 276 801 q 189 446 189 590 q 276 165 189 264 q 525 65 364 65 q 819 185 690 65 l 850 117 q 507 -11 714 -11 z "},"Ć":{"ha":940,"x_min":100,"x_max":908,"o":"m 507 -11 q 292 44 385 -11 q 150 202 200 99 q 100 447 100 306 q 156 734 100 611 q 317 924 213 857 q 563 990 421 990 q 759 958 671 990 q 908 863 847 925 l 867 796 q 729 886 800 858 q 560 914 658 914 q 360 858 444 914 q 233 696 276 801 q 189 446 189 590 q 276 165 189 264 q 525 65 364 65 q 819 185 690 65 l 850 117 q 507 -11 714 -11 m 558 1063 l 711 1271 l 821 1271 l 622 1063 l 558 1063 z "},"Č":{"ha":940,"x_min":100,"x_max":908,"o":"m 507 -11 q 292 44 385 -11 q 150 202 200 99 q 100 447 100 306 q 156 734 100 611 q 317 924 213 857 q 563 990 421 990 q 759 958 671 990 q 908 863 847 925 l 867 796 q 729 886 800 858 q 560 914 658 914 q 360 858 444 914 q 233 696 276 801 q 189 446 189 590 q 276 165 189 264 q 525 65 364 65 q 819 185 690 65 l 850 117 q 507 -11 714 -11 m 799 1271 l 622 1063 l 558 1063 l 415 1271 l 500 1271 l 594 1121 l 711 1271 l 799 1271 z "},"Ç":{"ha":940,"x_min":100,"x_max":908,"o":"m 560 914 q 360 858 444 914 q 233 696 276 801 q 189 446 189 590 q 276 165 189 264 q 525 65 364 65 q 819 185 690 65 l 850 117 q 526 -11 719 -6 l 517 -60 q 547 -57 536 -57 q 621 -81 593 -57 q 649 -150 649 -106 q 608 -234 649 -203 q 492 -265 567 -265 q 429 -259 463 -265 q 371 -239 396 -253 l 390 -186 q 493 -206 443 -206 q 556 -192 533 -206 q 578 -153 578 -179 q 565 -123 578 -133 q 529 -112 553 -112 q 464 -126 503 -112 l 439 -106 l 457 -8 q 196 128 292 8 q 100 447 100 249 q 156 734 100 611 q 317 924 213 857 q 563 990 421 990 q 759 958 671 990 q 908 863 847 925 l 867 796 q 729 886 800 858 q 560 914 658 914 z "},"Ḉ":{"ha":940,"x_min":100,"x_max":908,"o":"m 622 1063 l 558 1063 l 711 1271 l 821 1271 l 622 1063 m 560 914 q 360 858 444 914 q 233 696 276 801 q 189 446 189 590 q 276 165 189 264 q 525 65 364 65 q 819 185 690 65 l 850 117 q 526 -11 719 -6 l 517 -60 q 547 -57 536 -57 q 621 -81 593 -57 q 649 -150 649 -106 q 608 -234 649 -203 q 492 -265 567 -265 q 429 -259 463 -265 q 371 -239 396 -253 l 390 -186 q 493 -206 443 -206 q 556 -192 533 -206 q 578 -153 578 -179 q 565 -123 578 -133 q 529 -112 553 -112 q 464 -126 503 -112 l 439 -106 l 457 -8 q 196 128 292 8 q 100 447 100 249 q 156 734 100 611 q 317 924 213 857 q 563 990 421 990 q 759 958 671 990 q 908 863 847 925 l 867 796 q 729 886 800 858 q 560 914 658 914 z "},"Ĉ":{"ha":940,"x_min":100,"x_max":908,"o":"m 507 -11 q 292 44 385 -11 q 150 202 200 99 q 100 447 100 306 q 156 734 100 611 q 317 924 213 857 q 563 990 421 990 q 759 958 671 990 q 908 863 847 925 l 867 796 q 729 886 800 858 q 560 914 658 914 q 360 858 444 914 q 233 696 276 801 q 189 446 189 590 q 276 165 189 264 q 525 65 364 65 q 819 185 690 65 l 850 117 q 507 -11 714 -11 m 399 1063 l 575 1271 l 639 1271 l 782 1063 l 697 1063 l 606 1213 l 486 1063 l 399 1063 z "},"Ċ":{"ha":940,"x_min":100,"x_max":908,"o":"m 507 -11 q 292 44 385 -11 q 150 202 200 99 q 100 447 100 306 q 156 734 100 611 q 317 924 213 857 q 563 990 421 990 q 759 958 671 990 q 908 863 847 925 l 867 796 q 729 886 800 858 q 560 914 658 914 q 360 858 444 914 q 233 696 276 801 q 189 446 189 590 q 276 165 189 264 q 525 65 364 65 q 819 185 690 65 l 850 117 q 507 -11 714 -11 m 658 1222 l 650 1115 l 539 1115 l 547 1222 l 658 1222 z "},"D":{"ha":1015,"x_min":100,"x_max":940,"o":"m 176 979 l 485 979 q 822 863 704 979 q 940 532 940 746 q 883 247 940 367 q 715 64 825 128 q 450 0 606 0 l 100 0 l 176 979 m 447 75 q 748 194 646 75 q 850 533 850 313 q 482 904 850 904 l 257 904 l 192 75 l 447 75 z "},"Ǆ":{"ha":1806,"x_min":100,"x_max":1790,"o":"m 176 979 l 485 979 q 822 863 704 979 q 940 532 940 746 q 883 247 940 367 q 715 64 825 128 q 450 0 606 0 l 100 0 l 176 979 m 447 75 q 748 194 646 75 q 850 533 850 313 q 482 904 850 904 l 257 904 l 192 75 l 447 75 m 1786 917 l 1139 74 l 1735 74 l 1728 0 l 1028 0 l 1033 63 l 1681 906 l 1100 906 l 1106 979 l 1790 979 l 1786 917 m 1664 1271 l 1488 1063 l 1424 1063 l 1281 1271 l 1365 1271 l 1460 1121 l 1576 1271 l 1664 1271 z "},"Ð":{"ha":1028,"x_min":17,"x_max":951,"o":"m 497 979 q 834 863 717 979 q 951 532 951 746 q 894 247 951 367 q 728 64 838 128 q 463 0 618 0 l 113 0 l 149 461 l 17 461 l 24 532 l 154 532 l 189 979 l 497 979 m 460 75 q 760 194 658 75 q 863 533 863 313 q 771 810 863 717 q 494 904 679 904 l 269 904 l 240 532 l 510 532 l 503 461 l 235 461 l 204 75 l 460 75 z "},"Ď":{"ha":1015,"x_min":100,"x_max":940,"o":"m 176 979 l 485 979 q 822 863 704 979 q 940 532 940 746 q 883 247 940 367 q 715 64 825 128 q 450 0 606 0 l 100 0 l 176 979 m 447 75 q 748 194 646 75 q 850 533 850 313 q 482 904 850 904 l 257 904 l 192 75 l 447 75 m 772 1271 l 596 1063 l 532 1063 l 389 1271 l 474 1271 l 568 1121 l 685 1271 l 772 1271 z "},"Đ":{"ha":1028,"x_min":17,"x_max":951,"o":"m 497 979 q 834 863 717 979 q 951 532 951 746 q 894 247 951 367 q 728 64 838 128 q 463 0 618 0 l 113 0 l 149 461 l 17 461 l 24 532 l 154 532 l 189 979 l 497 979 m 460 75 q 760 194 658 75 q 863 533 863 313 q 771 810 863 717 q 494 904 679 904 l 269 904 l 240 532 l 510 532 l 503 461 l 235 461 l 204 75 l 460 75 z "},"Ḍ":{"ha":1015,"x_min":100,"x_max":940,"o":"m 176 979 l 485 979 q 822 863 704 979 q 940 532 940 746 q 883 247 940 367 q 715 64 825 128 q 450 0 606 0 l 100 0 l 176 979 m 447 75 q 748 194 646 75 q 850 533 850 313 q 482 904 850 904 l 257 904 l 192 75 l 447 75 m 526 -140 l 517 -247 l 408 -247 l 417 -140 l 526 -140 z "},"Ḏ":{"ha":1015,"x_min":100,"x_max":940,"o":"m 176 979 l 485 979 q 822 863 704 979 q 940 532 940 746 q 883 247 940 367 q 715 64 825 128 q 450 0 606 0 l 100 0 l 176 979 m 447 75 q 748 194 646 75 q 850 533 850 313 q 482 904 850 904 l 257 904 l 192 75 l 447 75 m 264 -158 l 675 -158 l 669 -229 l 258 -229 l 264 -158 z "},"ǅ":{"ha":1708,"x_min":100,"x_max":1658,"o":"m 176 979 l 485 979 q 822 863 704 979 q 940 532 940 746 q 883 247 940 367 q 715 64 825 128 q 450 0 606 0 l 100 0 l 176 979 m 447 75 q 748 194 646 75 q 850 533 850 313 q 482 904 850 904 l 257 904 l 192 75 l 447 75 m 1654 610 l 1175 69 l 1626 69 l 1621 0 l 1057 0 l 1061 58 l 1547 606 l 1122 606 l 1126 674 l 1658 674 l 1654 610 m 1614 1043 l 1433 764 l 1367 764 l 1231 1043 l 1315 1043 l 1404 833 l 1526 1043 l 1614 1043 z "},"E":{"ha":804,"x_min":100,"x_max":781,"o":"m 257 906 l 228 535 l 719 535 l 713 460 l 222 460 l 192 74 l 711 74 l 704 0 l 100 0 l 176 979 l 781 979 l 776 906 l 257 906 z "},"É":{"ha":804,"x_min":100,"x_max":781,"o":"m 257 906 l 228 535 l 719 535 l 713 460 l 222 460 l 192 74 l 711 74 l 704 0 l 100 0 l 176 979 l 781 979 l 776 906 l 257 906 m 472 1063 l 625 1271 l 735 1271 l 536 1063 l 472 1063 z "},"Ĕ":{"ha":804,"x_min":100,"x_max":781,"o":"m 257 906 l 228 535 l 719 535 l 713 460 l 222 460 l 192 74 l 711 74 l 704 0 l 100 0 l 176 979 l 781 979 l 776 906 l 257 906 m 506 1081 q 377 1117 433 1081 q 296 1226 321 1153 l 361 1254 q 425 1172 390 1194 q 510 1149 460 1149 q 599 1172 560 1149 q 675 1254 638 1194 l 738 1226 q 506 1081 665 1081 z "},"Ě":{"ha":804,"x_min":100,"x_max":781,"o":"m 257 906 l 228 535 l 719 535 l 713 460 l 222 460 l 192 74 l 711 74 l 704 0 l 100 0 l 176 979 l 781 979 l 776 906 l 257 906 m 713 1271 l 536 1063 l 472 1063 l 329 1271 l 414 1271 l 508 1121 l 625 1271 l 713 1271 z "},"Ȩ":{"ha":804,"x_min":100,"x_max":781,"o":"m 257 906 l 228 535 l 719 535 l 713 460 l 222 460 l 192 74 l 711 74 l 704 0 l 443 0 l 432 -60 q 463 -57 451 -57 q 536 -81 508 -57 q 564 -150 564 -106 q 523 -234 564 -203 q 407 -265 482 -265 q 344 -259 378 -265 q 286 -239 311 -253 l 306 -186 q 408 -206 358 -206 q 471 -192 449 -206 q 493 -153 493 -179 q 481 -123 493 -133 q 444 -112 468 -112 q 379 -126 418 -112 l 354 -106 l 374 0 l 100 0 l 176 979 l 781 979 l 776 906 l 257 906 z "},"Ḝ":{"ha":804,"x_min":100,"x_max":781,"o":"m 506 1081 q 377 1117 433 1081 q 296 1226 321 1153 l 361 1254 q 425 1172 390 1194 q 510 1149 460 1149 q 599 1172 560 1149 q 675 1254 638 1194 l 738 1226 q 506 1081 665 1081 m 257 906 l 228 535 l 719 535 l 713 460 l 222 460 l 192 74 l 711 74 l 704 0 l 443 0 l 432 -60 q 463 -57 451 -57 q 536 -81 508 -57 q 564 -150 564 -106 q 523 -234 564 -203 q 407 -265 482 -265 q 344 -259 378 -265 q 286 -239 311 -253 l 306 -186 q 408 -206 358 -206 q 471 -192 449 -206 q 493 -153 493 -179 q 481 -123 493 -133 q 444 -112 468 -112 q 379 -126 418 -112 l 354 -106 l 374 0 l 100 0 l 176 979 l 781 979 l 776 906 l 257 906 z "},"Ê":{"ha":804,"x_min":100,"x_max":781,"o":"m 257 906 l 228 535 l 719 535 l 713 460 l 222 460 l 192 74 l 711 74 l 704 0 l 100 0 l 176 979 l 781 979 l 776 906 l 257 906 m 313 1063 l 489 1271 l 553 1271 l 696 1063 l 611 1063 l 519 1213 l 400 1063 l 313 1063 z "},"Ế":{"ha":804,"x_min":100,"x_max":883,"o":"m 257 906 l 228 535 l 719 535 l 713 460 l 222 460 l 192 74 l 711 74 l 704 0 l 100 0 l 176 979 l 781 979 l 776 906 l 257 906 m 776 1400 l 883 1400 l 688 1203 l 629 1203 l 776 1400 m 489 1269 l 553 1269 l 696 1063 l 611 1063 l 519 1211 l 400 1063 l 313 1063 l 489 1269 z "},"Ệ":{"ha":804,"x_min":100,"x_max":781,"o":"m 257 906 l 228 535 l 719 535 l 713 460 l 222 460 l 192 74 l 711 74 l 704 0 l 100 0 l 176 979 l 781 979 l 776 906 l 257 906 m 465 -140 l 456 -247 l 347 -247 l 356 -140 l 465 -140 m 313 1063 l 489 1271 l 553 1271 l 696 1063 l 611 1063 l 519 1213 l 400 1063 l 313 1063 z "},"Ề":{"ha":804,"x_min":100,"x_max":781,"o":"m 257 906 l 228 535 l 719 535 l 713 460 l 222 460 l 192 74 l 711 74 l 704 0 l 100 0 l 176 979 l 781 979 l 776 906 l 257 906 m 556 1400 l 651 1400 l 747 1203 l 689 1203 l 556 1400 m 489 1269 l 553 1269 l 696 1063 l 611 1063 l 519 1211 l 400 1063 l 313 1063 l 489 1269 z "},"Ể":{"ha":804,"x_min":100,"x_max":810,"o":"m 257 906 l 228 535 l 719 535 l 713 460 l 222 460 l 192 74 l 711 74 l 704 0 l 100 0 l 176 979 l 781 979 l 776 906 l 257 906 m 629 1226 q 647 1263 631 1251 q 693 1288 664 1275 q 724 1303 715 1297 q 732 1319 732 1310 q 717 1338 732 1332 q 676 1344 701 1344 q 586 1329 638 1344 l 572 1385 q 682 1407 622 1407 q 776 1385 742 1407 q 810 1328 810 1363 q 792 1284 810 1299 q 743 1256 775 1269 q 708 1238 721 1246 q 694 1215 696 1229 l 693 1203 l 628 1203 l 629 1226 m 489 1269 l 553 1269 l 696 1063 l 611 1063 l 519 1211 l 400 1063 l 313 1063 l 489 1269 z "},"Ễ":{"ha":804,"x_min":100,"x_max":781,"o":"m 257 906 l 228 535 l 719 535 l 713 460 l 222 460 l 192 74 l 711 74 l 704 0 l 100 0 l 176 979 l 781 979 l 776 906 l 257 906 m 625 1293 q 569 1302 596 1293 q 508 1329 543 1311 q 464 1350 482 1343 q 429 1357 446 1357 q 379 1337 399 1357 q 358 1289 360 1317 l 304 1289 q 342 1388 307 1351 q 431 1424 376 1424 q 486 1414 460 1424 q 547 1388 513 1404 q 592 1367 574 1374 q 626 1360 610 1360 q 676 1380 657 1360 q 697 1428 696 1400 l 751 1428 q 714 1329 749 1365 q 625 1293 679 1293 m 489 1269 l 553 1269 l 696 1063 l 611 1063 l 519 1211 l 400 1063 l 313 1063 l 489 1269 z "},"Ȅ":{"ha":804,"x_min":100,"x_max":781,"o":"m 257 906 l 228 535 l 719 535 l 713 460 l 222 460 l 192 74 l 711 74 l 704 0 l 100 0 l 176 979 l 781 979 l 776 906 l 257 906 m 283 1271 l 367 1271 l 450 1063 l 401 1063 l 283 1271 m 442 1271 l 525 1271 l 607 1063 l 558 1063 l 442 1271 z "},"Ë":{"ha":804,"x_min":100,"x_max":781,"o":"m 257 906 l 228 535 l 719 535 l 713 460 l 222 460 l 192 74 l 711 74 l 704 0 l 100 0 l 176 979 l 781 979 l 776 906 l 257 906 m 454 1218 l 446 1118 l 342 1118 l 350 1218 l 454 1218 m 685 1218 l 676 1118 l 572 1118 l 581 1218 l 685 1218 z "},"Ė":{"ha":804,"x_min":100,"x_max":781,"o":"m 257 906 l 228 535 l 719 535 l 713 460 l 222 460 l 192 74 l 711 74 l 704 0 l 100 0 l 176 979 l 781 979 l 776 906 l 257 906 m 572 1222 l 564 1115 l 453 1115 l 461 1222 l 572 1222 z "},"Ẹ":{"ha":804,"x_min":100,"x_max":781,"o":"m 257 906 l 228 535 l 719 535 l 713 460 l 222 460 l 192 74 l 711 74 l 704 0 l 100 0 l 176 979 l 781 979 l 776 906 l 257 906 m 465 -140 l 456 -247 l 347 -247 l 356 -140 l 465 -140 z "},"È":{"ha":804,"x_min":100,"x_max":781,"o":"m 257 906 l 228 535 l 719 535 l 713 460 l 222 460 l 192 74 l 711 74 l 704 0 l 100 0 l 176 979 l 781 979 l 776 906 l 257 906 m 314 1271 l 411 1271 l 536 1063 l 472 1063 l 314 1271 z "},"Ẻ":{"ha":804,"x_min":100,"x_max":781,"o":"m 257 906 l 228 535 l 719 535 l 713 460 l 222 460 l 192 74 l 711 74 l 704 0 l 100 0 l 176 979 l 781 979 l 776 906 l 257 906 m 538 1063 l 472 1063 l 474 1085 q 492 1124 475 1108 q 536 1153 508 1139 q 567 1171 557 1163 q 576 1190 576 1179 q 561 1208 576 1201 q 519 1215 546 1215 q 432 1199 478 1215 l 417 1254 q 526 1278 468 1278 q 620 1256 586 1278 q 654 1196 654 1233 q 636 1149 654 1165 q 585 1117 618 1132 q 551 1097 563 1107 q 539 1075 540 1088 l 538 1063 z "},"Ȇ":{"ha":804,"x_min":100,"x_max":781,"o":"m 257 906 l 228 535 l 719 535 l 713 460 l 222 460 l 192 74 l 711 74 l 704 0 l 100 0 l 176 979 l 781 979 l 776 906 l 257 906 m 519 1256 q 648 1219 592 1256 q 729 1108 704 1183 l 664 1082 q 600 1165 635 1142 q 515 1188 565 1188 q 426 1165 465 1188 q 350 1082 388 1142 l 288 1108 q 519 1256 361 1256 z "},"Ē":{"ha":804,"x_min":100,"x_max":781,"o":"m 257 906 l 228 535 l 719 535 l 713 460 l 222 460 l 192 74 l 711 74 l 704 0 l 100 0 l 176 979 l 781 979 l 776 906 l 257 906 m 311 1204 l 721 1204 l 715 1132 l 304 1132 l 311 1204 z "},"Ḗ":{"ha":804,"x_min":100,"x_max":781,"o":"m 257 906 l 228 535 l 719 535 l 713 460 l 222 460 l 192 74 l 711 74 l 704 0 l 100 0 l 176 979 l 781 979 l 776 906 l 257 906 m 311 1204 l 721 1204 l 715 1132 l 304 1132 l 311 1204 m 490 1285 l 643 1493 l 753 1493 l 554 1285 l 490 1285 z "},"Ḕ":{"ha":804,"x_min":100,"x_max":781,"o":"m 257 906 l 228 535 l 719 535 l 713 460 l 222 460 l 192 74 l 711 74 l 704 0 l 100 0 l 176 979 l 781 979 l 776 906 l 257 906 m 311 1204 l 721 1204 l 715 1132 l 304 1132 l 311 1204 m 332 1493 l 429 1493 l 554 1285 l 490 1285 l 332 1493 z "},"Ę":{"ha":804,"x_min":100,"x_max":781,"o":"m 257 906 l 228 535 l 719 535 l 713 460 l 222 460 l 192 74 l 711 74 l 704 0 l 686 0 q 579 -33 614 0 q 544 -117 544 -65 q 567 -181 544 -158 q 629 -203 589 -203 q 714 -176 669 -203 l 732 -235 q 681 -257 711 -249 q 619 -265 650 -265 q 509 -228 550 -265 q 468 -132 468 -192 q 529 0 468 -53 l 100 0 l 176 979 l 781 979 l 776 906 l 257 906 z "},"Ẽ":{"ha":804,"x_min":100,"x_max":781,"o":"m 257 906 l 228 535 l 719 535 l 713 460 l 222 460 l 192 74 l 711 74 l 704 0 l 100 0 l 176 979 l 781 979 l 776 906 l 257 906 m 289 1099 q 326 1207 292 1169 q 417 1244 361 1244 q 470 1233 444 1244 q 531 1199 496 1221 q 576 1172 558 1181 q 611 1163 594 1163 q 662 1184 643 1163 q 682 1240 681 1206 l 736 1240 q 699 1132 733 1169 q 608 1094 664 1094 q 555 1106 581 1094 q 496 1140 529 1118 q 449 1167 467 1158 q 415 1175 432 1175 q 365 1154 383 1175 q 343 1099 346 1133 l 289 1099 z "},"F":{"ha":768,"x_min":100,"x_max":767,"o":"m 257 906 l 228 535 l 706 535 l 699 460 l 222 460 l 186 0 l 100 0 l 176 979 l 767 979 l 763 906 l 257 906 z "},"G":{"ha":999,"x_min":99,"x_max":915,"o":"m 560 501 l 896 501 l 861 56 q 710 8 800 26 q 540 -11 621 -11 q 213 106 326 -11 q 99 433 99 224 q 158 727 99 601 q 325 921 217 853 q 579 989 433 989 q 915 863 785 989 l 874 794 q 734 886 803 858 q 579 914 665 914 q 369 857 457 914 q 234 693 281 800 q 188 439 188 586 q 276 161 188 258 q 540 64 365 64 q 667 76 601 64 q 788 108 733 88 l 813 429 l 554 429 l 560 501 z "},"Ğ":{"ha":999,"x_min":99,"x_max":915,"o":"m 560 501 l 896 501 l 861 56 q 710 8 800 26 q 540 -11 621 -11 q 213 106 326 -11 q 99 433 99 224 q 158 727 99 601 q 325 921 217 853 q 579 989 433 989 q 915 863 785 989 l 874 794 q 734 886 803 858 q 579 914 665 914 q 369 857 457 914 q 234 693 281 800 q 188 439 188 586 q 276 161 188 258 q 540 64 365 64 q 667 76 601 64 q 788 108 733 88 l 813 429 l 554 429 l 560 501 m 597 1081 q 469 1117 525 1081 q 388 1226 413 1153 l 453 1254 q 517 1172 482 1194 q 601 1149 551 1149 q 690 1172 651 1149 q 767 1254 729 1194 l 829 1226 q 597 1081 757 1081 z "},"Ǧ":{"ha":999,"x_min":99,"x_max":915,"o":"m 560 501 l 896 501 l 861 56 q 710 8 800 26 q 540 -11 621 -11 q 213 106 326 -11 q 99 433 99 224 q 158 727 99 601 q 325 921 217 853 q 579 989 433 989 q 915 863 785 989 l 874 794 q 734 886 803 858 q 579 914 665 914 q 369 857 457 914 q 234 693 281 800 q 188 439 188 586 q 276 161 188 258 q 540 64 365 64 q 667 76 601 64 q 788 108 733 88 l 813 429 l 554 429 l 560 501 m 804 1271 l 628 1063 l 564 1063 l 421 1271 l 506 1271 l 600 1121 l 717 1271 l 804 1271 z "},"Ĝ":{"ha":999,"x_min":99,"x_max":915,"o":"m 560 501 l 896 501 l 861 56 q 710 8 800 26 q 540 -11 621 -11 q 213 106 326 -11 q 99 433 99 224 q 158 727 99 601 q 325 921 217 853 q 579 989 433 989 q 915 863 785 989 l 874 794 q 734 886 803 858 q 579 914 665 914 q 369 857 457 914 q 234 693 281 800 q 188 439 188 586 q 276 161 188 258 q 540 64 365 64 q 667 76 601 64 q 788 108 733 88 l 813 429 l 554 429 l 560 501 m 404 1063 l 581 1271 l 644 1271 l 788 1063 l 703 1063 l 611 1213 l 492 1063 l 404 1063 z "},"Ģ":{"ha":999,"x_min":99,"x_max":915,"o":"m 560 501 l 896 501 l 861 56 q 710 8 800 26 q 540 -11 621 -11 q 213 106 326 -11 q 99 433 99 224 q 158 727 99 601 q 325 921 217 853 q 579 989 433 989 q 915 863 785 989 l 874 794 q 734 886 803 858 q 579 914 665 914 q 369 857 457 914 q 234 693 281 800 q 188 439 188 586 q 276 161 188 258 q 540 64 365 64 q 667 76 601 64 q 788 108 733 88 l 813 429 l 554 429 l 560 501 m 572 -103 l 567 -181 q 543 -276 561 -235 q 485 -354 525 -317 l 444 -321 q 488 -264 475 -290 q 503 -204 500 -237 l 449 -204 l 456 -103 l 572 -103 z "},"Ġ":{"ha":999,"x_min":99,"x_max":915,"o":"m 560 501 l 896 501 l 861 56 q 710 8 800 26 q 540 -11 621 -11 q 213 106 326 -11 q 99 433 99 224 q 158 727 99 601 q 325 921 217 853 q 579 989 433 989 q 915 863 785 989 l 874 794 q 734 886 803 858 q 579 914 665 914 q 369 857 457 914 q 234 693 281 800 q 188 439 188 586 q 276 161 188 258 q 540 64 365 64 q 667 76 601 64 q 788 108 733 88 l 813 429 l 554 429 l 560 501 m 664 1222 l 656 1115 l 544 1115 l 553 1222 l 664 1222 z "},"Ḡ":{"ha":999,"x_min":99,"x_max":915,"o":"m 560 501 l 896 501 l 861 56 q 710 8 800 26 q 540 -11 621 -11 q 213 106 326 -11 q 99 433 99 224 q 158 727 99 601 q 325 921 217 853 q 579 989 433 989 q 915 863 785 989 l 874 794 q 734 886 803 858 q 579 914 665 914 q 369 857 457 914 q 234 693 281 800 q 188 439 188 586 q 276 161 188 258 q 540 64 365 64 q 667 76 601 64 q 788 108 733 88 l 813 429 l 554 429 l 560 501 m 403 1204 l 813 1204 l 807 1132 l 396 1132 l 403 1204 z "},"H":{"ha":1047,"x_min":100,"x_max":971,"o":"m 971 979 l 894 0 l 810 0 l 846 460 l 221 460 l 185 0 l 100 0 l 176 979 l 263 979 l 228 535 l 851 535 l 886 979 l 971 979 z "},"Ħ":{"ha":1072,"x_min":39,"x_max":1100,"o":"m 1094 728 l 965 728 l 908 0 l 824 0 l 860 460 l 235 460 l 199 0 l 114 0 l 171 728 l 39 728 l 44 799 l 176 799 l 190 979 l 276 979 l 263 799 l 886 799 l 900 979 l 985 979 l 971 799 l 1100 799 l 1094 728 m 881 728 l 257 728 l 242 535 l 865 535 l 881 728 z "},"Ḫ":{"ha":1047,"x_min":100,"x_max":971,"o":"m 971 979 l 894 0 l 810 0 l 846 460 l 221 460 l 185 0 l 100 0 l 176 979 l 263 979 l 228 535 l 851 535 l 886 979 l 971 979 m 476 -287 q 348 -246 404 -287 q 268 -119 292 -204 l 333 -92 q 482 -218 378 -218 q 573 -190 532 -218 q 647 -92 614 -161 l 710 -118 q 613 -247 674 -207 q 476 -287 551 -287 z "},"Ĥ":{"ha":1047,"x_min":100,"x_max":971,"o":"m 971 979 l 894 0 l 810 0 l 846 460 l 221 460 l 185 0 l 100 0 l 176 979 l 263 979 l 228 535 l 851 535 l 886 979 l 971 979 m 389 1063 l 565 1271 l 629 1271 l 772 1063 l 688 1063 l 596 1213 l 476 1063 l 389 1063 z "},"Ḥ":{"ha":1047,"x_min":100,"x_max":971,"o":"m 971 979 l 894 0 l 810 0 l 846 460 l 221 460 l 185 0 l 100 0 l 176 979 l 263 979 l 228 535 l 851 535 l 886 979 l 971 979 m 543 -140 l 533 -247 l 425 -247 l 433 -140 l 543 -140 z "},"I":{"ha":339,"x_min":100,"x_max":263,"o":"m 176 979 l 263 979 l 186 0 l 100 0 l 176 979 z "},"Í":{"ha":339,"x_min":100,"x_max":457,"o":"m 176 979 l 263 979 l 186 0 l 100 0 l 176 979 m 194 1063 l 347 1271 l 457 1271 l 258 1063 l 194 1063 z "},"Ĭ":{"ha":339,"x_min":18,"x_max":460,"o":"m 176 979 l 263 979 l 186 0 l 100 0 l 176 979 m 228 1081 q 99 1117 156 1081 q 18 1226 43 1153 l 83 1254 q 147 1172 113 1194 q 232 1149 182 1149 q 321 1172 282 1149 q 397 1254 360 1194 l 460 1226 q 228 1081 388 1081 z "},"Î":{"ha":339,"x_min":35,"x_max":418,"o":"m 176 979 l 263 979 l 186 0 l 100 0 l 176 979 m 35 1063 l 211 1271 l 275 1271 l 418 1063 l 333 1063 l 242 1213 l 122 1063 l 35 1063 z "},"Ȉ":{"ha":339,"x_min":6,"x_max":329,"o":"m 176 979 l 263 979 l 186 0 l 100 0 l 176 979 m 6 1271 l 89 1271 l 172 1063 l 124 1063 l 6 1271 m 164 1271 l 247 1271 l 329 1063 l 281 1063 l 164 1271 z "},"Ï":{"ha":339,"x_min":64,"x_max":407,"o":"m 176 979 l 263 979 l 186 0 l 100 0 l 176 979 m 176 1218 l 168 1118 l 64 1118 l 72 1218 l 176 1218 m 407 1218 l 399 1118 l 294 1118 l 303 1218 l 407 1218 z "},"Ḯ":{"ha":339,"x_min":64,"x_max":475,"o":"m 176 979 l 263 979 l 186 0 l 100 0 l 176 979 m 176 1218 l 168 1118 l 64 1118 l 72 1218 l 176 1218 m 407 1218 l 399 1118 l 294 1118 l 303 1218 l 407 1218 m 213 1285 l 365 1493 l 475 1493 l 276 1285 l 213 1285 z "},"İ":{"ha":339,"x_min":100,"x_max":294,"o":"m 176 979 l 263 979 l 186 0 l 100 0 l 176 979 m 294 1222 l 286 1115 l 175 1115 l 183 1222 l 294 1222 z "},"Ị":{"ha":339,"x_min":69,"x_max":263,"o":"m 176 979 l 263 979 l 186 0 l 100 0 l 176 979 m 188 -140 l 178 -247 l 69 -247 l 78 -140 l 188 -140 z "},"Ì":{"ha":339,"x_min":36,"x_max":263,"o":"m 176 979 l 263 979 l 186 0 l 100 0 l 176 979 m 36 1271 l 133 1271 l 258 1063 l 194 1063 l 36 1271 z "},"Ỉ":{"ha":339,"x_min":100,"x_max":376,"o":"m 176 979 l 263 979 l 186 0 l 100 0 l 176 979 m 260 1063 l 194 1063 l 196 1085 q 214 1124 197 1108 q 258 1153 231 1139 q 289 1171 279 1163 q 299 1190 299 1179 q 283 1208 299 1201 q 242 1215 268 1215 q 154 1199 200 1215 l 139 1254 q 249 1278 190 1278 q 342 1256 308 1278 q 376 1196 376 1233 q 358 1149 376 1165 q 307 1117 340 1132 q 274 1097 285 1107 q 261 1075 263 1088 l 260 1063 z "},"Ȋ":{"ha":339,"x_min":10,"x_max":451,"o":"m 176 979 l 263 979 l 186 0 l 100 0 l 176 979 m 242 1256 q 370 1219 314 1256 q 451 1108 426 1183 l 386 1082 q 322 1165 357 1142 q 238 1188 288 1188 q 149 1165 188 1188 q 72 1082 110 1142 l 10 1108 q 242 1256 83 1256 z "},"Ī":{"ha":339,"x_min":26,"x_max":443,"o":"m 176 979 l 263 979 l 186 0 l 100 0 l 176 979 m 33 1204 l 443 1204 l 438 1132 l 26 1132 l 33 1204 z "},"Į":{"ha":339,"x_min":-32,"x_max":263,"o":"m 129 -203 q 214 -176 169 -203 l 232 -235 q 181 -257 211 -249 q 119 -265 150 -265 q 9 -228 50 -265 q -32 -128 -32 -190 q 3 -22 -32 -67 q 104 44 38 24 l 176 979 l 263 979 l 186 0 l 179 0 q 77 -33 110 0 q 44 -115 44 -65 q 66 -181 44 -158 q 129 -203 88 -203 z "},"Ĩ":{"ha":339,"x_min":11,"x_max":458,"o":"m 176 979 l 263 979 l 186 0 l 100 0 l 176 979 m 11 1099 q 49 1207 14 1169 q 139 1244 83 1244 q 192 1233 167 1244 q 253 1199 218 1221 q 299 1172 281 1181 q 333 1163 317 1163 q 384 1184 365 1163 q 404 1240 403 1206 l 458 1240 q 421 1132 456 1169 q 331 1094 386 1094 q 277 1106 303 1094 q 218 1140 251 1118 q 172 1167 189 1158 q 138 1175 154 1175 q 87 1154 106 1175 q 65 1099 68 1133 l 11 1099 z "},"J":{"ha":432,"x_min":-33,"x_max":356,"o":"m -33 64 l 43 69 q 214 256 199 82 l 269 979 l 356 979 l 299 254 q 47 -3 281 14 l -32 -8 l -33 64 z "},"Ĵ":{"ha":432,"x_min":-33,"x_max":511,"o":"m -33 64 l 43 69 q 214 256 199 82 l 269 979 l 356 979 l 299 254 q 47 -3 281 14 l -32 -8 l -33 64 m 128 1063 l 304 1271 l 368 1271 l 511 1063 l 426 1063 l 335 1213 l 215 1063 l 128 1063 z "},"K":{"ha":851,"x_min":100,"x_max":875,"o":"m 307 501 l 828 0 l 719 0 l 222 472 l 186 0 l 100 0 l 176 979 l 263 979 l 228 529 l 756 979 l 875 979 l 307 501 z "},"Ķ":{"ha":851,"x_min":100,"x_max":875,"o":"m 307 501 l 828 0 l 719 0 l 222 472 l 186 0 l 100 0 l 176 979 l 263 979 l 228 529 l 756 979 l 875 979 l 307 501 m 453 -103 l 447 -181 q 424 -276 442 -235 q 365 -354 406 -317 l 325 -321 q 368 -264 356 -290 q 383 -204 381 -237 l 329 -204 l 336 -103 l 453 -103 z "},"L":{"ha":740,"x_min":100,"x_max":697,"o":"m 176 979 l 263 979 l 192 75 l 697 75 l 692 0 l 100 0 l 176 979 z "},"Ǉ":{"ha":1171,"x_min":100,"x_max":1093,"o":"m 176 979 l 263 979 l 192 75 l 656 75 l 650 0 l 100 0 l 176 979 m 704 64 l 781 69 q 951 256 936 82 l 1008 979 l 1093 979 l 1038 254 q 785 -3 1019 14 l 707 -8 l 704 64 z "},"Ĺ":{"ha":740,"x_min":100,"x_max":697,"o":"m 176 979 l 263 979 l 192 75 l 697 75 l 692 0 l 100 0 l 176 979 m 194 1063 l 347 1271 l 457 1271 l 258 1063 l 194 1063 z "},"Ľ":{"ha":740,"x_min":100,"x_max":697,"o":"m 176 979 l 263 979 l 192 75 l 697 75 l 692 0 l 100 0 l 176 979 m 358 717 l 378 979 l 464 979 l 408 717 l 358 717 z "},"Ļ":{"ha":740,"x_min":100,"x_max":697,"o":"m 176 979 l 263 979 l 192 75 l 697 75 l 692 0 l 100 0 l 176 979 m 450 -103 l 444 -181 q 421 -276 439 -235 q 363 -354 403 -317 l 322 -321 q 365 -264 353 -290 q 381 -204 378 -237 l 326 -204 l 333 -103 l 450 -103 z "},"Ŀ":{"ha":740,"x_min":100,"x_max":697,"o":"m 176 979 l 263 979 l 192 75 l 697 75 l 692 0 l 100 0 l 176 979 m 546 546 l 538 435 l 419 435 l 428 546 l 546 546 z "},"Ḷ":{"ha":740,"x_min":100,"x_max":697,"o":"m 176 979 l 263 979 l 192 75 l 697 75 l 692 0 l 100 0 l 176 979 m 444 -140 l 435 -247 l 326 -247 l 335 -140 l 444 -140 z "},"ǈ":{"ha":1049,"x_min":100,"x_max":999,"o":"m 176 979 l 263 979 l 192 75 l 697 75 l 692 0 l 100 0 l 176 979 m 910 1 q 840 -183 900 -122 q 658 -250 779 -243 l 597 -254 l 594 -186 l 656 -182 q 778 -135 738 -175 q 824 -10 818 -94 l 878 674 l 963 674 l 910 1 m 999 958 l 990 851 l 879 851 l 888 958 l 999 958 z "},"Ḻ":{"ha":740,"x_min":100,"x_max":697,"o":"m 176 979 l 263 979 l 192 75 l 697 75 l 692 0 l 100 0 l 176 979 m 182 -158 l 593 -158 l 588 -229 l 176 -229 l 182 -158 z "},"Ł":{"ha":753,"x_min":0,"x_max":710,"o":"m 710 75 l 704 0 l 113 0 l 146 429 l 32 367 l 0 429 l 153 513 l 189 979 l 274 979 l 242 563 l 497 703 l 528 640 l 235 479 l 204 75 l 710 75 z "},"M":{"ha":1167,"x_min":100,"x_max":1090,"o":"m 1090 979 l 1014 0 l 932 0 l 997 806 l 603 154 l 539 154 l 246 804 l 182 0 l 100 0 l 178 979 l 250 979 l 578 239 l 1018 979 l 1090 979 z "},"Ṃ":{"ha":1167,"x_min":100,"x_max":1090,"o":"m 1090 979 l 1014 0 l 932 0 l 997 806 l 603 154 l 539 154 l 246 804 l 182 0 l 100 0 l 178 979 l 250 979 l 578 239 l 1018 979 l 1090 979 m 601 -140 l 592 -247 l 483 -247 l 492 -140 l 601 -140 z "},"N":{"ha":1021,"x_min":100,"x_max":944,"o":"m 944 979 l 868 0 l 801 0 l 247 838 l 181 0 l 100 0 l 176 979 l 246 979 l 799 147 l 864 979 l 944 979 z "},"Ǌ":{"ha":1453,"x_min":100,"x_max":1376,"o":"m 944 979 l 868 0 l 801 0 l 247 838 l 181 0 l 100 0 l 176 979 l 246 979 l 799 147 l 864 979 l 944 979 m 988 64 l 1064 69 q 1235 256 1219 82 l 1290 979 l 1376 979 l 1319 254 q 1068 -3 1301 14 l 989 -8 l 988 64 z "},"Ń":{"ha":1021,"x_min":100,"x_max":944,"o":"m 944 979 l 868 0 l 801 0 l 247 838 l 181 0 l 100 0 l 176 979 l 246 979 l 799 147 l 864 979 l 944 979 m 536 1063 l 689 1271 l 799 1271 l 600 1063 l 536 1063 z "},"Ň":{"ha":1021,"x_min":100,"x_max":944,"o":"m 944 979 l 868 0 l 801 0 l 247 838 l 181 0 l 100 0 l 176 979 l 246 979 l 799 147 l 864 979 l 944 979 m 776 1271 l 600 1063 l 536 1063 l 393 1271 l 478 1271 l 572 1121 l 689 1271 l 776 1271 z "},"Ņ":{"ha":1021,"x_min":100,"x_max":944,"o":"m 944 979 l 868 0 l 801 0 l 247 838 l 181 0 l 100 0 l 176 979 l 246 979 l 799 147 l 864 979 l 944 979 m 535 -103 l 529 -181 q 506 -276 524 -235 q 447 -354 488 -317 l 407 -321 q 450 -264 438 -290 q 465 -204 463 -237 l 411 -204 l 418 -103 l 535 -103 z "},"Ṅ":{"ha":1021,"x_min":100,"x_max":944,"o":"m 944 979 l 868 0 l 801 0 l 247 838 l 181 0 l 100 0 l 176 979 l 246 979 l 799 147 l 864 979 l 944 979 m 636 1222 l 628 1115 l 517 1115 l 525 1222 l 636 1222 z "},"Ṇ":{"ha":1021,"x_min":100,"x_max":944,"o":"m 944 979 l 868 0 l 801 0 l 247 838 l 181 0 l 100 0 l 176 979 l 246 979 l 799 147 l 864 979 l 944 979 m 529 -140 l 519 -247 l 411 -247 l 419 -140 l 529 -140 z "},"Ŋ":{"ha":1021,"x_min":100,"x_max":944,"o":"m 944 979 l 867 -8 q 798 -181 860 -118 q 617 -253 736 -244 l 536 -258 l 536 -186 l 611 -181 q 786 -14 774 -168 l 789 19 l 247 838 l 181 0 l 100 0 l 176 979 l 246 979 l 799 147 l 864 979 l 944 979 z "},"ǋ":{"ha":1329,"x_min":100,"x_max":1279,"o":"m 944 979 l 868 0 l 801 0 l 247 838 l 181 0 l 100 0 l 176 979 l 246 979 l 799 147 l 864 979 l 944 979 m 1190 1 q 1120 -183 1181 -122 q 939 -250 1060 -243 l 878 -254 l 875 -186 l 936 -182 q 1058 -135 1018 -175 q 1104 -10 1099 -94 l 1158 674 l 1243 674 l 1190 1 m 1279 958 l 1271 851 l 1160 851 l 1168 958 l 1279 958 z "},"Ṉ":{"ha":1021,"x_min":100,"x_max":944,"o":"m 944 979 l 868 0 l 801 0 l 247 838 l 181 0 l 100 0 l 176 979 l 246 979 l 799 147 l 864 979 l 944 979 m 267 -158 l 678 -158 l 672 -229 l 261 -229 l 267 -158 z "},"Ñ":{"ha":1021,"x_min":100,"x_max":944,"o":"m 944 979 l 868 0 l 801 0 l 247 838 l 181 0 l 100 0 l 176 979 l 246 979 l 799 147 l 864 979 l 944 979 m 353 1099 q 390 1207 356 1169 q 481 1244 425 1244 q 534 1233 508 1244 q 594 1199 560 1221 q 640 1172 622 1181 q 675 1163 658 1163 q 726 1184 707 1163 q 746 1240 744 1206 l 800 1240 q 763 1132 797 1169 q 672 1094 728 1094 q 619 1106 644 1094 q 560 1140 593 1118 q 513 1167 531 1158 q 479 1175 496 1175 q 428 1154 447 1175 q 407 1099 410 1133 l 353 1099 z "},"O":{"ha":1051,"x_min":100,"x_max":975,"o":"m 525 -11 q 299 44 394 -11 q 151 202 203 99 q 100 447 100 306 q 156 734 100 611 q 313 924 211 857 q 549 990 414 990 q 776 935 681 990 q 924 777 872 881 q 975 532 975 674 q 920 245 975 368 q 763 56 865 122 q 525 -11 661 -11 m 526 67 q 719 122 638 67 q 843 283 800 178 q 886 532 886 388 q 799 815 886 717 q 549 913 711 913 q 356 857 438 913 q 232 696 275 801 q 189 446 189 590 q 276 165 189 263 q 526 67 364 67 z "},"Ó":{"ha":1051,"x_min":100,"x_max":975,"o":"m 525 -11 q 299 44 394 -11 q 151 202 203 99 q 100 447 100 306 q 156 734 100 611 q 313 924 211 857 q 549 990 414 990 q 776 935 681 990 q 924 777 872 881 q 975 532 975 674 q 920 245 975 368 q 763 56 865 122 q 525 -11 661 -11 m 526 67 q 719 122 638 67 q 843 283 800 178 q 886 532 886 388 q 799 815 886 717 q 549 913 711 913 q 356 857 438 913 q 232 696 275 801 q 189 446 189 590 q 276 165 189 263 q 526 67 364 67 m 550 1063 l 703 1271 l 813 1271 l 614 1063 l 550 1063 z "},"Ŏ":{"ha":1051,"x_min":100,"x_max":975,"o":"m 525 -11 q 299 44 394 -11 q 151 202 203 99 q 100 447 100 306 q 156 734 100 611 q 313 924 211 857 q 549 990 414 990 q 776 935 681 990 q 924 777 872 881 q 975 532 975 674 q 920 245 975 368 q 763 56 865 122 q 525 -11 661 -11 m 526 67 q 719 122 638 67 q 843 283 800 178 q 886 532 886 388 q 799 815 886 717 q 549 913 711 913 q 356 857 438 913 q 232 696 275 801 q 189 446 189 590 q 276 165 189 263 q 526 67 364 67 m 583 1081 q 455 1117 511 1081 q 374 1226 399 1153 l 439 1254 q 503 1172 468 1194 q 588 1149 538 1149 q 676 1172 638 1149 q 753 1254 715 1194 l 815 1226 q 583 1081 743 1081 z "},"Ô":{"ha":1051,"x_min":100,"x_max":975,"o":"m 525 -11 q 299 44 394 -11 q 151 202 203 99 q 100 447 100 306 q 156 734 100 611 q 313 924 211 857 q 549 990 414 990 q 776 935 681 990 q 924 777 872 881 q 975 532 975 674 q 920 245 975 368 q 763 56 865 122 q 525 -11 661 -11 m 526 67 q 719 122 638 67 q 843 283 800 178 q 886 532 886 388 q 799 815 886 717 q 549 913 711 913 q 356 857 438 913 q 232 696 275 801 q 189 446 189 590 q 276 165 189 263 q 526 67 364 67 m 390 1063 l 567 1271 l 631 1271 l 774 1063 l 689 1063 l 597 1213 l 478 1063 l 390 1063 z "},"Ố":{"ha":1051,"x_min":100,"x_max":975,"o":"m 525 -11 q 299 44 394 -11 q 151 202 203 99 q 100 447 100 306 q 156 734 100 611 q 313 924 211 857 q 549 990 414 990 q 776 935 681 990 q 924 777 872 881 q 975 532 975 674 q 920 245 975 368 q 763 56 865 122 q 525 -11 661 -11 m 526 67 q 719 122 638 67 q 843 283 800 178 q 886 532 886 388 q 799 815 886 717 q 549 913 711 913 q 356 857 438 913 q 232 696 275 801 q 189 446 189 590 q 276 165 189 263 q 526 67 364 67 m 854 1400 l 961 1400 l 765 1203 l 707 1203 l 854 1400 m 567 1269 l 631 1269 l 774 1063 l 689 1063 l 597 1211 l 478 1063 l 390 1063 l 567 1269 z "},"Ộ":{"ha":1051,"x_min":100,"x_max":975,"o":"m 525 -11 q 299 44 394 -11 q 151 202 203 99 q 100 447 100 306 q 156 734 100 611 q 313 924 211 857 q 549 990 414 990 q 776 935 681 990 q 924 777 872 881 q 975 532 975 674 q 920 245 975 368 q 763 56 865 122 q 525 -11 661 -11 m 526 67 q 719 122 638 67 q 843 283 800 178 q 886 532 886 388 q 799 815 886 717 q 549 913 711 913 q 356 857 438 913 q 232 696 275 801 q 189 446 189 590 q 276 165 189 263 q 526 67 364 67 m 543 -140 l 533 -247 l 425 -247 l 433 -140 l 543 -140 m 390 1063 l 567 1271 l 631 1271 l 774 1063 l 689 1063 l 597 1213 l 478 1063 l 390 1063 z "},"Ồ":{"ha":1051,"x_min":100,"x_max":975,"o":"m 525 -11 q 299 44 394 -11 q 151 202 203 99 q 100 447 100 306 q 156 734 100 611 q 313 924 211 857 q 549 990 414 990 q 776 935 681 990 q 924 777 872 881 q 975 532 975 674 q 920 245 975 368 q 763 56 865 122 q 525 -11 661 -11 m 526 67 q 719 122 638 67 q 843 283 800 178 q 886 532 886 388 q 799 815 886 717 q 549 913 711 913 q 356 857 438 913 q 232 696 275 801 q 189 446 189 590 q 276 165 189 263 q 526 67 364 67 m 633 1400 l 729 1400 l 825 1203 l 767 1203 l 633 1400 m 567 1269 l 631 1269 l 774 1063 l 689 1063 l 597 1211 l 478 1063 l 390 1063 l 567 1269 z "},"Ổ":{"ha":1051,"x_min":100,"x_max":975,"o":"m 525 -11 q 299 44 394 -11 q 151 202 203 99 q 100 447 100 306 q 156 734 100 611 q 313 924 211 857 q 549 990 414 990 q 776 935 681 990 q 924 777 872 881 q 975 532 975 674 q 920 245 975 368 q 763 56 865 122 q 525 -11 661 -11 m 526 67 q 719 122 638 67 q 843 283 800 178 q 886 532 886 388 q 799 815 886 717 q 549 913 711 913 q 356 857 438 913 q 232 696 275 801 q 189 446 189 590 q 276 165 189 263 q 526 67 364 67 m 707 1226 q 725 1263 708 1251 q 771 1288 742 1275 q 801 1303 793 1297 q 810 1319 810 1310 q 794 1338 810 1332 q 754 1344 779 1344 q 664 1329 715 1344 l 650 1385 q 760 1407 700 1407 q 853 1385 819 1407 q 888 1328 888 1363 q 870 1284 888 1299 q 821 1256 853 1269 q 786 1238 799 1246 q 772 1215 774 1229 l 771 1203 l 706 1203 l 707 1226 m 567 1269 l 631 1269 l 774 1063 l 689 1063 l 597 1211 l 478 1063 l 390 1063 l 567 1269 z "},"Ỗ":{"ha":1051,"x_min":100,"x_max":975,"o":"m 525 -11 q 299 44 394 -11 q 151 202 203 99 q 100 447 100 306 q 156 734 100 611 q 313 924 211 857 q 549 990 414 990 q 776 935 681 990 q 924 777 872 881 q 975 532 975 674 q 920 245 975 368 q 763 56 865 122 q 525 -11 661 -11 m 526 67 q 719 122 638 67 q 843 283 800 178 q 886 532 886 388 q 799 815 886 717 q 549 913 711 913 q 356 857 438 913 q 232 696 275 801 q 189 446 189 590 q 276 165 189 263 q 526 67 364 67 m 703 1293 q 647 1302 674 1293 q 586 1329 621 1311 q 542 1350 560 1343 q 507 1357 524 1357 q 457 1337 476 1357 q 436 1289 438 1317 l 382 1289 q 419 1388 385 1351 q 508 1424 454 1424 q 564 1414 538 1424 q 625 1388 590 1404 q 669 1367 651 1374 q 704 1360 688 1360 q 754 1380 735 1360 q 775 1428 774 1400 l 829 1428 q 792 1329 826 1365 q 703 1293 757 1293 m 567 1269 l 631 1269 l 774 1063 l 689 1063 l 597 1211 l 478 1063 l 390 1063 l 567 1269 z "},"Ȍ":{"ha":1051,"x_min":100,"x_max":975,"o":"m 525 -11 q 299 44 394 -11 q 151 202 203 99 q 100 447 100 306 q 156 734 100 611 q 313 924 211 857 q 549 990 414 990 q 776 935 681 990 q 924 777 872 881 q 975 532 975 674 q 920 245 975 368 q 763 56 865 122 q 525 -11 661 -11 m 526 67 q 719 122 638 67 q 843 283 800 178 q 886 532 886 388 q 799 815 886 717 q 549 913 711 913 q 356 857 438 913 q 232 696 275 801 q 189 446 189 590 q 276 165 189 263 q 526 67 364 67 m 361 1271 l 444 1271 l 528 1063 l 479 1063 l 361 1271 m 519 1271 l 603 1271 l 685 1063 l 636 1063 l 519 1271 z "},"Ö":{"ha":1051,"x_min":100,"x_max":975,"o":"m 525 -11 q 299 44 394 -11 q 151 202 203 99 q 100 447 100 306 q 156 734 100 611 q 313 924 211 857 q 549 990 414 990 q 776 935 681 990 q 924 777 872 881 q 975 532 975 674 q 920 245 975 368 q 763 56 865 122 q 525 -11 661 -11 m 526 67 q 719 122 638 67 q 843 283 800 178 q 886 532 886 388 q 799 815 886 717 q 549 913 711 913 q 356 857 438 913 q 232 696 275 801 q 189 446 189 590 q 276 165 189 263 q 526 67 364 67 m 532 1218 l 524 1118 l 419 1118 l 428 1218 l 532 1218 m 763 1218 l 754 1118 l 650 1118 l 658 1218 l 763 1218 z "},"Ȫ":{"ha":1051,"x_min":100,"x_max":975,"o":"m 525 -11 q 299 44 394 -11 q 151 202 203 99 q 100 447 100 306 q 156 734 100 611 q 313 924 211 857 q 549 990 414 990 q 776 935 681 990 q 924 777 872 881 q 975 532 975 674 q 920 245 975 368 q 763 56 865 122 q 525 -11 661 -11 m 526 67 q 719 122 638 67 q 843 283 800 178 q 886 532 886 388 q 799 815 886 717 q 549 913 711 913 q 356 857 438 913 q 232 696 275 801 q 189 446 189 590 q 276 165 189 263 q 526 67 364 67 m 532 1218 l 524 1118 l 419 1118 l 428 1218 l 532 1218 m 763 1218 l 754 1118 l 650 1118 l 658 1218 l 763 1218 m 407 1426 l 817 1426 l 811 1354 l 400 1354 l 407 1426 z "},"Ȱ":{"ha":1051,"x_min":100,"x_max":975,"o":"m 525 -11 q 299 44 394 -11 q 151 202 203 99 q 100 447 100 306 q 156 734 100 611 q 313 924 211 857 q 549 990 414 990 q 776 935 681 990 q 924 777 872 881 q 975 532 975 674 q 920 245 975 368 q 763 56 865 122 q 525 -11 661 -11 m 526 67 q 719 122 638 67 q 843 283 800 178 q 886 532 886 388 q 799 815 886 717 q 549 913 711 913 q 356 857 438 913 q 232 696 275 801 q 189 446 189 590 q 276 165 189 263 q 526 67 364 67 m 650 1222 l 642 1115 l 531 1115 l 539 1222 l 650 1222 m 407 1426 l 817 1426 l 811 1354 l 400 1354 l 407 1426 z "},"Ọ":{"ha":1051,"x_min":100,"x_max":975,"o":"m 525 -11 q 299 44 394 -11 q 151 202 203 99 q 100 447 100 306 q 156 734 100 611 q 313 924 211 857 q 549 990 414 990 q 776 935 681 990 q 924 777 872 881 q 975 532 975 674 q 920 245 975 368 q 763 56 865 122 q 525 -11 661 -11 m 526 67 q 719 122 638 67 q 843 283 800 178 q 886 532 886 388 q 799 815 886 717 q 549 913 711 913 q 356 857 438 913 q 232 696 275 801 q 189 446 189 590 q 276 165 189 263 q 526 67 364 67 m 543 -140 l 533 -247 l 425 -247 l 433 -140 l 543 -140 z "},"Ò":{"ha":1051,"x_min":100,"x_max":975,"o":"m 525 -11 q 299 44 394 -11 q 151 202 203 99 q 100 447 100 306 q 156 734 100 611 q 313 924 211 857 q 549 990 414 990 q 776 935 681 990 q 924 777 872 881 q 975 532 975 674 q 920 245 975 368 q 763 56 865 122 q 525 -11 661 -11 m 526 67 q 719 122 638 67 q 843 283 800 178 q 886 532 886 388 q 799 815 886 717 q 549 913 711 913 q 356 857 438 913 q 232 696 275 801 q 189 446 189 590 q 276 165 189 263 q 526 67 364 67 m 392 1271 l 489 1271 l 614 1063 l 550 1063 l 392 1271 z "},"Ỏ":{"ha":1051,"x_min":100,"x_max":975,"o":"m 525 -11 q 299 44 394 -11 q 151 202 203 99 q 100 447 100 306 q 156 734 100 611 q 313 924 211 857 q 549 990 414 990 q 776 935 681 990 q 924 777 872 881 q 975 532 975 674 q 920 245 975 368 q 763 56 865 122 q 525 -11 661 -11 m 526 67 q 719 122 638 67 q 843 283 800 178 q 886 532 886 388 q 799 815 886 717 q 549 913 711 913 q 356 857 438 913 q 232 696 275 801 q 189 446 189 590 q 276 165 189 263 q 526 67 364 67 m 615 1063 l 550 1063 l 551 1085 q 569 1124 553 1108 q 614 1153 586 1139 q 644 1171 635 1163 q 654 1190 654 1179 q 639 1208 654 1201 q 597 1215 624 1215 q 510 1199 556 1215 l 494 1254 q 604 1278 546 1278 q 698 1256 664 1278 q 732 1196 732 1233 q 714 1149 732 1165 q 663 1117 696 1132 q 629 1097 640 1107 q 617 1075 618 1088 l 615 1063 z "},"Ơ":{"ha":1051,"x_min":100,"x_max":1026,"o":"m 1025 1121 q 806 918 1007 926 q 928 769 881 867 q 975 532 975 671 q 920 245 975 368 q 763 56 865 122 q 525 -11 661 -11 q 299 44 394 -11 q 151 202 203 99 q 100 447 100 306 q 156 735 100 613 q 315 924 211 857 q 563 990 419 990 q 658 985 594 990 q 775 979 731 979 q 902 1015 863 979 q 949 1135 942 1051 l 950 1154 l 1026 1154 l 1025 1121 m 886 532 q 799 815 886 717 q 549 913 711 913 q 356 857 438 913 q 232 696 275 801 q 189 446 189 590 q 276 165 189 263 q 526 67 364 67 q 719 122 638 67 q 843 283 800 178 q 886 532 886 388 z "},"Ớ":{"ha":1051,"x_min":100,"x_max":1026,"o":"m 1025 1121 q 806 918 1007 926 q 928 769 881 867 q 975 532 975 671 q 920 245 975 368 q 763 56 865 122 q 525 -11 661 -11 q 299 44 394 -11 q 151 202 203 99 q 100 447 100 306 q 156 735 100 613 q 315 924 211 857 q 563 990 419 990 q 658 985 594 990 q 775 979 731 979 q 902 1015 863 979 q 949 1135 942 1051 l 950 1154 l 1026 1154 l 1025 1121 m 886 532 q 799 815 886 717 q 549 913 711 913 q 356 857 438 913 q 232 696 275 801 q 189 446 189 590 q 276 165 189 263 q 526 67 364 67 q 719 122 638 67 q 843 283 800 178 q 886 532 886 388 m 550 1063 l 703 1271 l 813 1271 l 614 1063 l 550 1063 z "},"Ợ":{"ha":1051,"x_min":100,"x_max":1026,"o":"m 1025 1121 q 806 918 1007 926 q 928 769 881 867 q 975 532 975 671 q 920 245 975 368 q 763 56 865 122 q 525 -11 661 -11 q 299 44 394 -11 q 151 202 203 99 q 100 447 100 306 q 156 735 100 613 q 315 924 211 857 q 563 990 419 990 q 658 985 594 990 q 775 979 731 979 q 902 1015 863 979 q 949 1135 942 1051 l 950 1154 l 1026 1154 l 1025 1121 m 886 532 q 799 815 886 717 q 549 913 711 913 q 356 857 438 913 q 232 696 275 801 q 189 446 189 590 q 276 165 189 263 q 526 67 364 67 q 719 122 638 67 q 843 283 800 178 q 886 532 886 388 m 544 -140 l 535 -247 l 426 -247 l 435 -140 l 544 -140 z "},"Ờ":{"ha":1051,"x_min":100,"x_max":1026,"o":"m 1025 1121 q 806 918 1007 926 q 928 769 881 867 q 975 532 975 671 q 920 245 975 368 q 763 56 865 122 q 525 -11 661 -11 q 299 44 394 -11 q 151 202 203 99 q 100 447 100 306 q 156 735 100 613 q 315 924 211 857 q 563 990 419 990 q 658 985 594 990 q 775 979 731 979 q 902 1015 863 979 q 949 1135 942 1051 l 950 1154 l 1026 1154 l 1025 1121 m 886 532 q 799 815 886 717 q 549 913 711 913 q 356 857 438 913 q 232 696 275 801 q 189 446 189 590 q 276 165 189 263 q 526 67 364 67 q 719 122 638 67 q 843 283 800 178 q 886 532 886 388 m 392 1271 l 489 1271 l 614 1063 l 550 1063 l 392 1271 z "},"Ở":{"ha":1051,"x_min":100,"x_max":1026,"o":"m 1025 1121 q 806 918 1007 926 q 928 769 881 867 q 975 532 975 671 q 920 245 975 368 q 763 56 865 122 q 525 -11 661 -11 q 299 44 394 -11 q 151 202 203 99 q 100 447 100 306 q 156 735 100 613 q 315 924 211 857 q 563 990 419 990 q 658 985 594 990 q 775 979 731 979 q 902 1015 863 979 q 949 1135 942 1051 l 950 1154 l 1026 1154 l 1025 1121 m 886 532 q 799 815 886 717 q 549 913 711 913 q 356 857 438 913 q 232 696 275 801 q 189 446 189 590 q 276 165 189 263 q 526 67 364 67 q 719 122 638 67 q 843 283 800 178 q 886 532 886 388 m 615 1063 l 550 1063 l 551 1085 q 569 1124 553 1108 q 614 1153 586 1139 q 644 1171 635 1163 q 654 1190 654 1179 q 639 1208 654 1201 q 597 1215 624 1215 q 510 1199 556 1215 l 494 1254 q 604 1278 546 1278 q 698 1256 664 1278 q 732 1196 732 1233 q 714 1149 732 1165 q 663 1117 696 1132 q 629 1097 640 1107 q 617 1075 618 1088 l 615 1063 z "},"Ỡ":{"ha":1051,"x_min":100,"x_max":1026,"o":"m 1025 1121 q 806 918 1007 926 q 928 769 881 867 q 975 532 975 671 q 920 245 975 368 q 763 56 865 122 q 525 -11 661 -11 q 299 44 394 -11 q 151 202 203 99 q 100 447 100 306 q 156 735 100 613 q 315 924 211 857 q 563 990 419 990 q 658 985 594 990 q 775 979 731 979 q 902 1015 863 979 q 949 1135 942 1051 l 950 1154 l 1026 1154 l 1025 1121 m 886 532 q 799 815 886 717 q 549 913 711 913 q 356 857 438 913 q 232 696 275 801 q 189 446 189 590 q 276 165 189 263 q 526 67 364 67 q 719 122 638 67 q 843 283 800 178 q 886 532 886 388 m 367 1099 q 404 1207 369 1169 q 494 1244 439 1244 q 548 1233 522 1244 q 608 1199 574 1221 q 654 1172 636 1181 q 689 1163 672 1163 q 740 1184 721 1163 q 760 1240 758 1206 l 814 1240 q 776 1132 811 1169 q 686 1094 742 1094 q 633 1106 658 1094 q 574 1140 607 1118 q 527 1167 544 1158 q 493 1175 510 1175 q 442 1154 461 1175 q 421 1099 424 1133 l 367 1099 z "},"Ő":{"ha":1051,"x_min":100,"x_max":975,"o":"m 525 -11 q 299 44 394 -11 q 151 202 203 99 q 100 447 100 306 q 156 734 100 611 q 313 924 211 857 q 549 990 414 990 q 776 935 681 990 q 924 777 872 881 q 975 532 975 674 q 920 245 975 368 q 763 56 865 122 q 525 -11 661 -11 m 526 67 q 719 122 638 67 q 843 283 800 178 q 886 532 886 388 q 799 815 886 717 q 549 913 711 913 q 356 857 438 913 q 232 696 275 801 q 189 446 189 590 q 276 165 189 263 q 526 67 364 67 m 479 1063 l 592 1271 l 681 1271 l 528 1063 l 479 1063 m 636 1063 l 750 1271 l 839 1271 l 685 1063 l 636 1063 z "},"Ȏ":{"ha":1051,"x_min":100,"x_max":975,"o":"m 525 -11 q 299 44 394 -11 q 151 202 203 99 q 100 447 100 306 q 156 734 100 611 q 313 924 211 857 q 549 990 414 990 q 776 935 681 990 q 924 777 872 881 q 975 532 975 674 q 920 245 975 368 q 763 56 865 122 q 525 -11 661 -11 m 526 67 q 719 122 638 67 q 843 283 800 178 q 886 532 886 388 q 799 815 886 717 q 549 913 711 913 q 356 857 438 913 q 232 696 275 801 q 189 446 189 590 q 276 165 189 263 q 526 67 364 67 m 597 1256 q 726 1219 669 1256 q 807 1108 782 1183 l 742 1082 q 678 1165 713 1142 q 593 1188 643 1188 q 504 1165 543 1188 q 428 1082 465 1142 l 365 1108 q 597 1256 439 1256 z "},"Ō":{"ha":1051,"x_min":100,"x_max":975,"o":"m 525 -11 q 299 44 394 -11 q 151 202 203 99 q 100 447 100 306 q 156 734 100 611 q 313 924 211 857 q 549 990 414 990 q 776 935 681 990 q 924 777 872 881 q 975 532 975 674 q 920 245 975 368 q 763 56 865 122 q 525 -11 661 -11 m 526 67 q 719 122 638 67 q 843 283 800 178 q 886 532 886 388 q 799 815 886 717 q 549 913 711 913 q 356 857 438 913 q 232 696 275 801 q 189 446 189 590 q 276 165 189 263 q 526 67 364 67 m 389 1204 l 799 1204 l 793 1132 l 382 1132 l 389 1204 z "},"Ṓ":{"ha":1051,"x_min":100,"x_max":975,"o":"m 525 -11 q 299 44 394 -11 q 151 202 203 99 q 100 447 100 306 q 156 734 100 611 q 313 924 211 857 q 549 990 414 990 q 776 935 681 990 q 924 777 872 881 q 975 532 975 674 q 920 245 975 368 q 763 56 865 122 q 525 -11 661 -11 m 526 67 q 719 122 638 67 q 843 283 800 178 q 886 532 886 388 q 799 815 886 717 q 549 913 711 913 q 356 857 438 913 q 232 696 275 801 q 189 446 189 590 q 276 165 189 263 q 526 67 364 67 m 389 1204 l 799 1204 l 793 1132 l 382 1132 l 389 1204 m 568 1285 l 721 1493 l 831 1493 l 632 1285 l 568 1285 z "},"Ṑ":{"ha":1051,"x_min":100,"x_max":975,"o":"m 525 -11 q 299 44 394 -11 q 151 202 203 99 q 100 447 100 306 q 156 734 100 611 q 313 924 211 857 q 549 990 414 990 q 776 935 681 990 q 924 777 872 881 q 975 532 975 674 q 920 245 975 368 q 763 56 865 122 q 525 -11 661 -11 m 526 67 q 719 122 638 67 q 843 283 800 178 q 886 532 886 388 q 799 815 886 717 q 549 913 711 913 q 356 857 438 913 q 232 696 275 801 q 189 446 189 590 q 276 165 189 263 q 526 67 364 67 m 389 1204 l 799 1204 l 793 1132 l 382 1132 l 389 1204 m 410 1493 l 507 1493 l 632 1285 l 568 1285 l 410 1493 z "},"Ǫ":{"ha":1051,"x_min":100,"x_max":975,"o":"m 629 0 q 513 -118 513 -26 q 535 -181 513 -160 q 597 -203 557 -203 q 682 -176 638 -203 l 700 -235 q 649 -257 679 -249 q 588 -265 618 -265 q 477 -228 518 -265 q 436 -129 436 -190 q 490 -10 436 -53 q 283 52 371 -4 q 147 210 194 108 q 100 447 100 311 q 156 734 100 611 q 313 924 211 857 q 549 990 414 990 q 777 935 681 990 q 924 777 874 881 q 975 532 975 674 q 881 172 975 308 q 629 0 786 36 m 189 446 q 276 165 189 263 q 526 67 364 67 q 719 122 638 67 q 843 283 800 178 q 886 532 886 388 q 799 815 886 717 q 549 913 711 913 q 356 857 438 913 q 232 696 275 801 q 189 446 189 590 z "},"Ø":{"ha":1051,"x_min":100,"x_max":975,"o":"m 844 885 q 942 735 908 825 q 975 532 975 646 q 920 245 975 368 q 763 56 865 122 q 525 -11 661 -11 q 289 50 386 -11 l 218 -57 l 158 -18 l 232 93 q 134 242 168 151 q 100 447 100 332 q 156 734 100 611 q 313 924 211 857 q 549 990 414 990 q 788 928 692 990 l 860 1036 l 919 997 l 844 885 m 189 446 q 278 163 189 260 l 743 861 q 549 913 667 913 q 356 857 438 913 q 232 696 275 801 q 189 446 189 590 m 526 67 q 719 122 638 67 q 843 283 800 178 q 886 532 886 388 q 799 815 886 715 l 333 117 q 526 67 411 67 z "},"Ǿ":{"ha":1051,"x_min":100,"x_max":975,"o":"m 844 885 q 942 735 908 825 q 975 532 975 646 q 920 245 975 368 q 763 56 865 122 q 525 -11 661 -11 q 289 50 386 -11 l 218 -57 l 158 -18 l 232 93 q 134 242 168 151 q 100 447 100 332 q 156 734 100 611 q 313 924 211 857 q 549 990 414 990 q 788 928 692 990 l 860 1036 l 919 997 l 844 885 m 189 446 q 278 163 189 260 l 743 861 q 549 913 667 913 q 356 857 438 913 q 232 696 275 801 q 189 446 189 590 m 526 67 q 719 122 638 67 q 843 283 800 178 q 886 532 886 388 q 799 815 886 715 l 333 117 q 526 67 411 67 m 550 1063 l 703 1271 l 813 1271 l 614 1063 l 550 1063 z "},"Õ":{"ha":1051,"x_min":100,"x_max":975,"o":"m 525 -11 q 299 44 394 -11 q 151 202 203 99 q 100 447 100 306 q 156 734 100 611 q 313 924 211 857 q 549 990 414 990 q 776 935 681 990 q 924 777 872 881 q 975 532 975 674 q 920 245 975 368 q 763 56 865 122 q 525 -11 661 -11 m 526 67 q 719 122 638 67 q 843 283 800 178 q 886 532 886 388 q 799 815 886 717 q 549 913 711 913 q 356 857 438 913 q 232 696 275 801 q 189 446 189 590 q 276 165 189 263 q 526 67 364 67 m 367 1099 q 404 1207 369 1169 q 494 1244 439 1244 q 548 1233 522 1244 q 608 1199 574 1221 q 654 1172 636 1181 q 689 1163 672 1163 q 740 1184 721 1163 q 760 1240 758 1206 l 814 1240 q 776 1132 811 1169 q 686 1094 742 1094 q 633 1106 658 1094 q 574 1140 607 1118 q 527 1167 544 1158 q 493 1175 510 1175 q 442 1154 461 1175 q 421 1099 424 1133 l 367 1099 z "},"Ṍ":{"ha":1051,"x_min":100,"x_max":975,"o":"m 525 -11 q 299 44 394 -11 q 151 202 203 99 q 100 447 100 306 q 156 734 100 611 q 313 924 211 857 q 549 990 414 990 q 776 935 681 990 q 924 777 872 881 q 975 532 975 674 q 920 245 975 368 q 763 56 865 122 q 525 -11 661 -11 m 526 67 q 719 122 638 67 q 843 283 800 178 q 886 532 886 388 q 799 815 886 717 q 549 913 711 913 q 356 857 438 913 q 232 696 275 801 q 189 446 189 590 q 276 165 189 263 q 526 67 364 67 m 367 1099 q 404 1207 369 1169 q 494 1244 439 1244 q 548 1233 522 1244 q 608 1199 574 1221 q 654 1172 636 1181 q 689 1163 672 1163 q 740 1184 721 1163 q 760 1240 758 1206 l 814 1240 q 776 1132 811 1169 q 686 1094 742 1094 q 633 1106 658 1094 q 574 1140 607 1118 q 527 1167 544 1158 q 493 1175 510 1175 q 442 1154 461 1175 q 421 1099 424 1133 l 367 1099 m 568 1285 l 721 1493 l 831 1493 l 632 1285 l 568 1285 z "},"Ṏ":{"ha":1051,"x_min":100,"x_max":975,"o":"m 525 -11 q 299 44 394 -11 q 151 202 203 99 q 100 447 100 306 q 156 734 100 611 q 313 924 211 857 q 549 990 414 990 q 776 935 681 990 q 924 777 872 881 q 975 532 975 674 q 920 245 975 368 q 763 56 865 122 q 525 -11 661 -11 m 526 67 q 719 122 638 67 q 843 283 800 178 q 886 532 886 388 q 799 815 886 717 q 549 913 711 913 q 356 857 438 913 q 232 696 275 801 q 189 446 189 590 q 276 165 189 263 q 526 67 364 67 m 367 1099 q 404 1207 369 1169 q 494 1244 439 1244 q 548 1233 522 1244 q 608 1199 574 1221 q 654 1172 636 1181 q 689 1163 672 1163 q 740 1184 721 1163 q 760 1240 758 1206 l 814 1240 q 776 1132 811 1169 q 686 1094 742 1094 q 633 1106 658 1094 q 574 1140 607 1118 q 527 1167 544 1158 q 493 1175 510 1175 q 442 1154 461 1175 q 421 1099 424 1133 l 367 1099 m 550 1440 l 542 1340 l 438 1340 l 446 1440 l 550 1440 m 781 1440 l 772 1340 l 668 1340 l 676 1440 l 781 1440 z "},"Ȭ":{"ha":1051,"x_min":100,"x_max":975,"o":"m 525 -11 q 299 44 394 -11 q 151 202 203 99 q 100 447 100 306 q 156 734 100 611 q 313 924 211 857 q 549 990 414 990 q 776 935 681 990 q 924 777 872 881 q 975 532 975 674 q 920 245 975 368 q 763 56 865 122 q 525 -11 661 -11 m 526 67 q 719 122 638 67 q 843 283 800 178 q 886 532 886 388 q 799 815 886 717 q 549 913 711 913 q 356 857 438 913 q 232 696 275 801 q 189 446 189 590 q 276 165 189 263 q 526 67 364 67 m 367 1099 q 404 1207 369 1169 q 494 1244 439 1244 q 548 1233 522 1244 q 608 1199 574 1221 q 654 1172 636 1181 q 689 1163 672 1163 q 740 1184 721 1163 q 760 1240 758 1206 l 814 1240 q 776 1132 811 1169 q 686 1094 742 1094 q 633 1106 658 1094 q 574 1140 607 1118 q 527 1167 544 1158 q 493 1175 510 1175 q 442 1154 461 1175 q 421 1099 424 1133 l 367 1099 m 407 1426 l 817 1426 l 811 1354 l 400 1354 l 407 1426 z "},"Œ":{"ha":1453,"x_min":100,"x_max":1429,"o":"m 904 906 l 875 535 l 1367 535 l 1361 460 l 869 460 l 839 74 l 1360 74 l 1353 0 l 554 0 q 217 117 335 0 q 100 447 100 233 q 157 732 100 613 q 324 915 214 851 q 589 979 433 979 l 1429 979 l 1425 906 l 904 906 m 821 906 l 592 906 q 291 786 393 906 q 189 446 189 667 q 281 168 189 263 q 558 74 374 74 l 756 74 l 821 906 z "},"P":{"ha":886,"x_min":100,"x_max":849,"o":"m 539 979 q 769 908 689 979 q 849 714 849 838 q 757 488 849 564 q 504 413 665 413 l 218 413 l 186 0 l 100 0 l 176 979 l 539 979 m 503 486 q 763 711 763 486 q 706 856 763 806 q 536 906 650 906 l 256 906 l 224 486 l 503 486 z "},"Þ":{"ha":886,"x_min":100,"x_max":832,"o":"m 538 758 q 756 696 679 758 q 832 513 832 633 q 749 310 832 383 q 507 238 665 238 l 204 238 l 185 0 l 100 0 l 176 979 l 263 979 l 244 758 l 538 758 m 503 311 q 687 361 628 311 q 746 511 746 411 q 692 643 746 601 q 533 685 639 685 l 239 685 l 210 311 l 503 311 z "},"Q":{"ha":1051,"x_min":100,"x_max":975,"o":"m 975 532 q 894 192 975 331 q 660 10 813 54 q 706 -24 685 -1 q 746 -86 726 -47 l 824 -231 l 751 -271 l 657 -96 q 499 -10 611 -14 q 290 49 379 -6 q 150 206 200 104 q 100 447 100 307 q 156 734 100 611 q 313 924 211 857 q 549 990 414 990 q 776 935 681 990 q 924 777 872 881 q 975 532 975 674 m 526 67 q 719 122 638 67 q 843 283 800 178 q 886 532 886 388 q 799 815 886 717 q 549 913 711 913 q 356 857 438 913 q 232 696 275 801 q 189 446 189 590 q 276 165 189 263 q 526 67 364 67 z "},"R":{"ha":947,"x_min":100,"x_max":869,"o":"m 599 436 q 656 399 632 425 q 700 328 681 372 l 849 0 l 756 0 l 615 314 q 544 401 588 378 q 424 425 500 425 l 219 425 l 186 0 l 100 0 l 176 979 l 561 979 q 790 914 710 979 q 869 724 869 849 q 801 524 869 599 q 599 436 732 450 m 528 499 q 721 552 657 499 q 785 718 785 606 q 728 860 785 814 q 560 906 672 906 l 257 906 l 225 499 l 528 499 z "},"Ŕ":{"ha":947,"x_min":100,"x_max":869,"o":"m 599 436 q 656 399 632 425 q 700 328 681 372 l 849 0 l 756 0 l 615 314 q 544 401 588 378 q 424 425 500 425 l 219 425 l 186 0 l 100 0 l 176 979 l 561 979 q 790 914 710 979 q 869 724 869 849 q 801 524 869 599 q 599 436 732 450 m 528 499 q 721 552 657 499 q 785 718 785 606 q 728 860 785 814 q 560 906 672 906 l 257 906 l 225 499 l 528 499 m 493 1063 l 646 1271 l 756 1271 l 557 1063 l 493 1063 z "},"Ř":{"ha":947,"x_min":100,"x_max":869,"o":"m 599 436 q 656 399 632 425 q 700 328 681 372 l 849 0 l 756 0 l 615 314 q 544 401 588 378 q 424 425 500 425 l 219 425 l 186 0 l 100 0 l 176 979 l 561 979 q 790 914 710 979 q 869 724 869 849 q 801 524 869 599 q 599 436 732 450 m 528 499 q 721 552 657 499 q 785 718 785 606 q 728 860 785 814 q 560 906 672 906 l 257 906 l 225 499 l 528 499 m 733 1271 l 557 1063 l 493 1063 l 350 1271 l 435 1271 l 529 1121 l 646 1271 l 733 1271 z "},"Ŗ":{"ha":947,"x_min":100,"x_max":869,"o":"m 599 436 q 656 399 632 425 q 700 328 681 372 l 849 0 l 756 0 l 615 314 q 544 401 588 378 q 424 425 500 425 l 219 425 l 186 0 l 100 0 l 176 979 l 561 979 q 790 914 710 979 q 869 724 869 849 q 801 524 869 599 q 599 436 732 450 m 528 499 q 721 552 657 499 q 785 718 785 606 q 728 860 785 814 q 560 906 672 906 l 257 906 l 225 499 l 528 499 m 492 -103 l 486 -181 q 463 -276 481 -235 q 404 -354 444 -317 l 364 -321 q 407 -264 394 -290 q 422 -204 419 -237 l 368 -204 l 375 -103 l 492 -103 z "},"Ȑ":{"ha":947,"x_min":100,"x_max":869,"o":"m 599 436 q 656 399 632 425 q 700 328 681 372 l 849 0 l 756 0 l 615 314 q 544 401 588 378 q 424 425 500 425 l 219 425 l 186 0 l 100 0 l 176 979 l 561 979 q 790 914 710 979 q 869 724 869 849 q 801 524 869 599 q 599 436 732 450 m 528 499 q 721 552 657 499 q 785 718 785 606 q 728 860 785 814 q 560 906 672 906 l 257 906 l 225 499 l 528 499 m 304 1271 l 388 1271 l 471 1063 l 422 1063 l 304 1271 m 463 1271 l 546 1271 l 628 1063 l 579 1063 l 463 1271 z "},"Ṛ":{"ha":947,"x_min":100,"x_max":869,"o":"m 599 436 q 656 399 632 425 q 700 328 681 372 l 849 0 l 756 0 l 615 314 q 544 401 588 378 q 424 425 500 425 l 219 425 l 186 0 l 100 0 l 176 979 l 561 979 q 790 914 710 979 q 869 724 869 849 q 801 524 869 599 q 599 436 732 450 m 528 499 q 721 552 657 499 q 785 718 785 606 q 728 860 785 814 q 560 906 672 906 l 257 906 l 225 499 l 528 499 m 486 -140 l 476 -247 l 368 -247 l 376 -140 l 486 -140 z "},"Ȓ":{"ha":947,"x_min":100,"x_max":869,"o":"m 599 436 q 656 399 632 425 q 700 328 681 372 l 849 0 l 756 0 l 615 314 q 544 401 588 378 q 424 425 500 425 l 219 425 l 186 0 l 100 0 l 176 979 l 561 979 q 790 914 710 979 q 869 724 869 849 q 801 524 869 599 q 599 436 732 450 m 528 499 q 721 552 657 499 q 785 718 785 606 q 728 860 785 814 q 560 906 672 906 l 257 906 l 225 499 l 528 499 m 540 1256 q 669 1219 613 1256 q 750 1108 725 1183 l 685 1082 q 621 1165 656 1142 q 536 1188 586 1188 q 447 1165 486 1188 q 371 1082 408 1142 l 308 1108 q 540 1256 382 1256 z "},"Ṟ":{"ha":947,"x_min":100,"x_max":869,"o":"m 599 436 q 656 399 632 425 q 700 328 681 372 l 849 0 l 756 0 l 615 314 q 544 401 588 378 q 424 425 500 425 l 219 425 l 186 0 l 100 0 l 176 979 l 561 979 q 790 914 710 979 q 869 724 869 849 q 801 524 869 599 q 599 436 732 450 m 528 499 q 721 552 657 499 q 785 718 785 606 q 728 860 785 814 q 560 906 672 906 l 257 906 l 225 499 l 528 499 m 224 -158 l 635 -158 l 629 -229 l 218 -229 l 224 -158 z "},"S":{"ha":843,"x_min":51,"x_max":808,"o":"m 419 -11 q 215 20 304 -11 q 51 117 126 51 l 92 185 q 244 92 167 121 q 419 64 322 64 q 617 114 549 64 q 685 253 685 164 q 652 340 685 306 q 569 394 619 375 q 436 438 519 414 q 268 494 332 467 q 160 575 204 521 q 115 718 115 629 q 158 862 115 800 q 281 957 201 924 q 468 990 361 990 q 657 957 569 990 q 808 863 744 924 l 767 794 q 468 915 633 915 q 271 864 339 915 q 203 721 203 813 q 238 622 203 661 q 326 563 274 583 q 467 517 379 542 q 628 462 568 488 q 731 387 689 436 q 772 257 772 338 q 677 61 772 133 q 419 -11 582 -11 z "},"Ś":{"ha":843,"x_min":51,"x_max":808,"o":"m 419 -11 q 215 20 304 -11 q 51 117 126 51 l 92 185 q 244 92 167 121 q 419 64 322 64 q 617 114 549 64 q 685 253 685 164 q 652 340 685 306 q 569 394 619 375 q 436 438 519 414 q 268 494 332 467 q 160 575 204 521 q 115 718 115 629 q 158 862 115 800 q 281 957 201 924 q 468 990 361 990 q 657 957 569 990 q 808 863 744 924 l 767 794 q 468 915 633 915 q 271 864 339 915 q 203 721 203 813 q 238 622 203 661 q 326 563 274 583 q 467 517 379 542 q 628 462 568 488 q 731 387 689 436 q 772 257 772 338 q 677 61 772 133 q 419 -11 582 -11 m 447 1063 l 600 1271 l 710 1271 l 511 1063 l 447 1063 z "},"Ṥ":{"ha":843,"x_min":51,"x_max":808,"o":"m 419 -11 q 215 20 304 -11 q 51 117 126 51 l 92 185 q 244 92 167 121 q 419 64 322 64 q 617 114 549 64 q 685 253 685 164 q 652 340 685 306 q 569 394 619 375 q 436 438 519 414 q 268 494 332 467 q 160 575 204 521 q 115 718 115 629 q 158 862 115 800 q 281 957 201 924 q 468 990 361 990 q 657 957 569 990 q 808 863 744 924 l 767 794 q 468 915 633 915 q 271 864 339 915 q 203 721 203 813 q 238 622 203 661 q 326 563 274 583 q 467 517 379 542 q 628 462 568 488 q 731 387 689 436 q 772 257 772 338 q 677 61 772 133 q 419 -11 582 -11 m 450 1063 l 603 1271 l 713 1271 l 514 1063 l 450 1063 m 394 1272 l 386 1165 l 275 1165 l 283 1272 l 394 1272 z "},"Š":{"ha":843,"x_min":51,"x_max":808,"o":"m 419 -11 q 215 20 304 -11 q 51 117 126 51 l 92 185 q 244 92 167 121 q 419 64 322 64 q 617 114 549 64 q 685 253 685 164 q 652 340 685 306 q 569 394 619 375 q 436 438 519 414 q 268 494 332 467 q 160 575 204 521 q 115 718 115 629 q 158 862 115 800 q 281 957 201 924 q 468 990 361 990 q 657 957 569 990 q 808 863 744 924 l 767 794 q 468 915 633 915 q 271 864 339 915 q 203 721 203 813 q 238 622 203 661 q 326 563 274 583 q 467 517 379 542 q 628 462 568 488 q 731 387 689 436 q 772 257 772 338 q 677 61 772 133 q 419 -11 582 -11 m 688 1271 l 511 1063 l 447 1063 l 304 1271 l 389 1271 l 483 1121 l 600 1271 l 688 1271 z "},"Ṧ":{"ha":843,"x_min":51,"x_max":808,"o":"m 419 -11 q 215 20 304 -11 q 51 117 126 51 l 92 185 q 244 92 167 121 q 419 64 322 64 q 617 114 549 64 q 685 253 685 164 q 652 340 685 306 q 569 394 619 375 q 436 438 519 414 q 268 494 332 467 q 160 575 204 521 q 115 718 115 629 q 158 862 115 800 q 281 957 201 924 q 468 990 361 990 q 657 957 569 990 q 808 863 744 924 l 767 794 q 468 915 633 915 q 271 864 339 915 q 203 721 203 813 q 238 622 203 661 q 326 563 274 583 q 467 517 379 542 q 628 462 568 488 q 731 387 689 436 q 772 257 772 338 q 677 61 772 133 q 419 -11 582 -11 m 688 1271 l 511 1063 l 447 1063 l 304 1271 l 389 1271 l 483 1121 l 600 1271 l 688 1271 m 565 1444 l 557 1338 l 446 1338 l 454 1444 l 565 1444 z "},"Ş":{"ha":843,"x_min":51,"x_max":808,"o":"m 203 721 q 238 622 203 661 q 326 563 274 583 q 467 517 379 542 q 628 462 568 488 q 731 387 689 436 q 772 257 772 338 q 677 61 772 133 q 421 -11 582 -11 l 413 -60 q 443 -57 432 -57 q 517 -81 489 -57 q 544 -150 544 -106 q 503 -234 544 -203 q 388 -265 463 -265 q 325 -259 358 -265 q 267 -239 292 -253 l 286 -186 q 389 -206 339 -206 q 451 -192 429 -206 q 474 -153 474 -179 q 461 -123 474 -133 q 425 -112 449 -112 q 360 -126 399 -112 l 335 -106 l 353 -8 q 189 29 263 -1 q 51 117 115 60 l 92 185 q 244 92 167 121 q 419 64 322 64 q 617 114 549 64 q 685 253 685 164 q 652 340 685 306 q 569 394 619 375 q 436 438 519 414 q 268 494 332 467 q 160 575 204 521 q 115 718 115 629 q 158 862 115 800 q 281 957 201 924 q 468 990 361 990 q 657 957 569 990 q 808 863 744 924 l 767 794 q 468 915 633 915 q 271 864 339 915 q 203 721 203 813 z "},"Ŝ":{"ha":843,"x_min":51,"x_max":808,"o":"m 419 -11 q 215 20 304 -11 q 51 117 126 51 l 92 185 q 244 92 167 121 q 419 64 322 64 q 617 114 549 64 q 685 253 685 164 q 652 340 685 306 q 569 394 619 375 q 436 438 519 414 q 268 494 332 467 q 160 575 204 521 q 115 718 115 629 q 158 862 115 800 q 281 957 201 924 q 468 990 361 990 q 657 957 569 990 q 808 863 744 924 l 767 794 q 468 915 633 915 q 271 864 339 915 q 203 721 203 813 q 238 622 203 661 q 326 563 274 583 q 467 517 379 542 q 628 462 568 488 q 731 387 689 436 q 772 257 772 338 q 677 61 772 133 q 419 -11 582 -11 m 288 1063 l 464 1271 l 528 1271 l 671 1063 l 586 1063 l 494 1213 l 375 1063 l 288 1063 z "},"Ș":{"ha":843,"x_min":51,"x_max":808,"o":"m 419 -11 q 215 20 304 -11 q 51 117 126 51 l 92 185 q 244 92 167 121 q 419 64 322 64 q 617 114 549 64 q 685 253 685 164 q 652 340 685 306 q 569 394 619 375 q 436 438 519 414 q 268 494 332 467 q 160 575 204 521 q 115 718 115 629 q 158 862 115 800 q 281 957 201 924 q 468 990 361 990 q 657 957 569 990 q 808 863 744 924 l 767 794 q 468 915 633 915 q 271 864 339 915 q 203 721 203 813 q 238 622 203 661 q 326 563 274 583 q 467 517 379 542 q 628 462 568 488 q 731 387 689 436 q 772 257 772 338 q 677 61 772 133 q 419 -11 582 -11 m 451 -103 l 446 -181 q 422 -276 440 -235 q 364 -354 404 -317 l 324 -321 q 367 -264 354 -290 q 382 -204 379 -237 l 328 -204 l 335 -103 l 451 -103 z "},"Ṡ":{"ha":843,"x_min":51,"x_max":808,"o":"m 419 -11 q 215 20 304 -11 q 51 117 126 51 l 92 185 q 244 92 167 121 q 419 64 322 64 q 617 114 549 64 q 685 253 685 164 q 652 340 685 306 q 569 394 619 375 q 436 438 519 414 q 268 494 332 467 q 160 575 204 521 q 115 718 115 629 q 158 862 115 800 q 281 957 201 924 q 468 990 361 990 q 657 957 569 990 q 808 863 744 924 l 767 794 q 468 915 633 915 q 271 864 339 915 q 203 721 203 813 q 238 622 203 661 q 326 563 274 583 q 467 517 379 542 q 628 462 568 488 q 731 387 689 436 q 772 257 772 338 q 677 61 772 133 q 419 -11 582 -11 m 547 1222 l 539 1115 l 428 1115 l 436 1222 l 547 1222 z "},"Ṣ":{"ha":843,"x_min":51,"x_max":808,"o":"m 419 -11 q 215 20 304 -11 q 51 117 126 51 l 92 185 q 244 92 167 121 q 419 64 322 64 q 617 114 549 64 q 685 253 685 164 q 652 340 685 306 q 569 394 619 375 q 436 438 519 414 q 268 494 332 467 q 160 575 204 521 q 115 718 115 629 q 158 862 115 800 q 281 957 201 924 q 468 990 361 990 q 657 957 569 990 q 808 863 744 924 l 767 794 q 468 915 633 915 q 271 864 339 915 q 203 721 203 813 q 238 622 203 661 q 326 563 274 583 q 467 517 379 542 q 628 462 568 488 q 731 387 689 436 q 772 257 772 338 q 677 61 772 133 q 419 -11 582 -11 m 446 -140 l 436 -247 l 328 -247 l 336 -140 l 446 -140 z "},"Ṩ":{"ha":843,"x_min":51,"x_max":808,"o":"m 419 -11 q 215 20 304 -11 q 51 117 126 51 l 92 185 q 244 92 167 121 q 419 64 322 64 q 617 114 549 64 q 685 253 685 164 q 652 340 685 306 q 569 394 619 375 q 436 438 519 414 q 268 494 332 467 q 160 575 204 521 q 115 718 115 629 q 158 862 115 800 q 281 957 201 924 q 468 990 361 990 q 657 957 569 990 q 808 863 744 924 l 767 794 q 468 915 633 915 q 271 864 339 915 q 203 721 203 813 q 238 622 203 661 q 326 563 274 583 q 467 517 379 542 q 628 462 568 488 q 731 387 689 436 q 772 257 772 338 q 677 61 772 133 q 419 -11 582 -11 m 446 -140 l 436 -247 l 328 -247 l 336 -140 l 446 -140 m 547 1222 l 539 1115 l 428 1115 l 436 1222 l 547 1222 z "},"ẞ":{"ha":947,"x_min":99,"x_max":853,"o":"m 665 510 q 805 433 757 490 q 853 286 853 375 q 813 131 853 199 q 702 27 774 64 q 538 -10 631 -10 q 401 14 465 -10 q 285 81 336 38 l 324 151 q 428 88 378 108 q 531 67 478 67 q 705 125 642 67 q 768 288 768 183 q 709 416 768 372 q 535 460 650 460 l 349 460 l 354 535 l 497 535 q 676 590 613 535 q 739 744 739 644 q 681 867 739 822 q 525 913 622 913 q 314 845 382 913 q 235 632 246 778 l 185 0 l 99 0 l 150 646 q 526 989 176 989 q 744 924 664 989 q 825 749 825 860 q 783 599 825 661 q 665 510 742 538 z "},"Ə":{"ha":1021,"x_min":99,"x_max":944,"o":"m 531 990 q 750 935 657 990 q 894 777 843 881 q 944 532 944 674 q 889 245 944 368 q 730 56 833 122 q 486 -11 626 -11 q 274 43 361 -11 q 143 194 188 97 q 99 418 99 290 q 101 488 99 464 l 106 535 l 856 535 q 767 816 854 718 q 515 914 679 914 q 204 794 333 914 l 172 863 q 531 990 311 990 m 490 65 q 742 169 647 65 q 853 458 836 272 l 188 458 l 186 419 q 263 159 186 253 q 490 65 340 65 z "},"T":{"ha":819,"x_min":63,"x_max":854,"o":"m 413 904 l 63 904 l 68 979 l 854 979 l 849 904 l 497 904 l 426 0 l 342 0 l 413 904 z "},"Ŧ":{"ha":819,"x_min":63,"x_max":854,"o":"m 497 904 l 468 532 l 668 532 l 663 461 l 463 461 l 426 0 l 342 0 l 378 461 l 176 461 l 182 532 l 383 532 l 413 904 l 63 904 l 68 979 l 854 979 l 849 904 l 497 904 z "},"Ť":{"ha":819,"x_min":63,"x_max":854,"o":"m 413 904 l 63 904 l 68 979 l 854 979 l 849 904 l 497 904 l 426 0 l 342 0 l 413 904 m 675 1271 l 499 1063 l 435 1063 l 292 1271 l 376 1271 l 471 1121 l 588 1271 l 675 1271 z "},"Ţ":{"ha":819,"x_min":63,"x_max":854,"o":"m 406 0 l 394 -60 q 425 -57 414 -57 q 499 -81 471 -57 q 526 -150 526 -106 q 485 -234 526 -203 q 369 -265 444 -265 q 307 -259 340 -265 q 249 -239 274 -253 l 268 -186 q 371 -206 321 -206 q 433 -192 411 -206 q 456 -153 456 -179 q 443 -123 456 -133 q 407 -112 431 -112 q 342 -126 381 -112 l 317 -106 l 342 28 l 344 28 l 413 904 l 63 904 l 68 979 l 854 979 l 849 904 l 497 904 l 426 0 l 406 0 z "},"Ț":{"ha":819,"x_min":63,"x_max":854,"o":"m 413 904 l 63 904 l 68 979 l 854 979 l 849 904 l 497 904 l 426 0 l 342 0 l 413 904 m 433 -103 l 428 -181 q 404 -276 422 -235 q 346 -354 386 -317 l 306 -321 q 349 -264 336 -290 q 364 -204 361 -237 l 310 -204 l 317 -103 l 433 -103 z "},"Ṭ":{"ha":819,"x_min":63,"x_max":854,"o":"m 413 904 l 63 904 l 68 979 l 854 979 l 849 904 l 497 904 l 426 0 l 342 0 l 413 904 m 428 -140 l 418 -247 l 310 -247 l 318 -140 l 428 -140 z "},"Ṯ":{"ha":819,"x_min":63,"x_max":854,"o":"m 413 904 l 63 904 l 68 979 l 854 979 l 849 904 l 497 904 l 426 0 l 342 0 l 413 904 m 165 -158 l 576 -158 l 571 -229 l 160 -229 l 165 -158 z "},"U":{"ha":1000,"x_min":121,"x_max":929,"o":"m 479 -11 q 212 76 303 -11 q 121 325 121 163 q 124 378 121 342 l 169 979 l 256 979 l 208 382 q 207 335 207 365 q 479 65 207 65 q 707 140 628 65 q 797 367 786 214 l 844 979 l 929 979 l 882 376 q 765 85 867 182 q 479 -11 664 -11 z "},"Ú":{"ha":1000,"x_min":121,"x_max":929,"o":"m 479 -11 q 212 76 303 -11 q 121 325 121 163 q 124 378 121 342 l 169 979 l 256 979 l 208 382 q 207 335 207 365 q 479 65 207 65 q 707 140 628 65 q 797 367 786 214 l 844 979 l 929 979 l 882 376 q 765 85 867 182 q 479 -11 664 -11 m 525 1063 l 678 1271 l 788 1271 l 589 1063 l 525 1063 z "},"Ŭ":{"ha":1000,"x_min":121,"x_max":929,"o":"m 479 -11 q 212 76 303 -11 q 121 325 121 163 q 124 378 121 342 l 169 979 l 256 979 l 208 382 q 207 335 207 365 q 479 65 207 65 q 707 140 628 65 q 797 367 786 214 l 844 979 l 929 979 l 882 376 q 765 85 867 182 q 479 -11 664 -11 m 558 1081 q 430 1117 486 1081 q 349 1226 374 1153 l 414 1254 q 478 1172 443 1194 q 563 1149 513 1149 q 651 1172 613 1149 q 728 1254 690 1194 l 790 1226 q 558 1081 718 1081 z "},"Û":{"ha":1000,"x_min":121,"x_max":929,"o":"m 479 -11 q 212 76 303 -11 q 121 325 121 163 q 124 378 121 342 l 169 979 l 256 979 l 208 382 q 207 335 207 365 q 479 65 207 65 q 707 140 628 65 q 797 367 786 214 l 844 979 l 929 979 l 882 376 q 765 85 867 182 q 479 -11 664 -11 m 365 1063 l 542 1271 l 606 1271 l 749 1063 l 664 1063 l 572 1213 l 453 1063 l 365 1063 z "},"Ȕ":{"ha":1000,"x_min":121,"x_max":929,"o":"m 479 -11 q 212 76 303 -11 q 121 325 121 163 q 124 378 121 342 l 169 979 l 256 979 l 208 382 q 207 335 207 365 q 479 65 207 65 q 707 140 628 65 q 797 367 786 214 l 844 979 l 929 979 l 882 376 q 765 85 867 182 q 479 -11 664 -11 m 336 1271 l 419 1271 l 503 1063 l 454 1063 l 336 1271 m 494 1271 l 578 1271 l 660 1063 l 611 1063 l 494 1271 z "},"Ü":{"ha":1000,"x_min":121,"x_max":929,"o":"m 479 -11 q 212 76 303 -11 q 121 325 121 163 q 124 378 121 342 l 169 979 l 256 979 l 208 382 q 207 335 207 365 q 479 65 207 65 q 707 140 628 65 q 797 367 786 214 l 844 979 l 929 979 l 882 376 q 765 85 867 182 q 479 -11 664 -11 m 507 1218 l 499 1118 l 394 1118 l 403 1218 l 507 1218 m 738 1218 l 729 1118 l 625 1118 l 633 1218 l 738 1218 z "},"Ụ":{"ha":1000,"x_min":121,"x_max":929,"o":"m 479 -11 q 212 76 303 -11 q 121 325 121 163 q 124 378 121 342 l 169 979 l 256 979 l 208 382 q 207 335 207 365 q 479 65 207 65 q 707 140 628 65 q 797 367 786 214 l 844 979 l 929 979 l 882 376 q 765 85 867 182 q 479 -11 664 -11 m 518 -140 l 508 -247 l 400 -247 l 408 -140 l 518 -140 z "},"Ù":{"ha":1000,"x_min":121,"x_max":929,"o":"m 479 -11 q 212 76 303 -11 q 121 325 121 163 q 124 378 121 342 l 169 979 l 256 979 l 208 382 q 207 335 207 365 q 479 65 207 65 q 707 140 628 65 q 797 367 786 214 l 844 979 l 929 979 l 882 376 q 765 85 867 182 q 479 -11 664 -11 m 367 1271 l 464 1271 l 589 1063 l 525 1063 l 367 1271 z "},"Ủ":{"ha":1000,"x_min":121,"x_max":929,"o":"m 479 -11 q 212 76 303 -11 q 121 325 121 163 q 124 378 121 342 l 169 979 l 256 979 l 208 382 q 207 335 207 365 q 479 65 207 65 q 707 140 628 65 q 797 367 786 214 l 844 979 l 929 979 l 882 376 q 765 85 867 182 q 479 -11 664 -11 m 590 1063 l 525 1063 l 526 1085 q 544 1124 528 1108 q 589 1153 561 1139 q 619 1171 610 1163 q 629 1190 629 1179 q 614 1208 629 1201 q 572 1215 599 1215 q 485 1199 531 1215 l 469 1254 q 579 1278 521 1278 q 673 1256 639 1278 q 707 1196 707 1233 q 689 1149 707 1165 q 638 1117 671 1132 q 604 1097 615 1107 q 592 1075 593 1088 l 590 1063 z "},"Ư":{"ha":1000,"x_min":121,"x_max":1108,"o":"m 1108 1154 l 1106 1121 q 1053 986 1100 1038 q 925 922 1006 935 l 882 376 q 765 85 867 182 q 479 -11 664 -11 q 212 76 303 -11 q 121 325 121 163 q 124 378 121 342 l 169 979 l 256 979 l 208 382 q 207 335 207 365 q 479 65 207 65 q 707 140 628 65 q 797 367 786 214 l 844 979 l 869 979 q 986 1017 949 981 q 1029 1135 1024 1053 l 1031 1154 l 1108 1154 z "},"Ứ":{"ha":1000,"x_min":121,"x_max":1108,"o":"m 1108 1154 l 1106 1121 q 1053 986 1100 1038 q 925 922 1006 935 l 882 376 q 765 85 867 182 q 479 -11 664 -11 q 212 76 303 -11 q 121 325 121 163 q 124 378 121 342 l 169 979 l 256 979 l 208 382 q 207 335 207 365 q 479 65 207 65 q 707 140 628 65 q 797 367 786 214 l 844 979 l 869 979 q 986 1017 949 981 q 1029 1135 1024 1053 l 1031 1154 l 1108 1154 m 525 1063 l 678 1271 l 788 1271 l 589 1063 l 525 1063 z "},"Ự":{"ha":1000,"x_min":121,"x_max":1108,"o":"m 1108 1154 l 1106 1121 q 1053 986 1100 1038 q 925 922 1006 935 l 882 376 q 765 85 867 182 q 479 -11 664 -11 q 212 76 303 -11 q 121 325 121 163 q 124 378 121 342 l 169 979 l 256 979 l 208 382 q 207 335 207 365 q 479 65 207 65 q 707 140 628 65 q 797 367 786 214 l 844 979 l 869 979 q 986 1017 949 981 q 1029 1135 1024 1053 l 1031 1154 l 1108 1154 m 518 -140 l 508 -247 l 400 -247 l 408 -140 l 518 -140 z "},"Ừ":{"ha":1000,"x_min":121,"x_max":1108,"o":"m 1108 1154 l 1106 1121 q 1053 986 1100 1038 q 925 922 1006 935 l 882 376 q 765 85 867 182 q 479 -11 664 -11 q 212 76 303 -11 q 121 325 121 163 q 124 378 121 342 l 169 979 l 256 979 l 208 382 q 207 335 207 365 q 479 65 207 65 q 707 140 628 65 q 797 367 786 214 l 844 979 l 869 979 q 986 1017 949 981 q 1029 1135 1024 1053 l 1031 1154 l 1108 1154 m 367 1271 l 464 1271 l 589 1063 l 525 1063 l 367 1271 z "},"Ử":{"ha":1000,"x_min":121,"x_max":1108,"o":"m 1108 1154 l 1106 1121 q 1053 986 1100 1038 q 925 922 1006 935 l 882 376 q 765 85 867 182 q 479 -11 664 -11 q 212 76 303 -11 q 121 325 121 163 q 124 378 121 342 l 169 979 l 256 979 l 208 382 q 207 335 207 365 q 479 65 207 65 q 707 140 628 65 q 797 367 786 214 l 844 979 l 869 979 q 986 1017 949 981 q 1029 1135 1024 1053 l 1031 1154 l 1108 1154 m 590 1063 l 525 1063 l 526 1085 q 544 1124 528 1108 q 589 1153 561 1139 q 619 1171 610 1163 q 629 1190 629 1179 q 614 1208 629 1201 q 572 1215 599 1215 q 485 1199 531 1215 l 469 1254 q 579 1278 521 1278 q 673 1256 639 1278 q 707 1196 707 1233 q 689 1149 707 1165 q 638 1117 671 1132 q 604 1097 615 1107 q 592 1075 593 1088 l 590 1063 z "},"Ữ":{"ha":1000,"x_min":121,"x_max":1108,"o":"m 1108 1154 l 1106 1121 q 1053 986 1100 1038 q 925 922 1006 935 l 882 376 q 765 85 867 182 q 479 -11 664 -11 q 212 76 303 -11 q 121 325 121 163 q 124 378 121 342 l 169 979 l 256 979 l 208 382 q 207 335 207 365 q 479 65 207 65 q 707 140 628 65 q 797 367 786 214 l 844 979 l 869 979 q 986 1017 949 981 q 1029 1135 1024 1053 l 1031 1154 l 1108 1154 m 342 1099 q 379 1207 344 1169 q 469 1244 414 1244 q 523 1233 497 1244 q 583 1199 549 1221 q 629 1172 611 1181 q 664 1163 647 1163 q 715 1184 696 1163 q 735 1240 733 1206 l 789 1240 q 751 1132 786 1169 q 661 1094 717 1094 q 608 1106 633 1094 q 549 1140 582 1118 q 502 1167 519 1158 q 468 1175 485 1175 q 417 1154 436 1175 q 396 1099 399 1133 l 342 1099 z "},"Ű":{"ha":1000,"x_min":121,"x_max":929,"o":"m 479 -11 q 212 76 303 -11 q 121 325 121 163 q 124 378 121 342 l 169 979 l 256 979 l 208 382 q 207 335 207 365 q 479 65 207 65 q 707 140 628 65 q 797 367 786 214 l 844 979 l 929 979 l 882 376 q 765 85 867 182 q 479 -11 664 -11 m 454 1063 l 567 1271 l 656 1271 l 503 1063 l 454 1063 m 611 1063 l 725 1271 l 814 1271 l 660 1063 l 611 1063 z "},"Ȗ":{"ha":1000,"x_min":121,"x_max":929,"o":"m 479 -11 q 212 76 303 -11 q 121 325 121 163 q 124 378 121 342 l 169 979 l 256 979 l 208 382 q 207 335 207 365 q 479 65 207 65 q 707 140 628 65 q 797 367 786 214 l 844 979 l 929 979 l 882 376 q 765 85 867 182 q 479 -11 664 -11 m 572 1256 q 701 1219 644 1256 q 782 1108 757 1183 l 717 1082 q 653 1165 688 1142 q 568 1188 618 1188 q 479 1165 518 1188 q 403 1082 440 1142 l 340 1108 q 572 1256 414 1256 z "},"Ū":{"ha":1000,"x_min":121,"x_max":929,"o":"m 479 -11 q 212 76 303 -11 q 121 325 121 163 q 124 378 121 342 l 169 979 l 256 979 l 208 382 q 207 335 207 365 q 479 65 207 65 q 707 140 628 65 q 797 367 786 214 l 844 979 l 929 979 l 882 376 q 765 85 867 182 q 479 -11 664 -11 m 364 1204 l 774 1204 l 768 1132 l 357 1132 l 364 1204 z "},"Ṻ":{"ha":1000,"x_min":121,"x_max":929,"o":"m 479 -11 q 212 76 303 -11 q 121 325 121 163 q 124 378 121 342 l 169 979 l 256 979 l 208 382 q 207 335 207 365 q 479 65 207 65 q 707 140 628 65 q 797 367 786 214 l 844 979 l 929 979 l 882 376 q 765 85 867 182 q 479 -11 664 -11 m 364 1204 l 774 1204 l 768 1132 l 357 1132 l 364 1204 m 525 1440 l 517 1340 l 413 1340 l 421 1440 l 525 1440 m 756 1440 l 747 1340 l 643 1340 l 651 1440 l 756 1440 z "},"Ų":{"ha":1000,"x_min":121,"x_max":929,"o":"m 929 979 l 882 376 q 805 132 871 225 q 622 7 739 39 q 527 -42 558 -12 q 496 -118 496 -71 q 518 -181 496 -160 q 581 -203 540 -203 q 665 -176 621 -203 l 683 -235 q 632 -257 663 -249 q 571 -265 601 -265 q 461 -228 501 -265 q 421 -132 421 -192 q 481 -11 421 -54 l 472 -11 q 210 76 300 -11 q 121 325 121 163 q 124 378 121 342 l 169 979 l 256 979 l 208 382 q 207 335 207 365 q 479 65 207 65 q 707 140 628 65 q 797 367 786 214 l 844 979 l 929 979 z "},"Ů":{"ha":1000,"x_min":121,"x_max":929,"o":"m 479 -11 q 212 76 303 -11 q 121 325 121 163 q 124 378 121 342 l 169 979 l 256 979 l 208 382 q 207 335 207 365 q 479 65 207 65 q 707 140 628 65 q 797 367 786 214 l 844 979 l 929 979 l 882 376 q 765 85 867 182 q 479 -11 664 -11 m 567 1056 q 469 1094 510 1056 q 429 1190 429 1133 q 469 1285 429 1246 q 567 1325 510 1325 q 664 1285 624 1325 q 704 1190 704 1246 q 664 1094 704 1133 q 567 1056 624 1056 m 567 1118 q 617 1139 597 1118 q 636 1190 636 1160 q 617 1241 636 1221 q 567 1261 597 1261 q 517 1241 536 1261 q 499 1190 499 1221 q 518 1139 499 1160 q 567 1118 538 1118 z "},"Ũ":{"ha":1000,"x_min":121,"x_max":929,"o":"m 479 -11 q 212 76 303 -11 q 121 325 121 163 q 124 378 121 342 l 169 979 l 256 979 l 208 382 q 207 335 207 365 q 479 65 207 65 q 707 140 628 65 q 797 367 786 214 l 844 979 l 929 979 l 882 376 q 765 85 867 182 q 479 -11 664 -11 m 342 1099 q 379 1207 344 1169 q 469 1244 414 1244 q 523 1233 497 1244 q 583 1199 549 1221 q 629 1172 611 1181 q 664 1163 647 1163 q 715 1184 696 1163 q 735 1240 733 1206 l 789 1240 q 751 1132 786 1169 q 661 1094 717 1094 q 608 1106 633 1094 q 549 1140 582 1118 q 502 1167 519 1158 q 468 1175 485 1175 q 417 1154 436 1175 q 396 1099 399 1133 l 342 1099 z "},"Ṹ":{"ha":1000,"x_min":121,"x_max":929,"o":"m 479 -11 q 212 76 303 -11 q 121 325 121 163 q 124 378 121 342 l 169 979 l 256 979 l 208 382 q 207 335 207 365 q 479 65 207 65 q 707 140 628 65 q 797 367 786 214 l 844 979 l 929 979 l 882 376 q 765 85 867 182 q 479 -11 664 -11 m 342 1099 q 379 1207 344 1169 q 469 1244 414 1244 q 523 1233 497 1244 q 583 1199 549 1221 q 629 1172 611 1181 q 664 1163 647 1163 q 715 1184 696 1163 q 735 1240 733 1206 l 789 1240 q 751 1132 786 1169 q 661 1094 717 1094 q 608 1106 633 1094 q 549 1140 582 1118 q 502 1167 519 1158 q 468 1175 485 1175 q 417 1154 436 1175 q 396 1099 399 1133 l 342 1099 m 543 1285 l 696 1493 l 806 1493 l 607 1285 l 543 1285 z "},"V":{"ha":944,"x_min":60,"x_max":985,"o":"m 985 979 l 485 0 l 407 0 l 60 979 l 149 979 l 454 108 l 896 979 l 985 979 z "},"W":{"ha":1522,"x_min":101,"x_max":1521,"o":"m 1521 979 l 1104 0 l 1029 0 l 801 844 l 440 0 l 367 0 l 101 979 l 188 979 l 414 121 l 779 979 l 846 978 l 1072 122 l 1436 979 l 1521 979 z "},"Ẃ":{"ha":1522,"x_min":101,"x_max":1521,"o":"m 1521 979 l 1104 0 l 1029 0 l 801 844 l 440 0 l 367 0 l 101 979 l 188 979 l 414 121 l 779 979 l 846 978 l 1072 122 l 1436 979 l 1521 979 m 786 1063 l 939 1271 l 1049 1271 l 850 1063 l 786 1063 z "},"Ŵ":{"ha":1522,"x_min":101,"x_max":1521,"o":"m 1521 979 l 1104 0 l 1029 0 l 801 844 l 440 0 l 367 0 l 101 979 l 188 979 l 414 121 l 779 979 l 846 978 l 1072 122 l 1436 979 l 1521 979 m 626 1063 l 803 1271 l 867 1271 l 1010 1063 l 925 1063 l 833 1213 l 714 1063 l 626 1063 z "},"Ẅ":{"ha":1522,"x_min":101,"x_max":1521,"o":"m 1521 979 l 1104 0 l 1029 0 l 801 844 l 440 0 l 367 0 l 101 979 l 188 979 l 414 121 l 779 979 l 846 978 l 1072 122 l 1436 979 l 1521 979 m 768 1218 l 760 1118 l 656 1118 l 664 1218 l 768 1218 m 999 1218 l 990 1118 l 886 1118 l 894 1218 l 999 1218 z "},"Ẁ":{"ha":1522,"x_min":101,"x_max":1521,"o":"m 1521 979 l 1104 0 l 1029 0 l 801 844 l 440 0 l 367 0 l 101 979 l 188 979 l 414 121 l 779 979 l 846 978 l 1072 122 l 1436 979 l 1521 979 m 628 1271 l 725 1271 l 850 1063 l 786 1063 l 628 1271 z "},"X":{"ha":886,"x_min":-4,"x_max":894,"o":"m 504 501 l 838 0 l 736 0 l 453 436 l 99 0 l -4 0 l 407 504 l 93 979 l 193 979 l 461 568 l 792 979 l 894 979 l 504 501 z "},"Y":{"ha":821,"x_min":39,"x_max":881,"o":"m 463 468 l 425 0 l 340 0 l 378 469 l 39 979 l 135 979 l 424 542 l 782 979 l 881 979 l 463 468 z "},"Ý":{"ha":821,"x_min":39,"x_max":881,"o":"m 463 468 l 425 0 l 340 0 l 378 469 l 39 979 l 135 979 l 424 542 l 782 979 l 881 979 l 463 468 m 435 1063 l 588 1271 l 697 1271 l 499 1063 l 435 1063 z "},"Ŷ":{"ha":821,"x_min":39,"x_max":881,"o":"m 463 468 l 425 0 l 340 0 l 378 469 l 39 979 l 135 979 l 424 542 l 782 979 l 881 979 l 463 468 m 275 1063 l 451 1271 l 515 1271 l 658 1063 l 574 1063 l 482 1213 l 363 1063 l 275 1063 z "},"Ÿ":{"ha":821,"x_min":39,"x_max":881,"o":"m 463 468 l 425 0 l 340 0 l 378 469 l 39 979 l 135 979 l 424 542 l 782 979 l 881 979 l 463 468 m 417 1218 l 408 1118 l 304 1118 l 313 1218 l 417 1218 m 647 1218 l 639 1118 l 535 1118 l 543 1218 l 647 1218 z "},"Ẏ":{"ha":821,"x_min":39,"x_max":881,"o":"m 463 468 l 425 0 l 340 0 l 378 469 l 39 979 l 135 979 l 424 542 l 782 979 l 881 979 l 463 468 m 535 1222 l 526 1115 l 415 1115 l 424 1222 l 535 1222 z "},"Ỵ":{"ha":821,"x_min":39,"x_max":881,"o":"m 463 468 l 425 0 l 340 0 l 378 469 l 39 979 l 135 979 l 424 542 l 782 979 l 881 979 l 463 468 m 428 -140 l 418 -247 l 310 -247 l 318 -140 l 428 -140 z "},"Ỳ":{"ha":821,"x_min":39,"x_max":881,"o":"m 463 468 l 425 0 l 340 0 l 378 469 l 39 979 l 135 979 l 424 542 l 782 979 l 881 979 l 463 468 m 276 1271 l 374 1271 l 499 1063 l 435 1063 l 276 1271 z "},"Ỷ":{"ha":821,"x_min":39,"x_max":881,"o":"m 463 468 l 425 0 l 340 0 l 378 469 l 39 979 l 135 979 l 424 542 l 782 979 l 881 979 l 463 468 m 500 1063 l 435 1063 l 436 1085 q 454 1124 438 1108 q 499 1153 471 1139 q 529 1171 519 1163 q 539 1190 539 1179 q 524 1208 539 1201 q 482 1215 508 1215 q 394 1199 440 1215 l 379 1254 q 489 1278 431 1278 q 583 1256 549 1278 q 617 1196 617 1233 q 599 1149 617 1165 q 547 1117 581 1132 q 514 1097 525 1107 q 501 1075 503 1088 l 500 1063 z "},"Ȳ":{"ha":821,"x_min":39,"x_max":881,"o":"m 463 468 l 425 0 l 340 0 l 378 469 l 39 979 l 135 979 l 424 542 l 782 979 l 881 979 l 463 468 m 274 1204 l 683 1204 l 678 1132 l 267 1132 l 274 1204 z "},"Ỹ":{"ha":821,"x_min":39,"x_max":881,"o":"m 463 468 l 425 0 l 340 0 l 378 469 l 39 979 l 135 979 l 424 542 l 782 979 l 881 979 l 463 468 m 251 1099 q 289 1207 254 1169 q 379 1244 324 1244 q 433 1233 407 1244 q 493 1199 458 1221 q 539 1172 521 1181 q 574 1163 557 1163 q 624 1184 606 1163 q 644 1240 643 1206 l 699 1240 q 661 1132 696 1169 q 571 1094 626 1094 q 517 1106 543 1094 q 458 1140 492 1118 q 412 1167 429 1158 q 378 1175 394 1175 q 327 1154 346 1175 q 306 1099 308 1133 l 251 1099 z "},"Z":{"ha":811,"x_min":33,"x_max":796,"o":"m 792 917 l 144 74 l 740 74 l 733 0 l 33 0 l 39 63 l 686 906 l 106 906 l 111 979 l 796 979 l 792 917 z "},"Ź":{"ha":811,"x_min":33,"x_max":796,"o":"m 792 917 l 144 74 l 740 74 l 733 0 l 33 0 l 39 63 l 686 906 l 106 906 l 111 979 l 796 979 l 792 917 m 429 1063 l 582 1271 l 692 1271 l 493 1063 l 429 1063 z "},"Ž":{"ha":811,"x_min":33,"x_max":796,"o":"m 792 917 l 144 74 l 740 74 l 733 0 l 33 0 l 39 63 l 686 906 l 106 906 l 111 979 l 796 979 l 792 917 m 669 1271 l 493 1063 l 429 1063 l 286 1271 l 371 1271 l 465 1121 l 582 1271 l 669 1271 z "},"Ż":{"ha":811,"x_min":33,"x_max":796,"o":"m 792 917 l 144 74 l 740 74 l 733 0 l 33 0 l 39 63 l 686 906 l 106 906 l 111 979 l 796 979 l 792 917 m 529 1222 l 521 1115 l 410 1115 l 418 1222 l 529 1222 z "},"Ẓ":{"ha":811,"x_min":33,"x_max":796,"o":"m 792 917 l 144 74 l 740 74 l 733 0 l 33 0 l 39 63 l 686 906 l 106 906 l 111 979 l 796 979 l 792 917 m 432 -140 l 422 -247 l 314 -247 l 322 -140 l 432 -140 z "},"a":{"ha":731,"x_min":78,"x_max":631,"o":"m 400 690 q 631 468 631 690 q 629 433 631 446 l 594 0 l 511 0 l 521 115 q 432 22 488 54 q 307 -10 376 -10 q 142 44 206 -10 q 78 183 78 99 q 118 303 78 258 q 249 369 158 349 q 493 389 339 389 l 542 389 l 546 436 q 547 467 547 447 q 511 581 547 544 q 397 617 475 617 q 165 543 279 617 l 138 610 q 260 668 188 646 q 400 690 333 690 m 321 64 q 467 123 407 64 q 533 276 526 182 l 538 326 l 497 326 q 290 313 361 326 q 193 269 219 299 q 167 189 167 240 q 208 98 167 132 q 321 64 250 64 z "},"á":{"ha":731,"x_min":78,"x_max":650,"o":"m 400 690 q 631 468 631 690 q 629 433 631 446 l 594 0 l 511 0 l 521 115 q 432 22 488 54 q 307 -10 376 -10 q 142 44 206 -10 q 78 183 78 99 q 118 303 78 258 q 249 369 158 349 q 493 389 339 389 l 542 389 l 546 436 q 547 467 547 447 q 511 581 547 544 q 397 617 475 617 q 165 543 279 617 l 138 610 q 260 668 188 646 q 400 690 333 690 m 321 64 q 467 123 407 64 q 533 276 526 182 l 538 326 l 497 326 q 290 313 361 326 q 193 269 219 299 q 167 189 167 240 q 208 98 167 132 q 321 64 250 64 m 379 764 l 538 1043 l 650 1043 l 443 764 l 379 764 z "},"ă":{"ha":731,"x_min":78,"x_max":649,"o":"m 400 690 q 631 468 631 690 q 629 433 631 446 l 594 0 l 511 0 l 521 115 q 432 22 488 54 q 307 -10 376 -10 q 142 44 206 -10 q 78 183 78 99 q 118 303 78 258 q 249 369 158 349 q 493 389 339 389 l 542 389 l 546 436 q 547 467 547 447 q 511 581 547 544 q 397 617 475 617 q 165 543 279 617 l 138 610 q 260 668 188 646 q 400 690 333 690 m 321 64 q 467 123 407 64 q 533 276 526 182 l 538 326 l 497 326 q 290 313 361 326 q 193 269 219 299 q 167 189 167 240 q 208 98 167 132 q 321 64 250 64 m 415 810 q 287 851 343 810 q 207 976 231 892 l 272 1004 q 421 878 317 878 q 512 906 471 878 q 586 1004 553 935 l 649 978 q 551 849 613 889 q 415 810 490 810 z "},"ắ":{"ha":731,"x_min":78,"x_max":650,"o":"m 400 690 q 631 468 631 690 q 629 433 631 446 l 594 0 l 511 0 l 521 115 q 432 22 488 54 q 307 -10 376 -10 q 142 44 206 -10 q 78 183 78 99 q 118 303 78 258 q 249 369 158 349 q 493 389 339 389 l 542 389 l 546 436 q 547 467 547 447 q 511 581 547 544 q 397 617 475 617 q 165 543 279 617 l 138 610 q 260 668 188 646 q 400 690 333 690 m 321 64 q 467 123 407 64 q 533 276 526 182 l 538 326 l 497 326 q 290 313 361 326 q 193 269 219 299 q 167 189 167 240 q 208 98 167 132 q 321 64 250 64 m 392 906 l 542 1103 l 650 1103 l 453 906 l 392 906 m 411 757 q 283 793 339 757 q 203 904 228 829 l 265 931 q 330 848 294 871 q 417 825 365 825 q 506 848 467 825 q 582 931 544 871 l 643 904 q 411 757 571 757 z "},"ặ":{"ha":731,"x_min":78,"x_max":649,"o":"m 400 690 q 631 468 631 690 q 629 433 631 446 l 594 0 l 511 0 l 521 115 q 432 22 488 54 q 307 -10 376 -10 q 142 44 206 -10 q 78 183 78 99 q 118 303 78 258 q 249 369 158 349 q 493 389 339 389 l 542 389 l 546 436 q 547 467 547 447 q 511 581 547 544 q 397 617 475 617 q 165 543 279 617 l 138 610 q 260 668 188 646 q 400 690 333 690 m 321 64 q 467 123 407 64 q 533 276 526 182 l 538 326 l 497 326 q 290 313 361 326 q 193 269 219 299 q 167 189 167 240 q 208 98 167 132 q 321 64 250 64 m 392 -140 l 382 -247 l 274 -247 l 282 -140 l 392 -140 m 415 810 q 287 851 343 810 q 207 976 231 892 l 272 1004 q 421 878 317 878 q 512 906 471 878 q 586 1004 553 935 l 649 978 q 551 849 613 889 q 415 810 490 810 z "},"ằ":{"ha":731,"x_min":78,"x_max":643,"o":"m 400 690 q 631 468 631 690 q 629 433 631 446 l 594 0 l 511 0 l 521 115 q 432 22 488 54 q 307 -10 376 -10 q 142 44 206 -10 q 78 183 78 99 q 118 303 78 258 q 249 369 158 349 q 493 389 339 389 l 542 389 l 546 436 q 547 467 547 447 q 511 581 547 544 q 397 617 475 617 q 165 543 279 617 l 138 610 q 260 668 188 646 q 400 690 333 690 m 321 64 q 467 123 407 64 q 533 276 526 182 l 538 326 l 497 326 q 290 313 361 326 q 193 269 219 299 q 167 189 167 240 q 208 98 167 132 q 321 64 250 64 m 231 1103 l 328 1103 l 453 906 l 392 906 l 231 1103 m 411 757 q 283 793 339 757 q 203 904 228 829 l 265 931 q 330 848 294 871 q 417 825 365 825 q 506 848 467 825 q 582 931 544 871 l 643 904 q 411 757 571 757 z "},"ẳ":{"ha":731,"x_min":78,"x_max":643,"o":"m 400 690 q 631 468 631 690 q 629 433 631 446 l 594 0 l 511 0 l 521 115 q 432 22 488 54 q 307 -10 376 -10 q 142 44 206 -10 q 78 183 78 99 q 118 303 78 258 q 249 369 158 349 q 493 389 339 389 l 542 389 l 546 436 q 547 467 547 447 q 511 581 547 544 q 397 617 475 617 q 165 543 279 617 l 138 610 q 260 668 188 646 q 400 690 333 690 m 321 64 q 467 123 407 64 q 533 276 526 182 l 538 326 l 497 326 q 290 313 361 326 q 193 269 219 299 q 167 189 167 240 q 208 98 167 132 q 321 64 250 64 m 392 928 q 410 966 393 953 q 456 990 426 979 q 485 1006 475 999 q 494 1022 494 1013 q 479 1040 494 1033 q 439 1047 464 1047 q 349 1031 399 1047 l 335 1088 q 444 1110 385 1110 q 538 1088 504 1110 q 572 1031 572 1065 q 554 986 572 1001 q 504 957 536 971 q 470 939 482 947 q 457 918 458 931 l 456 906 l 390 906 l 392 928 m 411 757 q 283 793 339 757 q 203 904 228 829 l 265 931 q 330 848 294 871 q 417 825 365 825 q 506 848 467 825 q 582 931 544 871 l 643 904 q 411 757 571 757 z "},"ẵ":{"ha":731,"x_min":78,"x_max":657,"o":"m 400 690 q 631 468 631 690 q 629 433 631 446 l 594 0 l 511 0 l 521 115 q 432 22 488 54 q 307 -10 376 -10 q 142 44 206 -10 q 78 183 78 99 q 118 303 78 258 q 249 369 158 349 q 493 389 339 389 l 542 389 l 546 436 q 547 467 547 447 q 511 581 547 544 q 397 617 475 617 q 165 543 279 617 l 138 610 q 260 668 188 646 q 400 690 333 690 m 321 64 q 467 123 407 64 q 533 276 526 182 l 538 326 l 497 326 q 290 313 361 326 q 193 269 219 299 q 167 189 167 240 q 208 98 167 132 q 321 64 250 64 m 531 968 q 478 979 503 968 q 415 1013 453 990 q 371 1038 389 1029 q 336 1047 353 1047 q 285 1027 304 1047 q 264 972 267 1007 l 210 972 q 247 1077 213 1040 q 336 1114 282 1114 q 389 1103 364 1114 q 451 1069 414 1092 q 498 1043 481 1051 q 532 1035 515 1035 q 583 1056 564 1035 q 603 1110 601 1076 l 657 1110 q 619 1006 654 1043 q 531 968 585 968 m 411 757 q 283 793 339 757 q 203 904 228 829 l 265 931 q 330 848 294 871 q 417 825 365 825 q 506 848 467 825 q 582 931 544 871 l 643 904 q 411 757 571 757 z "},"ǎ":{"ha":731,"x_min":78,"x_max":631,"o":"m 400 690 q 631 468 631 690 q 629 433 631 446 l 594 0 l 511 0 l 521 115 q 432 22 488 54 q 307 -10 376 -10 q 142 44 206 -10 q 78 183 78 99 q 118 303 78 258 q 249 369 158 349 q 493 389 339 389 l 542 389 l 546 436 q 547 467 547 447 q 511 581 547 544 q 397 617 475 617 q 165 543 279 617 l 138 610 q 260 668 188 646 q 400 690 333 690 m 321 64 q 467 123 407 64 q 533 276 526 182 l 538 326 l 497 326 q 290 313 361 326 q 193 269 219 299 q 167 189 167 240 q 208 98 167 132 q 321 64 250 64 m 625 1043 l 444 764 l 378 764 l 242 1043 l 326 1043 l 415 833 l 538 1043 l 625 1043 z "},"â":{"ha":731,"x_min":78,"x_max":631,"o":"m 400 690 q 631 468 631 690 q 629 433 631 446 l 594 0 l 511 0 l 521 115 q 432 22 488 54 q 307 -10 376 -10 q 142 44 206 -10 q 78 183 78 99 q 118 303 78 258 q 249 369 158 349 q 493 389 339 389 l 542 389 l 546 436 q 547 467 547 447 q 511 581 547 544 q 397 617 475 617 q 165 543 279 617 l 138 610 q 260 668 188 646 q 400 690 333 690 m 321 64 q 467 123 407 64 q 533 276 526 182 l 538 326 l 497 326 q 290 313 361 326 q 193 269 219 299 q 167 189 167 240 q 208 98 167 132 q 321 64 250 64 m 219 764 l 400 1043 l 467 1043 l 603 764 l 518 764 l 429 974 l 308 764 l 219 764 z "},"ấ":{"ha":731,"x_min":78,"x_max":790,"o":"m 400 690 q 631 468 631 690 q 629 433 631 446 l 594 0 l 511 0 l 521 115 q 432 22 488 54 q 307 -10 376 -10 q 142 44 206 -10 q 78 183 78 99 q 118 303 78 258 q 249 369 158 349 q 493 389 339 389 l 542 389 l 546 436 q 547 467 547 447 q 511 581 547 544 q 397 617 475 617 q 165 543 279 617 l 138 610 q 260 668 188 646 q 400 690 333 690 m 321 64 q 467 123 407 64 q 533 276 526 182 l 538 326 l 497 326 q 290 313 361 326 q 193 269 219 299 q 167 189 167 240 q 208 98 167 132 q 321 64 250 64 m 536 906 l 683 1103 l 790 1103 l 594 906 l 536 906 m 219 764 l 396 972 l 460 972 l 603 764 l 518 764 l 426 914 l 307 764 l 219 764 z "},"ậ":{"ha":731,"x_min":78,"x_max":631,"o":"m 400 690 q 631 468 631 690 q 629 433 631 446 l 594 0 l 511 0 l 521 115 q 432 22 488 54 q 307 -10 376 -10 q 142 44 206 -10 q 78 183 78 99 q 118 303 78 258 q 249 369 158 349 q 493 389 339 389 l 542 389 l 546 436 q 547 467 547 447 q 511 581 547 544 q 397 617 475 617 q 165 543 279 617 l 138 610 q 260 668 188 646 q 400 690 333 690 m 321 64 q 467 123 407 64 q 533 276 526 182 l 538 326 l 497 326 q 290 313 361 326 q 193 269 219 299 q 167 189 167 240 q 208 98 167 132 q 321 64 250 64 m 392 -140 l 382 -247 l 274 -247 l 282 -140 l 392 -140 m 219 764 l 400 1043 l 467 1043 l 603 764 l 518 764 l 429 974 l 308 764 l 219 764 z "},"ầ":{"ha":731,"x_min":78,"x_max":654,"o":"m 400 690 q 631 468 631 690 q 629 433 631 446 l 594 0 l 511 0 l 521 115 q 432 22 488 54 q 307 -10 376 -10 q 142 44 206 -10 q 78 183 78 99 q 118 303 78 258 q 249 369 158 349 q 493 389 339 389 l 542 389 l 546 436 q 547 467 547 447 q 511 581 547 544 q 397 617 475 617 q 165 543 279 617 l 138 610 q 260 668 188 646 q 400 690 333 690 m 321 64 q 467 123 407 64 q 533 276 526 182 l 538 326 l 497 326 q 290 313 361 326 q 193 269 219 299 q 167 189 167 240 q 208 98 167 132 q 321 64 250 64 m 463 1103 l 558 1103 l 654 906 l 596 906 l 463 1103 m 396 972 l 460 972 l 603 764 l 518 764 l 426 914 l 307 764 l 219 764 l 396 972 z "},"ẩ":{"ha":731,"x_min":78,"x_max":717,"o":"m 400 690 q 631 468 631 690 q 629 433 631 446 l 594 0 l 511 0 l 521 115 q 432 22 488 54 q 307 -10 376 -10 q 142 44 206 -10 q 78 183 78 99 q 118 303 78 258 q 249 369 158 349 q 493 389 339 389 l 542 389 l 546 436 q 547 467 547 447 q 511 581 547 544 q 397 617 475 617 q 165 543 279 617 l 138 610 q 260 668 188 646 q 400 690 333 690 m 321 64 q 467 123 407 64 q 533 276 526 182 l 538 326 l 497 326 q 290 313 361 326 q 193 269 219 299 q 167 189 167 240 q 208 98 167 132 q 321 64 250 64 m 536 928 q 554 966 538 953 q 600 990 571 979 q 629 1006 619 999 q 639 1022 639 1013 q 624 1040 639 1033 q 583 1047 608 1047 q 493 1031 543 1047 l 479 1088 q 589 1110 529 1110 q 683 1088 649 1110 q 717 1031 717 1065 q 699 986 717 1001 q 649 957 681 971 q 615 939 626 947 q 601 918 603 931 l 600 906 l 535 906 l 536 928 m 396 972 l 460 972 l 603 764 l 518 764 l 426 914 l 307 764 l 219 764 l 396 972 z "},"ẫ":{"ha":731,"x_min":78,"x_max":658,"o":"m 400 690 q 631 468 631 690 q 629 433 631 446 l 594 0 l 511 0 l 521 115 q 432 22 488 54 q 307 -10 376 -10 q 142 44 206 -10 q 78 183 78 99 q 118 303 78 258 q 249 369 158 349 q 493 389 339 389 l 542 389 l 546 436 q 547 467 547 447 q 511 581 547 544 q 397 617 475 617 q 165 543 279 617 l 138 610 q 260 668 188 646 q 400 690 333 690 m 321 64 q 467 123 407 64 q 533 276 526 182 l 538 326 l 497 326 q 290 313 361 326 q 193 269 219 299 q 167 189 167 240 q 208 98 167 132 q 321 64 250 64 m 211 992 q 249 1089 214 1053 q 338 1125 283 1125 q 393 1116 367 1125 q 454 1089 419 1107 q 499 1068 481 1075 q 533 1061 517 1061 q 583 1081 564 1061 q 604 1129 603 1101 l 658 1129 q 622 1031 657 1067 q 532 994 586 994 q 476 1004 503 994 q 415 1031 450 1014 q 371 1051 389 1044 q 336 1058 353 1058 q 285 1039 304 1058 q 265 992 267 1019 l 211 992 m 396 972 l 460 972 l 603 764 l 518 764 l 426 914 l 307 764 l 219 764 l 396 972 z "},"ȁ":{"ha":731,"x_min":78,"x_max":631,"o":"m 400 690 q 631 468 631 690 q 629 433 631 446 l 594 0 l 511 0 l 521 115 q 432 22 488 54 q 307 -10 376 -10 q 142 44 206 -10 q 78 183 78 99 q 118 303 78 258 q 249 369 158 349 q 493 389 339 389 l 542 389 l 546 436 q 547 467 547 447 q 511 581 547 544 q 397 617 475 617 q 165 543 279 617 l 138 610 q 260 668 188 646 q 400 690 333 690 m 321 64 q 467 123 407 64 q 533 276 526 182 l 538 326 l 497 326 q 290 313 361 326 q 193 269 219 299 q 167 189 167 240 q 208 98 167 132 q 321 64 250 64 m 221 1043 l 307 1043 l 354 764 l 307 764 l 221 1043 m 382 1043 l 468 1043 l 515 764 l 468 764 l 382 1043 z "},"ä":{"ha":731,"x_min":78,"x_max":631,"o":"m 400 690 q 631 468 631 690 q 629 433 631 446 l 594 0 l 511 0 l 521 115 q 432 22 488 54 q 307 -10 376 -10 q 142 44 206 -10 q 78 183 78 99 q 118 303 78 258 q 249 369 158 349 q 493 389 339 389 l 542 389 l 546 436 q 547 467 547 447 q 511 581 547 544 q 397 617 475 617 q 165 543 279 617 l 138 610 q 260 668 188 646 q 400 690 333 690 m 321 64 q 467 123 407 64 q 533 276 526 182 l 538 326 l 497 326 q 290 313 361 326 q 193 269 219 299 q 167 189 167 240 q 208 98 167 132 q 321 64 250 64 m 364 956 l 356 854 l 251 854 l 260 956 l 364 956 m 594 956 l 586 854 l 482 854 l 490 956 l 594 956 z "},"ȧ":{"ha":731,"x_min":78,"x_max":631,"o":"m 400 690 q 631 468 631 690 q 629 433 631 446 l 594 0 l 511 0 l 521 115 q 432 22 488 54 q 307 -10 376 -10 q 142 44 206 -10 q 78 183 78 99 q 118 303 78 258 q 249 369 158 349 q 493 389 339 389 l 542 389 l 546 436 q 547 467 547 447 q 511 581 547 544 q 397 617 475 617 q 165 543 279 617 l 138 610 q 260 668 188 646 q 400 690 333 690 m 321 64 q 467 123 407 64 q 533 276 526 182 l 538 326 l 497 326 q 290 313 361 326 q 193 269 219 299 q 167 189 167 240 q 208 98 167 132 q 321 64 250 64 m 482 958 l 474 851 l 363 851 l 371 958 l 482 958 z "},"ạ":{"ha":731,"x_min":78,"x_max":631,"o":"m 400 690 q 631 468 631 690 q 629 433 631 446 l 594 0 l 511 0 l 521 115 q 432 22 488 54 q 307 -10 376 -10 q 142 44 206 -10 q 78 183 78 99 q 118 303 78 258 q 249 369 158 349 q 493 389 339 389 l 542 389 l 546 436 q 547 467 547 447 q 511 581 547 544 q 397 617 475 617 q 165 543 279 617 l 138 610 q 260 668 188 646 q 400 690 333 690 m 321 64 q 467 123 407 64 q 533 276 526 182 l 538 326 l 497 326 q 290 313 361 326 q 193 269 219 299 q 167 189 167 240 q 208 98 167 132 q 321 64 250 64 m 392 -140 l 382 -247 l 274 -247 l 282 -140 l 392 -140 z "},"à":{"ha":731,"x_min":78,"x_max":631,"o":"m 400 690 q 631 468 631 690 q 629 433 631 446 l 594 0 l 511 0 l 521 115 q 432 22 488 54 q 307 -10 376 -10 q 142 44 206 -10 q 78 183 78 99 q 118 303 78 258 q 249 369 158 349 q 493 389 339 389 l 542 389 l 546 436 q 547 467 547 447 q 511 581 547 544 q 397 617 475 617 q 165 543 279 617 l 138 610 q 260 668 188 646 q 400 690 333 690 m 321 64 q 467 123 407 64 q 533 276 526 182 l 538 326 l 497 326 q 290 313 361 326 q 193 269 219 299 q 167 189 167 240 q 208 98 167 132 q 321 64 250 64 m 224 1043 l 324 1043 l 443 764 l 379 764 l 224 1043 z "},"ả":{"ha":731,"x_min":78,"x_max":631,"o":"m 400 690 q 631 468 631 690 q 629 433 631 446 l 594 0 l 511 0 l 521 115 q 432 22 488 54 q 307 -10 376 -10 q 142 44 206 -10 q 78 183 78 99 q 118 303 78 258 q 249 369 158 349 q 493 389 339 389 l 542 389 l 546 436 q 547 467 547 447 q 511 581 547 544 q 397 617 475 617 q 165 543 279 617 l 138 610 q 260 668 188 646 q 400 690 333 690 m 321 64 q 467 123 407 64 q 533 276 526 182 l 538 326 l 497 326 q 290 313 361 326 q 193 269 219 299 q 167 189 167 240 q 208 98 167 132 q 321 64 250 64 m 446 764 l 382 764 l 385 801 q 403 851 388 831 q 447 897 419 872 q 478 928 468 915 q 488 953 488 940 q 473 977 488 968 q 431 986 458 986 q 344 969 399 986 l 329 1028 q 440 1049 376 1049 q 532 1025 497 1049 q 567 961 567 1001 q 551 911 567 931 q 504 865 536 892 q 463 826 476 843 q 447 786 449 810 l 446 764 z "},"ȃ":{"ha":731,"x_min":78,"x_max":638,"o":"m 400 690 q 631 468 631 690 q 629 433 631 446 l 594 0 l 511 0 l 521 115 q 432 22 488 54 q 307 -10 376 -10 q 142 44 206 -10 q 78 183 78 99 q 118 303 78 258 q 249 369 158 349 q 493 389 339 389 l 542 389 l 546 436 q 547 467 547 447 q 511 581 547 544 q 397 617 475 617 q 165 543 279 617 l 138 610 q 260 668 188 646 q 400 690 333 690 m 321 64 q 467 123 407 64 q 533 276 526 182 l 538 326 l 497 326 q 290 313 361 326 q 193 269 219 299 q 167 189 167 240 q 208 98 167 132 q 321 64 250 64 m 429 1003 q 558 961 501 1003 q 638 835 614 919 l 572 807 q 512 904 549 875 q 425 933 475 933 q 333 905 375 933 q 258 807 292 876 l 196 833 q 293 963 232 922 q 429 1003 354 1003 z "},"ā":{"ha":731,"x_min":78,"x_max":631,"o":"m 400 690 q 631 468 631 690 q 629 433 631 446 l 594 0 l 511 0 l 521 115 q 432 22 488 54 q 307 -10 376 -10 q 142 44 206 -10 q 78 183 78 99 q 118 303 78 258 q 249 369 158 349 q 493 389 339 389 l 542 389 l 546 436 q 547 467 547 447 q 511 581 547 544 q 397 617 475 617 q 165 543 279 617 l 138 610 q 260 668 188 646 q 400 690 333 690 m 321 64 q 467 123 407 64 q 533 276 526 182 l 538 326 l 497 326 q 290 313 361 326 q 193 269 219 299 q 167 189 167 240 q 208 98 167 132 q 321 64 250 64 m 221 940 l 631 940 l 625 869 l 214 869 l 221 940 z "},"ą":{"ha":731,"x_min":78,"x_max":642,"o":"m 642 -235 q 590 -257 621 -249 q 529 -265 560 -265 q 419 -228 460 -265 q 378 -132 378 -192 q 414 -28 378 -72 q 514 38 450 17 l 521 115 q 432 22 488 54 q 307 -10 376 -10 q 142 44 206 -10 q 78 183 78 99 q 118 303 78 258 q 249 369 158 349 q 493 389 339 389 l 542 389 l 546 436 q 547 467 547 447 q 511 581 547 544 q 397 617 475 617 q 165 543 279 617 l 138 610 q 260 668 188 646 q 400 690 333 690 q 631 468 631 690 q 629 433 631 446 l 594 0 l 585 0 q 492 -32 529 0 q 454 -118 454 -64 q 476 -181 454 -160 q 539 -203 499 -203 q 624 -176 579 -203 l 642 -235 m 321 64 q 467 123 407 64 q 533 276 526 182 l 538 326 l 497 326 q 290 313 361 326 q 193 269 219 299 q 167 189 167 240 q 208 98 167 132 q 321 64 250 64 z "},"å":{"ha":731,"x_min":78,"x_max":631,"o":"m 400 690 q 631 468 631 690 q 629 433 631 446 l 594 0 l 511 0 l 521 115 q 432 22 488 54 q 307 -10 376 -10 q 142 44 206 -10 q 78 183 78 99 q 118 303 78 258 q 249 369 158 349 q 493 389 339 389 l 542 389 l 546 436 q 547 467 547 447 q 511 581 547 544 q 397 617 475 617 q 165 543 279 617 l 138 610 q 260 668 188 646 q 400 690 333 690 m 321 64 q 467 123 407 64 q 533 276 526 182 l 538 326 l 497 326 q 290 313 361 326 q 193 269 219 299 q 167 189 167 240 q 208 98 167 132 q 321 64 250 64 m 422 769 q 325 808 365 769 q 285 904 285 847 q 325 999 285 960 q 422 1038 365 1038 q 519 999 479 1038 q 560 904 560 960 q 519 808 560 847 q 422 769 479 769 m 422 832 q 472 853 453 832 q 492 904 492 874 q 472 954 492 933 q 422 975 451 975 q 374 954 393 975 q 354 904 354 933 q 374 853 354 874 q 422 832 393 832 z "},"ǻ":{"ha":731,"x_min":78,"x_max":721,"o":"m 422 771 q 326 808 365 771 q 286 901 286 846 q 326 999 286 960 q 424 1039 367 1039 q 510 1010 472 1039 l 617 1168 l 721 1178 l 553 985 l 536 982 q 560 904 560 947 q 519 810 560 849 q 422 771 479 771 m 424 976 q 374 956 393 976 q 354 904 354 935 q 374 854 354 875 q 422 833 393 833 q 472 854 451 833 q 492 904 492 875 q 472 956 492 935 q 424 976 453 976 m 400 690 q 631 468 631 690 q 629 433 631 446 l 594 0 l 511 0 l 521 115 q 432 22 488 54 q 307 -10 376 -10 q 142 44 206 -10 q 78 183 78 99 q 118 303 78 258 q 249 369 158 349 q 493 389 339 389 l 542 389 l 546 436 q 547 467 547 447 q 511 581 547 544 q 397 617 475 617 q 165 543 279 617 l 138 610 q 260 668 188 646 q 400 690 333 690 m 321 64 q 467 123 407 64 q 533 276 526 182 l 538 326 l 497 326 q 290 313 361 326 q 193 269 219 299 q 167 189 167 240 q 208 98 167 132 q 321 64 250 64 z "},"ã":{"ha":731,"x_min":78,"x_max":647,"o":"m 400 690 q 631 468 631 690 q 629 433 631 446 l 594 0 l 511 0 l 521 115 q 432 22 488 54 q 307 -10 376 -10 q 142 44 206 -10 q 78 183 78 99 q 118 303 78 258 q 249 369 158 349 q 493 389 339 389 l 542 389 l 546 436 q 547 467 547 447 q 511 581 547 544 q 397 617 475 617 q 165 543 279 617 l 138 610 q 260 668 188 646 q 400 690 333 690 m 321 64 q 467 123 407 64 q 533 276 526 182 l 538 326 l 497 326 q 290 313 361 326 q 193 269 219 299 q 167 189 167 240 q 208 98 167 132 q 321 64 250 64 m 199 835 q 235 943 201 906 q 325 981 269 981 q 380 969 354 981 q 440 935 406 957 q 487 908 469 917 q 521 900 504 900 q 572 921 553 900 q 593 976 590 942 l 647 976 q 608 868 643 906 q 519 831 574 831 q 465 842 490 831 q 404 876 439 854 q 360 902 378 893 q 325 911 342 911 q 274 890 293 911 q 253 835 256 869 l 199 835 z "},"æ":{"ha":1190,"x_min":78,"x_max":1132,"o":"m 626 326 l 626 313 q 685 131 626 196 q 854 65 743 65 q 965 85 908 65 q 1069 146 1022 106 l 1097 81 q 988 15 1057 40 q 853 -10 918 -10 q 674 39 746 -10 q 574 175 603 88 q 471 40 542 89 q 307 -10 400 -10 q 142 44 206 -10 q 78 183 78 99 q 118 303 78 258 q 249 369 158 349 q 493 389 339 389 l 546 389 l 550 436 q 551 469 551 449 q 515 581 551 546 q 400 617 478 617 q 165 543 279 617 l 138 610 q 260 668 188 646 q 403 690 333 690 q 619 567 575 690 q 724 658 661 626 q 865 690 786 690 q 1060 615 989 690 q 1132 393 1132 539 q 1128 326 1132 363 l 626 326 m 869 621 q 708 560 769 621 q 632 389 647 500 l 1054 389 q 1008 562 1058 503 q 869 621 958 621 m 317 64 q 469 126 407 64 q 539 289 531 189 l 542 326 l 497 326 q 290 313 361 326 q 193 269 219 299 q 167 189 167 240 q 208 98 167 132 q 317 64 249 64 z "},"ǽ":{"ha":1190,"x_min":78,"x_max":1132,"o":"m 626 326 l 626 313 q 685 131 626 196 q 854 65 743 65 q 965 85 908 65 q 1069 146 1022 106 l 1097 81 q 988 15 1057 40 q 853 -10 918 -10 q 674 39 746 -10 q 574 175 603 88 q 471 40 542 89 q 307 -10 400 -10 q 142 44 206 -10 q 78 183 78 99 q 118 303 78 258 q 249 369 158 349 q 493 389 339 389 l 546 389 l 550 436 q 551 469 551 449 q 515 581 551 546 q 400 617 478 617 q 165 543 279 617 l 138 610 q 260 668 188 646 q 403 690 333 690 q 619 567 575 690 q 724 658 661 626 q 865 690 786 690 q 1060 615 989 690 q 1132 393 1132 539 q 1128 326 1132 363 l 626 326 m 869 621 q 708 560 769 621 q 632 389 647 500 l 1054 389 q 1008 562 1058 503 q 869 621 958 621 m 317 64 q 469 126 407 64 q 539 289 531 189 l 542 326 l 497 326 q 290 313 361 326 q 193 269 219 299 q 167 189 167 240 q 208 98 167 132 q 317 64 249 64 m 588 764 l 746 1043 l 858 1043 l 651 764 l 588 764 z "},"b":{"ha":796,"x_min":85,"x_max":729,"o":"m 442 690 q 592 650 526 690 q 693 536 657 610 q 729 364 729 463 q 690 168 729 253 q 578 37 650 83 q 414 -10 507 -10 q 271 27 332 -10 q 181 129 210 64 l 169 0 l 85 0 l 163 979 l 247 979 l 214 567 q 308 658 247 625 q 442 690 369 690 m 411 65 q 580 146 518 65 q 642 367 642 226 q 585 551 642 485 q 425 617 528 617 q 256 535 318 617 q 194 313 194 454 q 251 128 194 192 q 411 65 307 65 z "},"c":{"ha":660,"x_min":68,"x_max":643,"o":"m 369 -10 q 210 31 279 -10 q 105 144 142 71 q 68 315 68 218 q 108 513 68 428 q 224 644 149 597 q 401 690 300 690 q 536 667 474 690 q 643 601 599 643 l 606 535 q 505 597 553 578 q 400 617 457 617 q 221 536 285 617 q 157 313 157 456 q 215 131 157 197 q 378 65 272 65 q 477 84 432 65 q 575 146 522 103 l 603 81 q 499 15 560 39 q 369 -10 438 -10 z "},"ć":{"ha":660,"x_min":68,"x_max":656,"o":"m 369 -10 q 210 31 279 -10 q 105 144 142 71 q 68 315 68 218 q 108 513 68 428 q 224 644 149 597 q 401 690 300 690 q 536 667 474 690 q 643 601 599 643 l 606 535 q 505 597 553 578 q 400 617 457 617 q 221 536 285 617 q 157 313 157 456 q 215 131 157 197 q 378 65 272 65 q 477 84 432 65 q 575 146 522 103 l 603 81 q 499 15 560 39 q 369 -10 438 -10 m 385 764 l 543 1043 l 656 1043 l 449 764 l 385 764 z "},"č":{"ha":660,"x_min":68,"x_max":643,"o":"m 369 -10 q 210 31 279 -10 q 105 144 142 71 q 68 315 68 218 q 108 513 68 428 q 224 644 149 597 q 401 690 300 690 q 536 667 474 690 q 643 601 599 643 l 606 535 q 505 597 553 578 q 400 617 457 617 q 221 536 285 617 q 157 313 157 456 q 215 131 157 197 q 378 65 272 65 q 477 84 432 65 q 575 146 522 103 l 603 81 q 499 15 560 39 q 369 -10 438 -10 m 631 1043 l 450 764 l 383 764 l 247 1043 l 332 1043 l 421 833 l 543 1043 l 631 1043 z "},"ç":{"ha":660,"x_min":68,"x_max":643,"o":"m 400 617 q 221 536 285 617 q 157 313 157 456 q 215 131 157 197 q 378 65 272 65 q 477 84 432 65 q 575 146 522 103 l 603 81 q 501 15 561 39 q 375 -10 440 -8 l 365 -60 q 396 -57 385 -57 q 469 -81 442 -57 q 497 -150 497 -106 q 456 -234 497 -203 q 340 -265 415 -265 q 278 -259 311 -265 q 219 -239 244 -253 l 239 -186 q 342 -206 292 -206 q 404 -192 382 -206 q 426 -153 426 -179 q 414 -123 426 -133 q 378 -112 401 -112 q 313 -126 351 -112 l 288 -106 l 307 -4 q 132 101 196 15 q 68 315 68 186 q 108 513 68 428 q 224 644 149 597 q 401 690 300 690 q 536 667 474 690 q 643 601 599 643 l 606 535 q 505 597 553 578 q 400 617 457 617 z "},"ḉ":{"ha":660,"x_min":68,"x_max":656,"o":"m 449 764 l 385 764 l 543 1043 l 656 1043 l 449 764 m 68 315 q 108 513 68 428 q 224 644 149 597 q 401 690 300 690 q 536 667 474 690 q 643 601 599 643 l 606 535 q 505 597 553 578 q 400 617 457 617 q 221 536 285 617 q 157 313 157 456 q 215 131 157 197 q 378 65 272 65 q 477 84 432 65 q 575 146 522 103 l 603 81 q 501 15 561 39 q 375 -10 440 -8 l 365 -60 q 396 -57 385 -57 q 469 -81 442 -57 q 497 -150 497 -106 q 456 -234 497 -203 q 340 -265 415 -265 q 278 -259 311 -265 q 219 -239 244 -253 l 239 -186 q 342 -206 292 -206 q 404 -192 382 -206 q 426 -153 426 -179 q 414 -123 426 -133 q 378 -112 401 -112 q 313 -126 351 -112 l 288 -106 l 307 -4 q 132 101 196 15 q 68 315 68 186 z "},"ĉ":{"ha":660,"x_min":68,"x_max":643,"o":"m 369 -10 q 210 31 279 -10 q 105 144 142 71 q 68 315 68 218 q 108 513 68 428 q 224 644 149 597 q 401 690 300 690 q 536 667 474 690 q 643 601 599 643 l 606 535 q 505 597 553 578 q 400 617 457 617 q 221 536 285 617 q 157 313 157 456 q 215 131 157 197 q 378 65 272 65 q 477 84 432 65 q 575 146 522 103 l 603 81 q 499 15 560 39 q 369 -10 438 -10 m 225 764 l 406 1043 l 472 1043 l 608 764 l 524 764 l 435 974 l 314 764 l 225 764 z "},"ċ":{"ha":660,"x_min":68,"x_max":643,"o":"m 369 -10 q 210 31 279 -10 q 105 144 142 71 q 68 315 68 218 q 108 513 68 428 q 224 644 149 597 q 401 690 300 690 q 536 667 474 690 q 643 601 599 643 l 606 535 q 505 597 553 578 q 400 617 457 617 q 221 536 285 617 q 157 313 157 456 q 215 131 157 197 q 378 65 272 65 q 477 84 432 65 q 575 146 522 103 l 603 81 q 499 15 560 39 q 369 -10 438 -10 m 488 958 l 479 851 l 368 851 l 376 958 l 488 958 z "},"d":{"ha":796,"x_min":68,"x_max":735,"o":"m 735 979 l 658 0 l 574 0 l 583 115 q 488 24 549 57 q 356 -10 428 -10 q 206 31 271 -10 q 104 144 140 71 q 68 315 68 218 q 108 512 68 426 q 219 644 147 597 q 383 690 290 690 q 526 655 465 690 q 617 554 588 619 l 650 979 l 735 979 m 372 65 q 541 147 479 65 q 603 368 603 228 q 547 553 603 489 q 386 617 490 617 q 218 537 279 617 q 157 317 157 457 q 213 131 157 196 q 372 65 269 65 z "},"ð":{"ha":763,"x_min":65,"x_max":733,"o":"m 581 814 q 701 447 701 672 q 611 103 701 217 q 367 -10 521 -10 q 147 72 229 -10 q 65 289 65 153 q 105 468 65 390 q 217 589 144 546 q 383 632 289 632 q 530 597 468 632 q 621 504 592 563 q 506 785 610 672 l 281 700 l 264 761 l 454 832 q 268 925 374 893 l 294 988 q 533 863 436 946 l 717 931 l 733 871 l 581 814 m 371 65 q 540 138 478 65 q 601 340 601 211 q 544 499 601 442 q 385 557 486 557 q 215 485 276 557 q 154 286 154 413 q 210 122 154 179 q 371 65 265 65 z "},"ď":{"ha":796,"x_min":68,"x_max":867,"o":"m 650 979 l 735 979 l 658 0 l 574 0 l 583 115 q 488 24 549 57 q 356 -10 428 -10 q 206 31 271 -10 q 104 144 140 71 q 68 315 68 218 q 108 512 68 426 q 219 644 147 597 q 383 690 290 690 q 526 655 465 690 q 617 554 588 619 l 650 979 m 867 979 l 811 717 l 764 717 l 783 979 l 867 979 m 372 65 q 541 147 479 65 q 603 368 603 228 q 547 553 603 489 q 386 617 490 617 q 218 537 279 617 q 157 317 157 457 q 213 131 157 196 q 372 65 269 65 z "},"đ":{"ha":796,"x_min":68,"x_max":856,"o":"m 850 779 l 719 779 l 658 0 l 574 0 l 583 115 q 488 24 549 57 q 356 -10 428 -10 q 206 31 271 -10 q 104 145 140 71 q 68 318 68 219 q 108 513 68 429 q 219 644 147 597 q 383 690 290 690 q 526 655 465 690 q 617 554 588 619 l 635 779 l 364 779 l 371 847 l 640 847 l 650 979 l 735 979 l 725 847 l 856 847 l 850 779 m 372 65 q 542 147 481 65 q 603 369 603 228 q 547 553 603 489 q 386 617 490 617 q 218 536 279 617 q 157 314 157 456 q 213 131 157 196 q 372 65 269 65 z "},"ḍ":{"ha":796,"x_min":68,"x_max":735,"o":"m 735 979 l 658 0 l 574 0 l 583 115 q 488 24 549 57 q 356 -10 428 -10 q 206 31 271 -10 q 104 144 140 71 q 68 315 68 218 q 108 512 68 426 q 219 644 147 597 q 383 690 290 690 q 526 655 465 690 q 617 554 588 619 l 650 979 l 735 979 m 372 65 q 541 147 479 65 q 603 368 603 228 q 547 553 603 489 q 386 617 490 617 q 218 537 279 617 q 157 317 157 457 q 213 131 157 196 q 372 65 269 65 m 418 -140 l 408 -247 l 300 -247 l 308 -140 l 418 -140 z "},"ḏ":{"ha":796,"x_min":68,"x_max":735,"o":"m 735 979 l 658 0 l 574 0 l 583 115 q 488 24 549 57 q 356 -10 428 -10 q 206 31 271 -10 q 104 144 140 71 q 68 315 68 218 q 108 512 68 426 q 219 644 147 597 q 383 690 290 690 q 526 655 465 690 q 617 554 588 619 l 650 979 l 735 979 m 372 65 q 541 147 479 65 q 603 368 603 228 q 547 553 603 489 q 386 617 490 617 q 218 537 279 617 q 157 317 157 457 q 213 131 157 196 q 372 65 269 65 m 156 -158 l 567 -158 l 561 -229 l 150 -229 l 156 -158 z "},"ǆ":{"ha":1489,"x_min":68,"x_max":1439,"o":"m 735 979 l 658 0 l 574 0 l 583 115 q 488 24 549 57 q 356 -10 428 -10 q 206 31 271 -10 q 104 144 140 71 q 68 315 68 218 q 108 512 68 426 q 219 644 147 597 q 383 690 290 690 q 526 655 465 690 q 617 554 588 619 l 650 979 l 735 979 m 372 65 q 541 147 479 65 q 603 368 603 228 q 547 553 603 489 q 386 617 490 617 q 218 537 279 617 q 157 317 157 457 q 213 131 157 196 q 372 65 269 65 m 1435 610 l 956 69 l 1407 69 l 1401 0 l 838 0 l 842 58 l 1328 606 l 903 606 l 907 674 l 1439 674 l 1435 610 m 1394 1043 l 1214 764 l 1147 764 l 1011 1043 l 1096 1043 l 1185 833 l 1307 1043 l 1394 1043 z "},"e":{"ha":731,"x_min":68,"x_max":671,"o":"m 156 326 l 156 313 q 214 131 156 196 q 382 65 272 65 q 608 146 514 65 l 636 81 q 524 15 594 39 q 379 -10 453 -10 q 151 78 235 -10 q 68 315 68 167 q 108 511 68 426 q 224 643 149 596 q 399 690 299 690 q 598 615 525 690 q 671 394 671 540 q 667 326 671 363 l 156 326 m 403 621 q 238 560 300 621 q 161 389 176 500 l 593 389 q 546 562 597 503 q 403 621 494 621 z "},"é":{"ha":731,"x_min":68,"x_max":671,"o":"m 156 326 l 156 313 q 214 131 156 196 q 382 65 272 65 q 608 146 514 65 l 636 81 q 524 15 594 39 q 379 -10 453 -10 q 151 78 235 -10 q 68 315 68 167 q 108 511 68 426 q 224 643 149 596 q 399 690 299 690 q 598 615 525 690 q 671 394 671 540 q 667 326 671 363 l 156 326 m 403 621 q 238 560 300 621 q 161 389 176 500 l 593 389 q 546 562 597 503 q 403 621 494 621 m 385 764 l 543 1043 l 656 1043 l 449 764 l 385 764 z "},"ĕ":{"ha":731,"x_min":68,"x_max":671,"o":"m 156 326 l 156 313 q 214 131 156 196 q 382 65 272 65 q 608 146 514 65 l 636 81 q 524 15 594 39 q 379 -10 453 -10 q 151 78 235 -10 q 68 315 68 167 q 108 511 68 426 q 224 643 149 596 q 399 690 299 690 q 598 615 525 690 q 671 394 671 540 q 667 326 671 363 l 156 326 m 403 621 q 238 560 300 621 q 161 389 176 500 l 593 389 q 546 562 597 503 q 403 621 494 621 m 421 810 q 292 851 349 810 q 213 976 236 892 l 278 1004 q 426 878 322 878 q 517 906 476 878 q 592 1004 558 935 l 654 978 q 557 849 618 889 q 421 810 496 810 z "},"ě":{"ha":731,"x_min":68,"x_max":671,"o":"m 156 326 l 156 313 q 214 131 156 196 q 382 65 272 65 q 608 146 514 65 l 636 81 q 524 15 594 39 q 379 -10 453 -10 q 151 78 235 -10 q 68 315 68 167 q 108 511 68 426 q 224 643 149 596 q 399 690 299 690 q 598 615 525 690 q 671 394 671 540 q 667 326 671 363 l 156 326 m 403 621 q 238 560 300 621 q 161 389 176 500 l 593 389 q 546 562 597 503 q 403 621 494 621 m 631 1043 l 450 764 l 383 764 l 247 1043 l 332 1043 l 421 833 l 543 1043 l 631 1043 z "},"ḝ":{"ha":731,"x_min":68,"x_max":671,"o":"m 421 810 q 292 851 349 810 q 213 976 236 892 l 278 1004 q 426 878 322 878 q 517 906 476 878 q 592 1004 558 935 l 654 978 q 557 849 618 889 q 421 810 496 810 m 156 326 l 156 313 q 214 131 156 196 q 382 65 272 65 q 608 146 514 65 l 636 81 q 531 17 597 42 q 394 -10 465 -7 l 385 -60 q 415 -57 404 -57 q 489 -81 461 -57 q 517 -150 517 -106 q 476 -234 517 -203 q 360 -265 435 -265 q 297 -259 331 -265 q 239 -239 264 -253 l 258 -186 q 361 -206 311 -206 q 424 -192 401 -206 q 446 -153 446 -179 q 433 -123 446 -133 q 397 -112 421 -112 q 332 -126 371 -112 l 307 -106 l 325 -6 q 136 96 204 10 q 68 315 68 182 q 108 511 68 426 q 224 643 149 596 q 399 690 299 690 q 598 615 525 690 q 671 394 671 540 q 667 326 671 363 l 156 326 m 403 621 q 238 560 300 621 q 161 389 176 500 l 593 389 q 546 562 597 503 q 403 621 494 621 z "},"ê":{"ha":731,"x_min":68,"x_max":671,"o":"m 156 326 l 156 313 q 214 131 156 196 q 382 65 272 65 q 608 146 514 65 l 636 81 q 524 15 594 39 q 379 -10 453 -10 q 151 78 235 -10 q 68 315 68 167 q 108 511 68 426 q 224 643 149 596 q 399 690 299 690 q 598 615 525 690 q 671 394 671 540 q 667 326 671 363 l 156 326 m 403 621 q 238 560 300 621 q 161 389 176 500 l 593 389 q 546 562 597 503 q 403 621 494 621 m 225 764 l 406 1043 l 472 1043 l 608 764 l 524 764 l 435 974 l 314 764 l 225 764 z "},"ế":{"ha":731,"x_min":68,"x_max":796,"o":"m 156 326 l 156 313 q 214 131 156 196 q 382 65 272 65 q 608 146 514 65 l 636 81 q 524 15 594 39 q 379 -10 453 -10 q 151 78 235 -10 q 68 315 68 167 q 108 511 68 426 q 224 643 149 596 q 399 690 299 690 q 598 615 525 690 q 671 394 671 540 q 667 326 671 363 l 156 326 m 403 621 q 238 560 300 621 q 161 389 176 500 l 593 389 q 546 562 597 503 q 403 621 494 621 m 542 906 l 689 1103 l 796 1103 l 600 906 l 542 906 m 225 764 l 401 972 l 465 972 l 608 764 l 524 764 l 432 914 l 313 764 l 225 764 z "},"ệ":{"ha":731,"x_min":68,"x_max":671,"o":"m 156 326 l 156 313 q 214 131 156 196 q 382 65 272 65 q 608 146 514 65 l 636 81 q 524 15 594 39 q 379 -10 453 -10 q 151 78 235 -10 q 68 315 68 167 q 108 511 68 426 q 224 643 149 596 q 399 690 299 690 q 598 615 525 690 q 671 394 671 540 q 667 326 671 363 l 156 326 m 403 621 q 238 560 300 621 q 161 389 176 500 l 593 389 q 546 562 597 503 q 403 621 494 621 m 418 -140 l 408 -247 l 300 -247 l 308 -140 l 418 -140 m 225 764 l 406 1043 l 472 1043 l 608 764 l 524 764 l 435 974 l 314 764 l 225 764 z "},"ề":{"ha":731,"x_min":68,"x_max":671,"o":"m 156 326 l 156 313 q 214 131 156 196 q 382 65 272 65 q 608 146 514 65 l 636 81 q 524 15 594 39 q 379 -10 453 -10 q 151 78 235 -10 q 68 315 68 167 q 108 511 68 426 q 224 643 149 596 q 399 690 299 690 q 598 615 525 690 q 671 394 671 540 q 667 326 671 363 l 156 326 m 403 621 q 238 560 300 621 q 161 389 176 500 l 593 389 q 546 562 597 503 q 403 621 494 621 m 468 1103 l 564 1103 l 660 906 l 601 906 l 468 1103 m 401 972 l 465 972 l 608 764 l 524 764 l 432 914 l 313 764 l 225 764 l 401 972 z "},"ể":{"ha":731,"x_min":68,"x_max":722,"o":"m 156 326 l 156 313 q 214 131 156 196 q 382 65 272 65 q 608 146 514 65 l 636 81 q 524 15 594 39 q 379 -10 453 -10 q 151 78 235 -10 q 68 315 68 167 q 108 511 68 426 q 224 643 149 596 q 399 690 299 690 q 598 615 525 690 q 671 394 671 540 q 667 326 671 363 l 156 326 m 403 621 q 238 560 300 621 q 161 389 176 500 l 593 389 q 546 562 597 503 q 403 621 494 621 m 542 928 q 560 966 543 953 q 606 990 576 979 q 635 1006 625 999 q 644 1022 644 1013 q 629 1040 644 1033 q 589 1047 614 1047 q 499 1031 549 1047 l 485 1088 q 594 1110 535 1110 q 688 1088 654 1110 q 722 1031 722 1065 q 704 986 722 1001 q 654 957 686 971 q 620 939 632 947 q 607 918 608 931 l 606 906 l 540 906 l 542 928 m 401 972 l 465 972 l 608 764 l 524 764 l 432 914 l 313 764 l 225 764 l 401 972 z "},"ễ":{"ha":731,"x_min":68,"x_max":671,"o":"m 156 326 l 156 313 q 214 131 156 196 q 382 65 272 65 q 608 146 514 65 l 636 81 q 524 15 594 39 q 379 -10 453 -10 q 151 78 235 -10 q 68 315 68 167 q 108 511 68 426 q 224 643 149 596 q 399 690 299 690 q 598 615 525 690 q 671 394 671 540 q 667 326 671 363 l 156 326 m 403 621 q 238 560 300 621 q 161 389 176 500 l 593 389 q 546 562 597 503 q 403 621 494 621 m 217 992 q 254 1089 219 1053 q 343 1125 289 1125 q 399 1116 372 1125 q 460 1089 425 1107 q 504 1068 486 1075 q 539 1061 522 1061 q 589 1081 569 1061 q 610 1129 608 1101 l 664 1129 q 627 1031 663 1067 q 538 994 592 994 q 482 1004 508 994 q 421 1031 456 1014 q 376 1051 394 1044 q 342 1058 358 1058 q 291 1039 310 1058 q 271 992 272 1019 l 217 992 m 401 972 l 465 972 l 608 764 l 524 764 l 432 914 l 313 764 l 225 764 l 401 972 z "},"ȅ":{"ha":731,"x_min":68,"x_max":671,"o":"m 156 326 l 156 313 q 214 131 156 196 q 382 65 272 65 q 608 146 514 65 l 636 81 q 524 15 594 39 q 379 -10 453 -10 q 151 78 235 -10 q 68 315 68 167 q 108 511 68 426 q 224 643 149 596 q 399 690 299 690 q 598 615 525 690 q 671 394 671 540 q 667 326 671 363 l 156 326 m 403 621 q 238 560 300 621 q 161 389 176 500 l 593 389 q 546 562 597 503 q 403 621 494 621 m 226 1043 l 313 1043 l 360 764 l 313 764 l 226 1043 m 388 1043 l 474 1043 l 521 764 l 474 764 l 388 1043 z "},"ë":{"ha":731,"x_min":68,"x_max":671,"o":"m 156 326 l 156 313 q 214 131 156 196 q 382 65 272 65 q 608 146 514 65 l 636 81 q 524 15 594 39 q 379 -10 453 -10 q 151 78 235 -10 q 68 315 68 167 q 108 511 68 426 q 224 643 149 596 q 399 690 299 690 q 598 615 525 690 q 671 394 671 540 q 667 326 671 363 l 156 326 m 403 621 q 238 560 300 621 q 161 389 176 500 l 593 389 q 546 562 597 503 q 403 621 494 621 m 369 956 l 361 854 l 257 854 l 265 956 l 369 956 m 600 956 l 592 854 l 488 854 l 496 956 l 600 956 z "},"ė":{"ha":731,"x_min":68,"x_max":671,"o":"m 156 326 l 156 313 q 214 131 156 196 q 382 65 272 65 q 608 146 514 65 l 636 81 q 524 15 594 39 q 379 -10 453 -10 q 151 78 235 -10 q 68 315 68 167 q 108 511 68 426 q 224 643 149 596 q 399 690 299 690 q 598 615 525 690 q 671 394 671 540 q 667 326 671 363 l 156 326 m 403 621 q 238 560 300 621 q 161 389 176 500 l 593 389 q 546 562 597 503 q 403 621 494 621 m 488 958 l 479 851 l 368 851 l 376 958 l 488 958 z "},"ẹ":{"ha":731,"x_min":68,"x_max":671,"o":"m 156 326 l 156 313 q 214 131 156 196 q 382 65 272 65 q 608 146 514 65 l 636 81 q 524 15 594 39 q 379 -10 453 -10 q 151 78 235 -10 q 68 315 68 167 q 108 511 68 426 q 224 643 149 596 q 399 690 299 690 q 598 615 525 690 q 671 394 671 540 q 667 326 671 363 l 156 326 m 403 621 q 238 560 300 621 q 161 389 176 500 l 593 389 q 546 562 597 503 q 403 621 494 621 m 418 -140 l 408 -247 l 300 -247 l 308 -140 l 418 -140 z "},"è":{"ha":731,"x_min":68,"x_max":671,"o":"m 156 326 l 156 313 q 214 131 156 196 q 382 65 272 65 q 608 146 514 65 l 636 81 q 524 15 594 39 q 379 -10 453 -10 q 151 78 235 -10 q 68 315 68 167 q 108 511 68 426 q 224 643 149 596 q 399 690 299 690 q 598 615 525 690 q 671 394 671 540 q 667 326 671 363 l 156 326 m 403 621 q 238 560 300 621 q 161 389 176 500 l 593 389 q 546 562 597 503 q 403 621 494 621 m 229 1043 l 329 1043 l 449 764 l 385 764 l 229 1043 z "},"ẻ":{"ha":731,"x_min":68,"x_max":671,"o":"m 156 326 l 156 313 q 214 131 156 196 q 382 65 272 65 q 608 146 514 65 l 636 81 q 524 15 594 39 q 379 -10 453 -10 q 151 78 235 -10 q 68 315 68 167 q 108 511 68 426 q 224 643 149 596 q 399 690 299 690 q 598 615 525 690 q 671 394 671 540 q 667 326 671 363 l 156 326 m 403 621 q 238 560 300 621 q 161 389 176 500 l 593 389 q 546 562 597 503 q 403 621 494 621 m 451 764 l 388 764 l 390 801 q 409 851 393 831 q 453 897 425 872 q 483 928 474 915 q 493 953 493 940 q 478 977 493 968 q 436 986 464 986 q 350 969 404 986 l 335 1028 q 446 1049 382 1049 q 538 1025 503 1049 q 572 961 572 1001 q 557 911 572 931 q 510 865 542 892 q 468 826 482 843 q 453 786 454 810 l 451 764 z "},"ȇ":{"ha":731,"x_min":68,"x_max":671,"o":"m 156 326 l 156 313 q 214 131 156 196 q 382 65 272 65 q 608 146 514 65 l 636 81 q 524 15 594 39 q 379 -10 453 -10 q 151 78 235 -10 q 68 315 68 167 q 108 511 68 426 q 224 643 149 596 q 399 690 299 690 q 598 615 525 690 q 671 394 671 540 q 667 326 671 363 l 156 326 m 403 621 q 238 560 300 621 q 161 389 176 500 l 593 389 q 546 562 597 503 q 403 621 494 621 m 435 1003 q 563 961 507 1003 q 643 835 619 919 l 578 807 q 517 904 554 875 q 431 933 481 933 q 339 905 381 933 q 264 807 297 876 l 201 833 q 299 963 238 922 q 435 1003 360 1003 z "},"ē":{"ha":731,"x_min":68,"x_max":671,"o":"m 156 326 l 156 313 q 214 131 156 196 q 382 65 272 65 q 608 146 514 65 l 636 81 q 524 15 594 39 q 379 -10 453 -10 q 151 78 235 -10 q 68 315 68 167 q 108 511 68 426 q 224 643 149 596 q 399 690 299 690 q 598 615 525 690 q 671 394 671 540 q 667 326 671 363 l 156 326 m 403 621 q 238 560 300 621 q 161 389 176 500 l 593 389 q 546 562 597 503 q 403 621 494 621 m 226 940 l 636 940 l 631 869 l 219 869 l 226 940 z "},"ḗ":{"ha":731,"x_min":68,"x_max":676,"o":"m 156 326 l 156 313 q 214 131 156 196 q 382 65 272 65 q 608 146 514 65 l 636 81 q 524 15 594 39 q 379 -10 453 -10 q 151 78 235 -10 q 68 315 68 167 q 108 511 68 426 q 224 643 149 596 q 399 690 299 690 q 598 615 525 690 q 671 394 671 540 q 667 326 671 363 l 156 326 m 403 621 q 238 560 300 621 q 161 389 176 500 l 593 389 q 546 562 597 503 q 403 621 494 621 m 226 940 l 636 940 l 631 869 l 219 869 l 226 940 m 406 1033 l 564 1313 l 676 1313 l 469 1033 l 406 1033 z "},"ḕ":{"ha":731,"x_min":68,"x_max":671,"o":"m 156 326 l 156 313 q 214 131 156 196 q 382 65 272 65 q 608 146 514 65 l 636 81 q 524 15 594 39 q 379 -10 453 -10 q 151 78 235 -10 q 68 315 68 167 q 108 511 68 426 q 224 643 149 596 q 399 690 299 690 q 598 615 525 690 q 671 394 671 540 q 667 326 671 363 l 156 326 m 403 621 q 238 560 300 621 q 161 389 176 500 l 593 389 q 546 562 597 503 q 403 621 494 621 m 226 940 l 636 940 l 631 869 l 219 869 l 226 940 m 250 1313 l 350 1313 l 469 1033 l 406 1033 l 250 1313 z "},"ę":{"ha":731,"x_min":68,"x_max":671,"o":"m 156 326 l 156 313 q 214 131 156 196 q 382 65 272 65 q 608 146 514 65 l 636 81 q 558 29 608 50 q 451 -41 481 -4 q 422 -118 422 -78 q 444 -181 422 -160 q 508 -203 467 -203 q 593 -176 549 -203 l 610 -235 q 559 -256 590 -247 q 497 -265 528 -265 q 388 -228 429 -265 q 347 -132 347 -192 q 403 -8 347 -57 q 379 -10 394 -10 q 151 78 235 -10 q 68 315 68 167 q 108 511 68 426 q 224 643 149 596 q 399 690 299 690 q 598 615 525 690 q 671 393 671 539 q 667 326 671 363 l 156 326 m 403 621 q 242 564 307 621 q 161 389 176 507 l 593 389 q 546 562 597 503 q 403 621 494 621 z "},"ẽ":{"ha":731,"x_min":68,"x_max":671,"o":"m 156 326 l 156 313 q 214 131 156 196 q 382 65 272 65 q 608 146 514 65 l 636 81 q 524 15 594 39 q 379 -10 453 -10 q 151 78 235 -10 q 68 315 68 167 q 108 511 68 426 q 224 643 149 596 q 399 690 299 690 q 598 615 525 690 q 671 394 671 540 q 667 326 671 363 l 156 326 m 403 621 q 238 560 300 621 q 161 389 176 500 l 593 389 q 546 562 597 503 q 403 621 494 621 m 204 835 q 241 943 207 906 q 331 981 275 981 q 385 969 360 981 q 446 935 411 957 q 492 908 475 917 q 526 900 510 900 q 577 921 558 900 q 599 976 596 942 l 653 976 q 614 868 649 906 q 525 831 579 831 q 470 842 496 831 q 410 876 444 854 q 365 902 383 893 q 331 911 347 911 q 280 890 299 911 q 258 835 261 869 l 204 835 z "},"ə":{"ha":731,"x_min":60,"x_max":664,"o":"m 353 690 q 581 602 497 690 q 664 365 664 514 q 624 169 664 254 q 513 38 585 85 q 346 -10 442 -10 q 135 66 210 -10 q 60 290 60 142 q 63 356 60 333 l 575 356 l 575 369 q 517 552 575 488 q 350 617 458 617 q 122 536 221 617 l 94 601 q 208 666 136 642 q 353 690 281 690 m 342 60 q 495 120 436 60 q 569 292 554 181 l 138 292 q 186 119 132 178 q 342 60 240 60 z "},"f":{"ha":438,"x_min":32,"x_max":504,"o":"m 256 674 l 453 674 l 449 606 l 251 606 l 203 0 l 118 0 l 165 606 l 32 606 l 38 674 l 171 674 l 174 710 q 251 908 183 843 q 451 979 318 972 l 503 982 l 504 913 l 439 908 q 309 858 351 903 q 260 719 267 813 l 256 674 z "},"g":{"ha":801,"x_min":69,"x_max":717,"o":"m 717 674 l 667 39 q 361 -260 644 -260 q 71 -167 194 -260 l 108 -100 q 234 -166 178 -147 q 363 -185 290 -185 q 583 35 567 -185 l 593 149 q 499 54 561 88 q 363 21 438 21 q 149 106 229 21 q 69 332 69 190 q 108 520 69 439 q 219 646 147 601 q 386 690 292 690 q 531 654 469 690 q 622 553 593 618 l 632 674 l 717 674 m 376 96 q 547 172 485 96 q 608 381 608 247 q 551 555 608 493 q 390 617 493 617 q 219 540 281 617 q 158 329 158 464 q 215 156 158 215 q 376 96 271 96 z "},"ğ":{"ha":801,"x_min":69,"x_max":717,"o":"m 717 674 l 667 39 q 361 -260 644 -260 q 71 -167 194 -260 l 108 -100 q 234 -166 178 -147 q 363 -185 290 -185 q 583 35 567 -185 l 593 149 q 499 54 561 88 q 363 21 438 21 q 149 106 229 21 q 69 332 69 190 q 108 520 69 439 q 219 646 147 601 q 386 690 292 690 q 531 654 469 690 q 622 553 593 618 l 632 674 l 717 674 m 376 96 q 547 172 485 96 q 608 381 608 247 q 551 555 608 493 q 390 617 493 617 q 219 540 281 617 q 158 329 158 464 q 215 156 158 215 q 376 96 271 96 m 440 810 q 312 851 368 810 q 232 976 256 892 l 297 1004 q 446 878 342 878 q 537 906 496 878 q 611 1004 578 935 l 674 978 q 576 849 638 889 q 440 810 515 810 z "},"ǧ":{"ha":801,"x_min":69,"x_max":717,"o":"m 717 674 l 667 39 q 361 -260 644 -260 q 71 -167 194 -260 l 108 -100 q 234 -166 178 -147 q 363 -185 290 -185 q 583 35 567 -185 l 593 149 q 499 54 561 88 q 363 21 438 21 q 149 106 229 21 q 69 332 69 190 q 108 520 69 439 q 219 646 147 601 q 386 690 292 690 q 531 654 469 690 q 622 553 593 618 l 632 674 l 717 674 m 376 96 q 547 172 485 96 q 608 381 608 247 q 551 555 608 493 q 390 617 493 617 q 219 540 281 617 q 158 329 158 464 q 215 156 158 215 q 376 96 271 96 m 650 1043 l 469 764 l 403 764 l 267 1043 l 351 1043 l 440 833 l 563 1043 l 650 1043 z "},"ĝ":{"ha":801,"x_min":69,"x_max":717,"o":"m 717 674 l 667 39 q 361 -260 644 -260 q 71 -167 194 -260 l 108 -100 q 234 -166 178 -147 q 363 -185 290 -185 q 583 35 567 -185 l 593 149 q 499 54 561 88 q 363 21 438 21 q 149 106 229 21 q 69 332 69 190 q 108 520 69 439 q 219 646 147 601 q 386 690 292 690 q 531 654 469 690 q 622 553 593 618 l 632 674 l 717 674 m 376 96 q 547 172 485 96 q 608 381 608 247 q 551 555 608 493 q 390 617 493 617 q 219 540 281 617 q 158 329 158 464 q 215 156 158 215 q 376 96 271 96 m 244 764 l 425 1043 l 492 1043 l 628 764 l 543 764 l 454 974 l 333 764 l 244 764 z "},"ģ":{"ha":801,"x_min":69,"x_max":717,"o":"m 717 674 l 667 39 q 361 -260 644 -260 q 71 -167 194 -260 l 108 -100 q 234 -166 178 -147 q 363 -185 290 -185 q 583 35 567 -185 l 593 149 q 499 54 561 88 q 363 21 438 21 q 149 106 229 21 q 69 332 69 190 q 108 520 69 439 q 219 646 147 601 q 386 690 292 690 q 531 654 469 690 q 622 553 593 618 l 632 674 l 717 674 m 376 96 q 547 172 485 96 q 608 381 608 247 q 551 555 608 493 q 390 617 493 617 q 219 540 281 617 q 158 329 158 464 q 215 156 158 215 q 376 96 271 96 m 510 1022 q 467 966 481 993 q 450 907 454 939 l 506 907 l 499 804 l 382 804 l 388 882 q 411 977 393 936 q 469 1056 429 1018 l 510 1022 z "},"ġ":{"ha":801,"x_min":69,"x_max":717,"o":"m 717 674 l 667 39 q 361 -260 644 -260 q 71 -167 194 -260 l 108 -100 q 234 -166 178 -147 q 363 -185 290 -185 q 583 35 567 -185 l 593 149 q 499 54 561 88 q 363 21 438 21 q 149 106 229 21 q 69 332 69 190 q 108 520 69 439 q 219 646 147 601 q 386 690 292 690 q 531 654 469 690 q 622 553 593 618 l 632 674 l 717 674 m 376 96 q 547 172 485 96 q 608 381 608 247 q 551 555 608 493 q 390 617 493 617 q 219 540 281 617 q 158 329 158 464 q 215 156 158 215 q 376 96 271 96 m 507 958 l 499 851 l 388 851 l 396 958 l 507 958 z "},"ḡ":{"ha":801,"x_min":69,"x_max":717,"o":"m 717 674 l 667 39 q 361 -260 644 -260 q 71 -167 194 -260 l 108 -100 q 234 -166 178 -147 q 363 -185 290 -185 q 583 35 567 -185 l 593 149 q 499 54 561 88 q 363 21 438 21 q 149 106 229 21 q 69 332 69 190 q 108 520 69 439 q 219 646 147 601 q 386 690 292 690 q 531 654 469 690 q 622 553 593 618 l 632 674 l 717 674 m 376 96 q 547 172 485 96 q 608 381 608 247 q 551 555 608 493 q 390 617 493 617 q 219 540 281 617 q 158 329 158 464 q 215 156 158 215 q 376 96 271 96 m 246 940 l 656 940 l 650 869 l 239 869 l 246 940 z "},"h":{"ha":779,"x_min":85,"x_max":678,"o":"m 446 690 q 618 633 558 690 q 678 464 678 576 q 676 426 678 439 l 643 0 l 558 0 l 592 421 q 593 453 593 432 q 432 615 593 615 q 269 556 329 615 q 200 390 208 496 l 169 0 l 85 0 l 163 979 l 247 979 l 214 567 q 309 658 249 626 q 446 690 369 690 z "},"ħ":{"ha":779,"x_min":15,"x_max":678,"o":"m 446 690 q 618 633 558 690 q 678 464 678 576 q 676 426 678 439 l 643 0 l 558 0 l 592 421 q 593 453 593 432 q 432 615 593 615 q 269 556 329 615 q 200 390 208 496 l 169 0 l 85 0 l 146 779 l 15 779 l 21 847 l 151 847 l 161 979 l 246 979 l 236 847 l 507 847 l 500 779 l 231 779 l 214 567 q 309 658 249 626 q 446 690 369 690 z "},"ḫ":{"ha":779,"x_min":85,"x_max":678,"o":"m 446 690 q 618 633 558 690 q 678 464 678 576 q 676 426 678 439 l 643 0 l 558 0 l 592 421 q 593 453 593 432 q 432 615 593 615 q 269 556 329 615 q 200 390 208 496 l 169 0 l 85 0 l 163 979 l 247 979 l 214 567 q 309 658 249 626 q 446 690 369 690 m 340 -287 q 212 -246 268 -287 q 132 -119 156 -204 l 197 -92 q 346 -218 242 -218 q 437 -190 396 -218 q 511 -92 478 -161 l 574 -118 q 476 -247 538 -207 q 340 -287 415 -287 z "},"ĥ":{"ha":779,"x_min":19,"x_max":678,"o":"m 446 690 q 618 633 558 690 q 678 464 678 576 q 676 426 678 439 l 643 0 l 558 0 l 592 421 q 593 453 593 432 q 432 615 593 615 q 269 556 329 615 q 200 390 208 496 l 169 0 l 85 0 l 163 979 l 247 979 l 214 567 q 309 658 249 626 q 446 690 369 690 m 19 1063 l 196 1271 l 260 1271 l 403 1063 l 318 1063 l 226 1213 l 107 1063 l 19 1063 z "},"ḥ":{"ha":779,"x_min":85,"x_max":678,"o":"m 446 690 q 618 633 558 690 q 678 464 678 576 q 676 426 678 439 l 643 0 l 558 0 l 592 421 q 593 453 593 432 q 432 615 593 615 q 269 556 329 615 q 200 390 208 496 l 169 0 l 85 0 l 163 979 l 247 979 l 214 567 q 309 658 249 626 q 446 690 369 690 m 407 -140 l 397 -247 l 289 -247 l 297 -140 l 407 -140 z "},"i":{"ha":308,"x_min":85,"x_max":258,"o":"m 138 674 l 222 674 l 169 0 l 85 0 l 138 674 m 258 958 l 250 851 l 139 851 l 147 958 l 258 958 z "},"ı":{"ha":308,"x_min":85,"x_max":222,"o":"m 138 674 l 222 674 l 169 0 l 85 0 l 138 674 z "},"í":{"ha":308,"x_min":85,"x_max":426,"o":"m 138 674 l 222 674 l 169 0 l 85 0 l 138 674 m 156 764 l 314 1043 l 426 1043 l 219 764 l 156 764 z "},"ĭ":{"ha":308,"x_min":-17,"x_max":425,"o":"m 138 674 l 222 674 l 169 0 l 85 0 l 138 674 m 192 810 q 63 851 119 810 q -17 976 7 892 l 49 1004 q 197 878 93 878 q 288 906 247 878 q 363 1004 329 935 l 425 978 q 328 849 389 889 q 192 810 267 810 z "},"î":{"ha":308,"x_min":-4,"x_max":379,"o":"m 138 674 l 222 674 l 169 0 l 85 0 l 138 674 m -4 764 l 176 1043 l 243 1043 l 379 764 l 294 764 l 206 974 l 85 764 l -4 764 z "},"ȉ":{"ha":308,"x_min":-3,"x_max":292,"o":"m 138 674 l 222 674 l 169 0 l 85 0 l 138 674 m -3 1043 l 83 1043 l 131 764 l 83 764 l -3 1043 m 158 1043 l 244 1043 l 292 764 l 244 764 l 158 1043 z "},"ï":{"ha":308,"x_min":28,"x_max":371,"o":"m 138 674 l 222 674 l 169 0 l 85 0 l 138 674 m 140 956 l 132 854 l 28 854 l 36 956 l 140 956 m 371 956 l 363 854 l 258 854 l 267 956 l 371 956 z "},"ḯ":{"ha":308,"x_min":28,"x_max":447,"o":"m 138 674 l 222 674 l 169 0 l 85 0 l 138 674 m 140 956 l 132 854 l 28 854 l 36 956 l 140 956 m 371 956 l 363 854 l 258 854 l 267 956 l 371 956 m 176 1033 l 335 1313 l 447 1313 l 240 1033 l 176 1033 z "},"ị":{"ha":308,"x_min":53,"x_max":258,"o":"m 138 674 l 222 674 l 169 0 l 85 0 l 138 674 m 258 958 l 250 851 l 139 851 l 147 958 l 258 958 m 171 -140 l 161 -247 l 53 -247 l 61 -140 l 171 -140 z "},"ì":{"ha":308,"x_min":0,"x_max":222,"o":"m 138 674 l 222 674 l 169 0 l 85 0 l 138 674 m 0 1043 l 100 1043 l 219 764 l 156 764 l 0 1043 z "},"ỉ":{"ha":308,"x_min":85,"x_max":343,"o":"m 138 674 l 222 674 l 169 0 l 85 0 l 138 674 m 222 764 l 158 764 l 161 801 q 180 851 164 831 q 224 897 196 872 q 254 928 244 915 q 264 953 264 940 q 249 977 264 968 q 207 986 235 986 q 121 969 175 986 l 106 1028 q 217 1049 153 1049 q 308 1025 274 1049 q 343 961 343 1001 q 328 911 343 931 q 281 865 313 892 q 239 826 253 843 q 224 786 225 810 l 222 764 z "},"ȋ":{"ha":308,"x_min":-28,"x_max":414,"o":"m 138 674 l 222 674 l 169 0 l 85 0 l 138 674 m 206 1003 q 334 961 278 1003 q 414 835 390 919 l 349 807 q 288 904 325 875 q 201 933 251 933 q 110 905 151 933 q 35 807 68 876 l -28 833 q 69 963 8 922 q 206 1003 131 1003 z "},"ī":{"ha":308,"x_min":-10,"x_max":407,"o":"m 138 674 l 222 674 l 169 0 l 85 0 l 138 674 m -3 940 l 407 940 l 401 869 l -10 869 l -3 940 z "},"į":{"ha":308,"x_min":-47,"x_max":258,"o":"m 258 958 l 250 851 l 138 851 l 147 958 l 258 958 m 164 0 q 62 -33 94 0 q 29 -115 29 -65 q 51 -181 29 -158 q 114 -203 72 -203 q 199 -176 154 -203 l 217 -235 q 165 -257 196 -249 q 104 -265 135 -265 q -6 -228 35 -265 q -47 -128 -47 -190 q -12 -22 -47 -67 q 89 44 22 24 l 138 674 l 222 674 l 169 0 l 164 0 z "},"ĩ":{"ha":308,"x_min":-25,"x_max":424,"o":"m 138 674 l 222 674 l 169 0 l 85 0 l 138 674 m -25 835 q 12 943 -22 906 q 101 981 46 981 q 156 969 131 981 q 217 935 182 957 q 263 908 246 917 q 297 900 281 900 q 348 921 329 900 q 369 976 367 942 l 424 976 q 385 868 419 906 q 296 831 350 831 q 241 842 267 831 q 181 876 215 854 q 136 902 154 893 q 101 911 118 911 q 51 890 69 911 q 29 835 32 869 l -25 835 z "},"j":{"ha":308,"x_min":-146,"x_max":258,"o":"m 169 1 q 99 -183 160 -122 q -82 -250 39 -243 l -143 -254 l -146 -186 l -85 -182 q 38 -135 -3 -175 q 83 -10 78 -94 l 138 674 l 222 674 l 169 1 m 258 958 l 250 851 l 139 851 l 147 958 l 258 958 z "},"ȷ":{"ha":308,"x_min":-146,"x_max":222,"o":"m 169 1 q 99 -183 160 -122 q -82 -250 39 -243 l -143 -254 l -146 -186 l -85 -182 q 38 -135 -3 -175 q 83 -10 78 -94 l 138 674 l 222 674 l 169 1 z "},"ĵ":{"ha":308,"x_min":-146,"x_max":379,"o":"m 169 1 q 99 -183 160 -122 q -82 -250 39 -243 l -143 -254 l -146 -186 l -85 -182 q 38 -135 -3 -175 q 83 -10 78 -94 l 138 674 l 222 674 l 169 1 m -4 764 l 176 1043 l 243 1043 l 379 764 l 294 764 l 206 974 l 85 764 l -4 764 z "},"k":{"ha":672,"x_min":85,"x_max":668,"o":"m 294 349 l 651 0 l 542 0 l 196 333 l 169 0 l 85 0 l 163 979 l 247 979 l 199 361 l 554 674 l 668 674 l 294 349 z "},"ķ":{"ha":672,"x_min":85,"x_max":668,"o":"m 294 349 l 651 0 l 542 0 l 196 333 l 169 0 l 85 0 l 163 979 l 247 979 l 199 361 l 554 674 l 668 674 l 294 349 m 360 -103 l 354 -181 q 331 -276 349 -235 q 272 -354 313 -317 l 232 -321 q 275 -264 263 -290 q 290 -204 288 -237 l 236 -204 l 243 -103 l 360 -103 z "},"ĸ":{"ha":672,"x_min":85,"x_max":668,"o":"m 294 349 l 651 0 l 542 0 l 196 333 l 169 0 l 85 0 l 138 674 l 222 674 l 197 361 l 554 674 l 668 674 l 294 349 z "},"l":{"ha":308,"x_min":85,"x_max":247,"o":"m 163 979 l 247 979 l 169 0 l 85 0 l 163 979 z "},"ĺ":{"ha":308,"x_min":85,"x_max":442,"o":"m 163 979 l 247 979 l 169 0 l 85 0 l 163 979 m 179 1063 l 332 1271 l 442 1271 l 243 1063 l 179 1063 z "},"ľ":{"ha":308,"x_min":85,"x_max":383,"o":"m 163 979 l 247 979 l 169 0 l 85 0 l 163 979 m 279 717 l 299 979 l 383 979 l 328 717 l 279 717 z "},"ļ":{"ha":308,"x_min":50,"x_max":247,"o":"m 163 979 l 247 979 l 169 0 l 85 0 l 163 979 m 178 -103 l 172 -181 q 149 -276 167 -235 q 90 -354 131 -317 l 50 -321 q 93 -264 81 -290 q 108 -204 106 -237 l 54 -204 l 61 -103 l 178 -103 z "},"ŀ":{"ha":318,"x_min":85,"x_max":376,"o":"m 163 979 l 247 979 l 169 0 l 85 0 l 163 979 m 376 546 l 368 435 l 250 435 l 258 546 l 376 546 z "},"ḷ":{"ha":308,"x_min":54,"x_max":247,"o":"m 163 979 l 247 979 l 169 0 l 85 0 l 163 979 m 172 -140 l 163 -247 l 54 -247 l 63 -140 l 172 -140 z "},"ǉ":{"ha":617,"x_min":85,"x_max":567,"o":"m 163 979 l 247 979 l 169 0 l 85 0 l 163 979 m 478 1 q 408 -183 468 -122 q 226 -250 347 -243 l 165 -254 l 163 -186 l 224 -182 q 346 -135 306 -175 q 392 -10 386 -94 l 446 674 l 531 674 l 478 1 m 567 958 l 558 851 l 447 851 l 456 958 l 567 958 z "},"ḻ":{"ha":308,"x_min":-96,"x_max":321,"o":"m 163 979 l 247 979 l 169 0 l 85 0 l 163 979 m -90 -158 l 321 -158 l 315 -229 l -96 -229 l -90 -158 z "},"ł":{"ha":365,"x_min":0,"x_max":390,"o":"m 236 478 l 199 0 l 114 0 l 147 429 l 32 365 l 0 428 l 154 513 l 190 979 l 275 979 l 243 563 l 358 626 l 390 563 l 236 478 z "},"m":{"ha":1171,"x_min":85,"x_max":1071,"o":"m 860 690 q 1017 633 964 690 q 1071 467 1071 576 q 1069 426 1071 440 l 1036 0 l 951 0 l 985 421 q 986 458 986 435 q 951 577 986 539 q 843 615 917 615 q 696 556 750 615 q 633 389 642 497 l 603 0 l 518 0 l 551 421 q 553 458 553 435 q 518 577 553 539 q 410 615 483 615 q 263 556 317 615 q 200 389 208 497 l 169 0 l 85 0 l 138 674 l 221 674 l 213 567 q 426 690 279 690 q 628 561 588 690 q 722 656 661 622 q 860 690 783 690 z "},"ṃ":{"ha":1171,"x_min":85,"x_max":1071,"o":"m 860 690 q 1017 633 964 690 q 1071 467 1071 576 q 1069 426 1071 440 l 1036 0 l 951 0 l 985 421 q 986 458 986 435 q 951 577 986 539 q 843 615 917 615 q 696 556 750 615 q 633 389 642 497 l 603 0 l 518 0 l 551 421 q 553 458 553 435 q 518 577 553 539 q 410 615 483 615 q 263 556 317 615 q 200 389 208 497 l 169 0 l 85 0 l 138 674 l 221 674 l 213 567 q 426 690 279 690 q 628 561 588 690 q 722 656 661 622 q 860 690 783 690 m 606 -140 l 596 -247 l 488 -247 l 496 -140 l 606 -140 z "},"n":{"ha":779,"x_min":85,"x_max":678,"o":"m 446 690 q 618 633 558 690 q 678 464 678 576 q 676 426 678 439 l 643 0 l 558 0 l 592 421 q 593 453 593 432 q 432 615 593 615 q 269 556 329 615 q 200 390 208 496 l 169 0 l 85 0 l 138 674 l 221 674 l 213 564 q 308 657 247 624 q 446 690 368 690 z "},"ń":{"ha":779,"x_min":85,"x_max":678,"o":"m 446 690 q 618 633 558 690 q 678 464 678 576 q 676 426 678 439 l 643 0 l 558 0 l 592 421 q 593 453 593 432 q 432 615 593 615 q 269 556 329 615 q 200 390 208 496 l 169 0 l 85 0 l 138 674 l 221 674 l 213 564 q 308 657 247 624 q 446 690 368 690 m 390 764 l 549 1043 l 661 1043 l 454 764 l 390 764 z "},"ŉ":{"ha":779,"x_min":85,"x_max":678,"o":"m 318 1044 l 313 967 q 290 872 308 914 q 232 793 272 831 l 190 826 q 233 883 219 856 q 249 942 246 910 l 194 942 l 203 1044 l 318 1044 m 446 690 q 618 633 558 690 q 678 464 678 576 q 676 426 678 439 l 643 0 l 558 0 l 592 421 q 593 453 593 432 q 432 615 593 615 q 269 556 329 615 q 200 390 208 496 l 169 0 l 85 0 l 138 674 l 221 674 l 213 564 q 308 657 247 624 q 446 690 368 690 z "},"ň":{"ha":779,"x_min":85,"x_max":678,"o":"m 446 690 q 618 633 558 690 q 678 464 678 576 q 676 426 678 439 l 643 0 l 558 0 l 592 421 q 593 453 593 432 q 432 615 593 615 q 269 556 329 615 q 200 390 208 496 l 169 0 l 85 0 l 138 674 l 221 674 l 213 564 q 308 657 247 624 q 446 690 368 690 m 636 1043 l 456 764 l 389 764 l 253 1043 l 338 1043 l 426 833 l 549 1043 l 636 1043 z "},"ņ":{"ha":779,"x_min":85,"x_max":678,"o":"m 446 690 q 618 633 558 690 q 678 464 678 576 q 676 426 678 439 l 643 0 l 558 0 l 592 421 q 593 453 593 432 q 432 615 593 615 q 269 556 329 615 q 200 390 208 496 l 169 0 l 85 0 l 138 674 l 221 674 l 213 564 q 308 657 247 624 q 446 690 368 690 m 413 -103 l 407 -181 q 383 -276 401 -235 q 325 -354 365 -317 l 285 -321 q 328 -264 315 -290 q 343 -204 340 -237 l 289 -204 l 296 -103 l 413 -103 z "},"ṅ":{"ha":779,"x_min":85,"x_max":678,"o":"m 446 690 q 618 633 558 690 q 678 464 678 576 q 676 426 678 439 l 643 0 l 558 0 l 592 421 q 593 453 593 432 q 432 615 593 615 q 269 556 329 615 q 200 390 208 496 l 169 0 l 85 0 l 138 674 l 221 674 l 213 564 q 308 657 247 624 q 446 690 368 690 m 493 958 l 485 851 l 374 851 l 382 958 l 493 958 z "},"ṇ":{"ha":779,"x_min":85,"x_max":678,"o":"m 446 690 q 618 633 558 690 q 678 464 678 576 q 676 426 678 439 l 643 0 l 558 0 l 592 421 q 593 453 593 432 q 432 615 593 615 q 269 556 329 615 q 200 390 208 496 l 169 0 l 85 0 l 138 674 l 221 674 l 213 564 q 308 657 247 624 q 446 690 368 690 m 407 -140 l 397 -247 l 289 -247 l 297 -140 l 407 -140 z "},"ŋ":{"ha":779,"x_min":85,"x_max":678,"o":"m 446 690 q 619 633 560 690 q 678 464 678 575 q 676 426 678 439 l 644 1 q 571 -179 633 -117 q 392 -250 508 -242 l 331 -254 l 328 -186 l 389 -182 q 558 -6 547 -171 l 592 421 q 593 453 593 432 q 553 575 593 535 q 432 615 514 615 q 269 556 329 615 q 200 390 208 497 l 169 0 l 85 0 l 138 674 l 221 674 l 213 564 q 307 657 246 624 q 446 690 368 690 z "},"ǌ":{"ha":1088,"x_min":85,"x_max":1038,"o":"m 446 690 q 618 633 558 690 q 678 464 678 576 q 676 426 678 439 l 643 0 l 558 0 l 592 421 q 593 453 593 432 q 432 615 593 615 q 269 556 329 615 q 200 390 208 496 l 169 0 l 85 0 l 138 674 l 221 674 l 213 564 q 308 657 247 624 q 446 690 368 690 m 949 1 q 878 -183 939 -122 q 697 -250 818 -243 l 636 -254 l 633 -186 l 694 -182 q 817 -135 776 -175 q 863 -10 857 -94 l 917 674 l 1001 674 l 949 1 m 1038 958 l 1029 851 l 918 851 l 926 958 l 1038 958 z "},"ṉ":{"ha":779,"x_min":85,"x_max":678,"o":"m 446 690 q 618 633 558 690 q 678 464 678 576 q 676 426 678 439 l 643 0 l 558 0 l 592 421 q 593 453 593 432 q 432 615 593 615 q 269 556 329 615 q 200 390 208 496 l 169 0 l 85 0 l 138 674 l 221 674 l 213 564 q 308 657 247 624 q 446 690 368 690 m 144 -158 l 556 -158 l 550 -229 l 139 -229 l 144 -158 z "},"ñ":{"ha":779,"x_min":85,"x_max":678,"o":"m 446 690 q 618 633 558 690 q 678 464 678 576 q 676 426 678 439 l 643 0 l 558 0 l 592 421 q 593 453 593 432 q 432 615 593 615 q 269 556 329 615 q 200 390 208 496 l 169 0 l 85 0 l 138 674 l 221 674 l 213 564 q 308 657 247 624 q 446 690 368 690 m 210 835 q 247 943 213 906 q 336 981 281 981 q 391 969 365 981 q 451 935 417 957 q 498 908 481 917 q 532 900 515 900 q 583 921 564 900 q 604 976 601 942 l 658 976 q 619 868 654 906 q 531 831 585 831 q 476 842 501 831 q 415 876 450 854 q 371 902 389 893 q 336 911 353 911 q 285 890 304 911 q 264 835 267 869 l 210 835 z "},"o":{"ha":757,"x_min":68,"x_max":690,"o":"m 369 -10 q 210 31 279 -10 q 105 144 142 71 q 68 315 68 218 q 108 513 68 428 q 220 644 147 597 q 388 690 293 690 q 548 650 479 690 q 653 536 617 610 q 690 364 690 463 q 651 168 690 253 q 538 37 611 83 q 369 -10 465 -10 m 374 65 q 542 147 481 65 q 603 368 603 228 q 546 551 603 486 q 388 617 489 617 q 218 535 279 617 q 157 311 157 454 q 213 128 157 192 q 374 65 268 65 z "},"ó":{"ha":757,"x_min":68,"x_max":690,"o":"m 369 -10 q 210 31 279 -10 q 105 144 142 71 q 68 315 68 218 q 108 513 68 428 q 220 644 147 597 q 388 690 293 690 q 548 650 479 690 q 653 536 617 610 q 690 364 690 463 q 651 168 690 253 q 538 37 611 83 q 369 -10 465 -10 m 374 65 q 542 147 481 65 q 603 368 603 228 q 546 551 603 486 q 388 617 489 617 q 218 535 279 617 q 157 311 157 454 q 213 128 157 192 q 374 65 268 65 m 381 764 l 539 1043 l 651 1043 l 444 764 l 381 764 z "},"ŏ":{"ha":757,"x_min":68,"x_max":690,"o":"m 369 -10 q 210 31 279 -10 q 105 144 142 71 q 68 315 68 218 q 108 513 68 428 q 220 644 147 597 q 388 690 293 690 q 548 650 479 690 q 653 536 617 610 q 690 364 690 463 q 651 168 690 253 q 538 37 611 83 q 369 -10 465 -10 m 374 65 q 542 147 481 65 q 603 368 603 228 q 546 551 603 486 q 388 617 489 617 q 218 535 279 617 q 157 311 157 454 q 213 128 157 192 q 374 65 268 65 m 417 810 q 288 851 344 810 q 208 976 232 892 l 274 1004 q 422 878 318 878 q 513 906 472 878 q 588 1004 554 935 l 650 978 q 553 849 614 889 q 417 810 492 810 z "},"ô":{"ha":757,"x_min":68,"x_max":690,"o":"m 369 -10 q 210 31 279 -10 q 105 144 142 71 q 68 315 68 218 q 108 513 68 428 q 220 644 147 597 q 388 690 293 690 q 548 650 479 690 q 653 536 617 610 q 690 364 690 463 q 651 168 690 253 q 538 37 611 83 q 369 -10 465 -10 m 374 65 q 542 147 481 65 q 603 368 603 228 q 546 551 603 486 q 388 617 489 617 q 218 535 279 617 q 157 311 157 454 q 213 128 157 192 q 374 65 268 65 m 221 764 l 401 1043 l 468 1043 l 604 764 l 519 764 l 431 974 l 310 764 l 221 764 z "},"ố":{"ha":757,"x_min":68,"x_max":792,"o":"m 369 -10 q 210 31 279 -10 q 105 144 142 71 q 68 315 68 218 q 108 513 68 428 q 220 644 147 597 q 388 690 293 690 q 548 650 479 690 q 653 536 617 610 q 690 364 690 463 q 651 168 690 253 q 538 37 611 83 q 369 -10 465 -10 m 374 65 q 542 147 481 65 q 603 368 603 228 q 546 551 603 486 q 388 617 489 617 q 218 535 279 617 q 157 311 157 454 q 213 128 157 192 q 374 65 268 65 m 538 906 l 685 1103 l 792 1103 l 596 906 l 538 906 m 221 764 l 397 972 l 461 972 l 604 764 l 519 764 l 428 914 l 308 764 l 221 764 z "},"ộ":{"ha":757,"x_min":68,"x_max":690,"o":"m 369 -10 q 210 31 279 -10 q 105 144 142 71 q 68 315 68 218 q 108 513 68 428 q 220 644 147 597 q 388 690 293 690 q 548 650 479 690 q 653 536 617 610 q 690 364 690 463 q 651 168 690 253 q 538 37 611 83 q 369 -10 465 -10 m 374 65 q 542 147 481 65 q 603 368 603 228 q 546 551 603 486 q 388 617 489 617 q 218 535 279 617 q 157 311 157 454 q 213 128 157 192 q 374 65 268 65 m 397 -140 l 388 -247 l 279 -247 l 288 -140 l 397 -140 m 221 764 l 401 1043 l 468 1043 l 604 764 l 519 764 l 431 974 l 310 764 l 221 764 z "},"ồ":{"ha":757,"x_min":68,"x_max":690,"o":"m 369 -10 q 210 31 279 -10 q 105 144 142 71 q 68 315 68 218 q 108 513 68 428 q 220 644 147 597 q 388 690 293 690 q 548 650 479 690 q 653 536 617 610 q 690 364 690 463 q 651 168 690 253 q 538 37 611 83 q 369 -10 465 -10 m 374 65 q 542 147 481 65 q 603 368 603 228 q 546 551 603 486 q 388 617 489 617 q 218 535 279 617 q 157 311 157 454 q 213 128 157 192 q 374 65 268 65 m 464 1103 l 560 1103 l 656 906 l 597 906 l 464 1103 m 397 972 l 461 972 l 604 764 l 519 764 l 428 914 l 308 764 l 221 764 l 397 972 z "},"ổ":{"ha":757,"x_min":68,"x_max":718,"o":"m 369 -10 q 210 31 279 -10 q 105 144 142 71 q 68 315 68 218 q 108 513 68 428 q 220 644 147 597 q 388 690 293 690 q 548 650 479 690 q 653 536 617 610 q 690 364 690 463 q 651 168 690 253 q 538 37 611 83 q 369 -10 465 -10 m 374 65 q 542 147 481 65 q 603 368 603 228 q 546 551 603 486 q 388 617 489 617 q 218 535 279 617 q 157 311 157 454 q 213 128 157 192 q 374 65 268 65 m 538 928 q 556 966 539 953 q 601 990 572 979 q 631 1006 621 999 q 640 1022 640 1013 q 625 1040 640 1033 q 585 1047 610 1047 q 494 1031 544 1047 l 481 1088 q 590 1110 531 1110 q 684 1088 650 1110 q 718 1031 718 1065 q 700 986 718 1001 q 650 957 682 971 q 616 939 628 947 q 603 918 604 931 l 601 906 l 536 906 l 538 928 m 397 972 l 461 972 l 604 764 l 519 764 l 428 914 l 308 764 l 221 764 l 397 972 z "},"ỗ":{"ha":757,"x_min":68,"x_max":690,"o":"m 369 -10 q 210 31 279 -10 q 105 144 142 71 q 68 315 68 218 q 108 513 68 428 q 220 644 147 597 q 388 690 293 690 q 548 650 479 690 q 653 536 617 610 q 690 364 690 463 q 651 168 690 253 q 538 37 611 83 q 369 -10 465 -10 m 374 65 q 542 147 481 65 q 603 368 603 228 q 546 551 603 486 q 388 617 489 617 q 218 535 279 617 q 157 311 157 454 q 213 128 157 192 q 374 65 268 65 m 213 992 q 250 1089 215 1053 q 339 1125 285 1125 q 394 1116 368 1125 q 456 1089 421 1107 q 500 1068 482 1075 q 535 1061 518 1061 q 585 1081 565 1061 q 606 1129 604 1101 l 660 1129 q 623 1031 658 1067 q 533 994 588 994 q 478 1004 504 994 q 417 1031 451 1014 q 372 1051 390 1044 q 338 1058 354 1058 q 287 1039 306 1058 q 267 992 268 1019 l 213 992 m 397 972 l 461 972 l 604 764 l 519 764 l 428 914 l 308 764 l 221 764 l 397 972 z "},"ȍ":{"ha":757,"x_min":68,"x_max":690,"o":"m 369 -10 q 210 31 279 -10 q 105 144 142 71 q 68 315 68 218 q 108 513 68 428 q 220 644 147 597 q 388 690 293 690 q 548 650 479 690 q 653 536 617 610 q 690 364 690 463 q 651 168 690 253 q 538 37 611 83 q 369 -10 465 -10 m 374 65 q 542 147 481 65 q 603 368 603 228 q 546 551 603 486 q 388 617 489 617 q 218 535 279 617 q 157 311 157 454 q 213 128 157 192 q 374 65 268 65 m 222 1043 l 308 1043 l 356 764 l 308 764 l 222 1043 m 383 1043 l 469 1043 l 517 764 l 469 764 l 383 1043 z "},"ö":{"ha":757,"x_min":68,"x_max":690,"o":"m 369 -10 q 210 31 279 -10 q 105 144 142 71 q 68 315 68 218 q 108 513 68 428 q 220 644 147 597 q 388 690 293 690 q 548 650 479 690 q 653 536 617 610 q 690 364 690 463 q 651 168 690 253 q 538 37 611 83 q 369 -10 465 -10 m 374 65 q 542 147 481 65 q 603 368 603 228 q 546 551 603 486 q 388 617 489 617 q 218 535 279 617 q 157 311 157 454 q 213 128 157 192 q 374 65 268 65 m 365 956 l 357 854 l 253 854 l 261 956 l 365 956 m 596 956 l 588 854 l 483 854 l 492 956 l 596 956 z "},"ȫ":{"ha":757,"x_min":68,"x_max":690,"o":"m 369 -10 q 210 31 279 -10 q 105 144 142 71 q 68 315 68 218 q 108 513 68 428 q 220 644 147 597 q 388 690 293 690 q 548 650 479 690 q 653 536 617 610 q 690 364 690 463 q 651 168 690 253 q 538 37 611 83 q 369 -10 465 -10 m 374 65 q 542 147 481 65 q 603 368 603 228 q 546 551 603 486 q 388 617 489 617 q 218 535 279 617 q 157 311 157 454 q 213 128 157 192 q 374 65 268 65 m 365 956 l 357 854 l 253 854 l 261 956 l 365 956 m 596 956 l 588 854 l 483 854 l 492 956 l 596 956 m 243 1210 l 653 1210 l 647 1139 l 236 1139 l 243 1210 z "},"ȱ":{"ha":757,"x_min":68,"x_max":690,"o":"m 369 -10 q 210 31 279 -10 q 105 144 142 71 q 68 315 68 218 q 108 513 68 428 q 220 644 147 597 q 388 690 293 690 q 548 650 479 690 q 653 536 617 610 q 690 364 690 463 q 651 168 690 253 q 538 37 611 83 q 369 -10 465 -10 m 374 65 q 542 147 481 65 q 603 368 603 228 q 546 551 603 486 q 388 617 489 617 q 218 535 279 617 q 157 311 157 454 q 213 128 157 192 q 374 65 268 65 m 483 958 l 475 851 l 364 851 l 372 958 l 483 958 m 243 1210 l 653 1210 l 647 1139 l 236 1139 l 243 1210 z "},"ọ":{"ha":757,"x_min":68,"x_max":690,"o":"m 369 -10 q 210 31 279 -10 q 105 144 142 71 q 68 315 68 218 q 108 513 68 428 q 220 644 147 597 q 388 690 293 690 q 548 650 479 690 q 653 536 617 610 q 690 364 690 463 q 651 168 690 253 q 538 37 611 83 q 369 -10 465 -10 m 374 65 q 542 147 481 65 q 603 368 603 228 q 546 551 603 486 q 388 617 489 617 q 218 535 279 617 q 157 311 157 454 q 213 128 157 192 q 374 65 268 65 m 397 -140 l 388 -247 l 279 -247 l 288 -140 l 397 -140 z "},"ò":{"ha":757,"x_min":68,"x_max":690,"o":"m 369 -10 q 210 31 279 -10 q 105 144 142 71 q 68 315 68 218 q 108 513 68 428 q 220 644 147 597 q 388 690 293 690 q 548 650 479 690 q 653 536 617 610 q 690 364 690 463 q 651 168 690 253 q 538 37 611 83 q 369 -10 465 -10 m 374 65 q 542 147 481 65 q 603 368 603 228 q 546 551 603 486 q 388 617 489 617 q 218 535 279 617 q 157 311 157 454 q 213 128 157 192 q 374 65 268 65 m 225 1043 l 325 1043 l 444 764 l 381 764 l 225 1043 z "},"ỏ":{"ha":757,"x_min":68,"x_max":690,"o":"m 369 -10 q 210 31 279 -10 q 105 144 142 71 q 68 315 68 218 q 108 513 68 428 q 220 644 147 597 q 388 690 293 690 q 548 650 479 690 q 653 536 617 610 q 690 364 690 463 q 651 168 690 253 q 538 37 611 83 q 369 -10 465 -10 m 374 65 q 542 147 481 65 q 603 368 603 228 q 546 551 603 486 q 388 617 489 617 q 218 535 279 617 q 157 311 157 454 q 213 128 157 192 q 374 65 268 65 m 447 764 l 383 764 l 386 801 q 405 851 389 831 q 449 897 421 872 q 479 928 469 915 q 489 953 489 940 q 474 977 489 968 q 432 986 460 986 q 346 969 400 986 l 331 1028 q 442 1049 378 1049 q 533 1025 499 1049 q 568 961 568 1001 q 553 911 568 931 q 506 865 538 892 q 464 826 478 843 q 449 786 450 810 l 447 764 z "},"ơ":{"ha":757,"x_min":68,"x_max":726,"o":"m 724 824 q 681 697 718 747 q 578 629 644 647 q 662 515 633 586 q 690 364 690 444 q 651 168 690 253 q 538 37 611 83 q 369 -10 465 -10 q 210 31 279 -10 q 105 144 142 71 q 68 315 68 218 q 108 513 68 428 q 220 644 147 597 q 389 690 293 690 q 468 685 426 690 q 503 682 496 682 q 607 719 572 682 q 647 838 642 756 l 649 856 l 726 856 l 724 824 m 603 368 q 546 551 603 486 q 388 617 489 617 q 218 535 279 617 q 157 311 157 454 q 213 128 157 192 q 374 65 268 65 q 542 147 481 65 q 603 368 603 228 z "},"ớ":{"ha":757,"x_min":68,"x_max":726,"o":"m 724 824 q 681 697 718 747 q 578 629 644 647 q 662 515 633 586 q 690 364 690 444 q 651 168 690 253 q 538 37 611 83 q 369 -10 465 -10 q 210 31 279 -10 q 105 144 142 71 q 68 315 68 218 q 108 513 68 428 q 220 644 147 597 q 389 690 293 690 q 468 685 426 690 q 503 682 496 682 q 607 719 572 682 q 647 838 642 756 l 649 856 l 726 856 l 724 824 m 603 368 q 546 551 603 486 q 388 617 489 617 q 218 535 279 617 q 157 311 157 454 q 213 128 157 192 q 374 65 268 65 q 542 147 481 65 q 603 368 603 228 m 381 764 l 539 1043 l 651 1043 l 444 764 l 381 764 z "},"ợ":{"ha":757,"x_min":68,"x_max":726,"o":"m 724 824 q 681 697 718 747 q 578 629 644 647 q 662 515 633 586 q 690 364 690 444 q 651 168 690 253 q 538 37 611 83 q 369 -10 465 -10 q 210 31 279 -10 q 105 144 142 71 q 68 315 68 218 q 108 513 68 428 q 220 644 147 597 q 389 690 293 690 q 468 685 426 690 q 503 682 496 682 q 607 719 572 682 q 647 838 642 756 l 649 856 l 726 856 l 724 824 m 603 368 q 546 551 603 486 q 388 617 489 617 q 218 535 279 617 q 157 311 157 454 q 213 128 157 192 q 374 65 268 65 q 542 147 481 65 q 603 368 603 228 m 397 -140 l 388 -247 l 279 -247 l 288 -140 l 397 -140 z "},"ờ":{"ha":757,"x_min":68,"x_max":726,"o":"m 724 824 q 681 697 718 747 q 578 629 644 647 q 662 515 633 586 q 690 364 690 444 q 651 168 690 253 q 538 37 611 83 q 369 -10 465 -10 q 210 31 279 -10 q 105 144 142 71 q 68 315 68 218 q 108 513 68 428 q 220 644 147 597 q 389 690 293 690 q 468 685 426 690 q 503 682 496 682 q 607 719 572 682 q 647 838 642 756 l 649 856 l 726 856 l 724 824 m 603 368 q 546 551 603 486 q 388 617 489 617 q 218 535 279 617 q 157 311 157 454 q 213 128 157 192 q 374 65 268 65 q 542 147 481 65 q 603 368 603 228 m 225 1043 l 325 1043 l 444 764 l 381 764 l 225 1043 z "},"ở":{"ha":757,"x_min":68,"x_max":726,"o":"m 724 824 q 681 697 718 747 q 578 629 644 647 q 662 515 633 586 q 690 364 690 444 q 651 168 690 253 q 538 37 611 83 q 369 -10 465 -10 q 210 31 279 -10 q 105 144 142 71 q 68 315 68 218 q 108 513 68 428 q 220 644 147 597 q 389 690 293 690 q 468 685 426 690 q 503 682 496 682 q 607 719 572 682 q 647 838 642 756 l 649 856 l 726 856 l 724 824 m 603 368 q 546 551 603 486 q 388 617 489 617 q 218 535 279 617 q 157 311 157 454 q 213 128 157 192 q 374 65 268 65 q 542 147 481 65 q 603 368 603 228 m 447 764 l 383 764 l 386 801 q 405 851 389 831 q 449 897 421 872 q 479 928 469 915 q 489 953 489 940 q 474 977 489 968 q 432 986 460 986 q 346 969 400 986 l 331 1028 q 442 1049 378 1049 q 533 1025 499 1049 q 568 961 568 1001 q 553 911 568 931 q 506 865 538 892 q 464 826 478 843 q 449 786 450 810 l 447 764 z "},"ỡ":{"ha":757,"x_min":68,"x_max":726,"o":"m 724 824 q 681 697 718 747 q 578 629 644 647 q 662 515 633 586 q 690 364 690 444 q 651 168 690 253 q 538 37 611 83 q 369 -10 465 -10 q 210 31 279 -10 q 105 144 142 71 q 68 315 68 218 q 108 513 68 428 q 220 644 147 597 q 389 690 293 690 q 468 685 426 690 q 503 682 496 682 q 607 719 572 682 q 647 838 642 756 l 649 856 l 726 856 l 724 824 m 603 368 q 546 551 603 486 q 388 617 489 617 q 218 535 279 617 q 157 311 157 454 q 213 128 157 192 q 374 65 268 65 q 542 147 481 65 q 603 368 603 228 m 200 835 q 237 943 203 906 q 326 981 271 981 q 381 969 356 981 q 442 935 407 957 q 488 908 471 917 q 522 900 506 900 q 573 921 554 900 q 594 976 592 942 l 649 976 q 610 868 644 906 q 521 831 575 831 q 466 842 492 831 q 406 876 440 854 q 361 902 379 893 q 326 911 343 911 q 276 890 294 911 q 254 835 257 869 l 200 835 z "},"ő":{"ha":757,"x_min":68,"x_max":690,"o":"m 369 -10 q 210 31 279 -10 q 105 144 142 71 q 68 315 68 218 q 108 513 68 428 q 220 644 147 597 q 388 690 293 690 q 548 650 479 690 q 653 536 617 610 q 690 364 690 463 q 651 168 690 253 q 538 37 611 83 q 369 -10 465 -10 m 374 65 q 542 147 481 65 q 603 368 603 228 q 546 551 603 486 q 388 617 489 617 q 218 535 279 617 q 157 311 157 454 q 213 128 157 192 q 374 65 268 65 m 308 764 l 397 1043 l 489 1043 l 356 764 l 308 764 m 469 764 l 558 1043 l 650 1043 l 517 764 l 469 764 z "},"ȏ":{"ha":757,"x_min":68,"x_max":690,"o":"m 369 -10 q 210 31 279 -10 q 105 144 142 71 q 68 315 68 218 q 108 513 68 428 q 220 644 147 597 q 388 690 293 690 q 548 650 479 690 q 653 536 617 610 q 690 364 690 463 q 651 168 690 253 q 538 37 611 83 q 369 -10 465 -10 m 374 65 q 542 147 481 65 q 603 368 603 228 q 546 551 603 486 q 388 617 489 617 q 218 535 279 617 q 157 311 157 454 q 213 128 157 192 q 374 65 268 65 m 431 1003 q 559 961 503 1003 q 639 835 615 919 l 574 807 q 513 904 550 875 q 426 933 476 933 q 335 905 376 933 q 260 807 293 876 l 197 833 q 294 963 233 922 q 431 1003 356 1003 z "},"ō":{"ha":757,"x_min":68,"x_max":690,"o":"m 369 -10 q 210 31 279 -10 q 105 144 142 71 q 68 315 68 218 q 108 513 68 428 q 220 644 147 597 q 388 690 293 690 q 548 650 479 690 q 653 536 617 610 q 690 364 690 463 q 651 168 690 253 q 538 37 611 83 q 369 -10 465 -10 m 374 65 q 542 147 481 65 q 603 368 603 228 q 546 551 603 486 q 388 617 489 617 q 218 535 279 617 q 157 311 157 454 q 213 128 157 192 q 374 65 268 65 m 222 940 l 632 940 l 626 869 l 215 869 l 222 940 z "},"ṓ":{"ha":757,"x_min":68,"x_max":690,"o":"m 369 -10 q 210 31 279 -10 q 105 144 142 71 q 68 315 68 218 q 108 513 68 428 q 220 644 147 597 q 388 690 293 690 q 548 650 479 690 q 653 536 617 610 q 690 364 690 463 q 651 168 690 253 q 538 37 611 83 q 369 -10 465 -10 m 374 65 q 542 147 481 65 q 603 368 603 228 q 546 551 603 486 q 388 617 489 617 q 218 535 279 617 q 157 311 157 454 q 213 128 157 192 q 374 65 268 65 m 222 940 l 632 940 l 626 869 l 215 869 l 222 940 m 401 1033 l 560 1313 l 672 1313 l 465 1033 l 401 1033 z "},"ṑ":{"ha":757,"x_min":68,"x_max":690,"o":"m 369 -10 q 210 31 279 -10 q 105 144 142 71 q 68 315 68 218 q 108 513 68 428 q 220 644 147 597 q 388 690 293 690 q 548 650 479 690 q 653 536 617 610 q 690 364 690 463 q 651 168 690 253 q 538 37 611 83 q 369 -10 465 -10 m 374 65 q 542 147 481 65 q 603 368 603 228 q 546 551 603 486 q 388 617 489 617 q 218 535 279 617 q 157 311 157 454 q 213 128 157 192 q 374 65 268 65 m 222 940 l 632 940 l 626 869 l 215 869 l 222 940 m 246 1313 l 346 1313 l 465 1033 l 401 1033 l 246 1313 z "},"ǫ":{"ha":757,"x_min":68,"x_max":690,"o":"m 467 6 q 367 -44 397 -17 q 336 -118 336 -72 q 358 -181 336 -160 q 421 -203 381 -203 q 506 -176 461 -203 l 524 -235 q 472 -257 503 -249 q 411 -265 442 -265 q 301 -228 342 -265 q 260 -132 260 -192 q 318 -7 260 -51 q 136 94 204 8 q 68 315 68 181 q 108 513 68 428 q 220 644 147 597 q 388 690 293 690 q 548 650 479 690 q 653 536 617 610 q 690 364 690 463 q 627 125 690 215 q 467 6 564 35 m 157 311 q 213 128 157 192 q 374 65 268 65 q 542 147 481 65 q 603 368 603 228 q 546 551 603 486 q 388 617 489 617 q 218 535 279 617 q 157 311 157 454 z "},"ø":{"ha":757,"x_min":68,"x_max":690,"o":"m 597 613 q 666 506 642 569 q 690 364 690 443 q 651 168 690 253 q 538 37 611 83 q 369 -10 465 -10 q 214 29 281 -10 l 157 -57 l 101 -22 l 161 68 q 92 174 115 111 q 68 315 68 238 q 108 513 68 428 q 220 644 147 597 q 388 690 293 690 q 544 651 475 690 l 601 738 l 658 704 l 597 613 m 156 311 q 206 136 156 199 l 503 588 q 388 617 454 617 q 217 535 279 617 q 156 311 156 453 m 374 65 q 542 147 481 65 q 603 368 603 228 q 553 544 603 476 l 256 93 q 374 65 304 65 z "},"ǿ":{"ha":757,"x_min":68,"x_max":690,"o":"m 597 613 q 666 506 642 569 q 690 364 690 443 q 651 168 690 253 q 538 37 611 83 q 369 -10 465 -10 q 214 29 281 -10 l 157 -57 l 101 -22 l 161 68 q 92 174 115 111 q 68 315 68 238 q 108 513 68 428 q 220 644 147 597 q 388 690 293 690 q 544 651 475 690 l 601 738 l 658 704 l 597 613 m 156 311 q 206 136 156 199 l 503 588 q 388 617 454 617 q 217 535 279 617 q 156 311 156 453 m 374 65 q 542 147 481 65 q 603 368 603 228 q 553 544 603 476 l 256 93 q 374 65 304 65 m 381 764 l 539 1043 l 651 1043 l 444 764 l 381 764 z "},"õ":{"ha":757,"x_min":68,"x_max":690,"o":"m 369 -10 q 210 31 279 -10 q 105 144 142 71 q 68 315 68 218 q 108 513 68 428 q 220 644 147 597 q 388 690 293 690 q 548 650 479 690 q 653 536 617 610 q 690 364 690 463 q 651 168 690 253 q 538 37 611 83 q 369 -10 465 -10 m 374 65 q 542 147 481 65 q 603 368 603 228 q 546 551 603 486 q 388 617 489 617 q 218 535 279 617 q 157 311 157 454 q 213 128 157 192 q 374 65 268 65 m 200 835 q 237 943 203 906 q 326 981 271 981 q 381 969 356 981 q 442 935 407 957 q 488 908 471 917 q 522 900 506 900 q 573 921 554 900 q 594 976 592 942 l 649 976 q 610 868 644 906 q 521 831 575 831 q 466 842 492 831 q 406 876 440 854 q 361 902 379 893 q 326 911 343 911 q 276 890 294 911 q 254 835 257 869 l 200 835 z "},"ṍ":{"ha":757,"x_min":68,"x_max":690,"o":"m 369 -10 q 210 31 279 -10 q 105 144 142 71 q 68 315 68 218 q 108 513 68 428 q 220 644 147 597 q 388 690 293 690 q 548 650 479 690 q 653 536 617 610 q 690 364 690 463 q 651 168 690 253 q 538 37 611 83 q 369 -10 465 -10 m 374 65 q 542 147 481 65 q 603 368 603 228 q 546 551 603 486 q 388 617 489 617 q 218 535 279 617 q 157 311 157 454 q 213 128 157 192 q 374 65 268 65 m 200 835 q 237 943 203 906 q 326 981 271 981 q 381 969 356 981 q 442 935 407 957 q 488 908 471 917 q 522 900 506 900 q 573 921 554 900 q 594 976 592 942 l 649 976 q 610 868 644 906 q 521 831 575 831 q 466 842 492 831 q 406 876 440 854 q 361 902 379 893 q 326 911 343 911 q 276 890 294 911 q 254 835 257 869 l 200 835 m 401 1033 l 560 1313 l 672 1313 l 465 1033 l 401 1033 z "},"ṏ":{"ha":757,"x_min":68,"x_max":690,"o":"m 369 -10 q 210 31 279 -10 q 105 144 142 71 q 68 315 68 218 q 108 513 68 428 q 220 644 147 597 q 388 690 293 690 q 548 650 479 690 q 653 536 617 610 q 690 364 690 463 q 651 168 690 253 q 538 37 611 83 q 369 -10 465 -10 m 374 65 q 542 147 481 65 q 603 368 603 228 q 546 551 603 486 q 388 617 489 617 q 218 535 279 617 q 157 311 157 454 q 213 128 157 192 q 374 65 268 65 m 200 835 q 237 943 203 906 q 326 981 271 981 q 381 969 356 981 q 442 935 407 957 q 488 908 471 917 q 522 900 506 900 q 573 921 554 900 q 594 976 592 942 l 649 976 q 610 868 644 906 q 521 831 575 831 q 466 842 492 831 q 406 876 440 854 q 361 902 379 893 q 326 911 343 911 q 276 890 294 911 q 254 835 257 869 l 200 835 m 386 1225 l 378 1124 l 274 1124 l 282 1225 l 386 1225 m 617 1225 l 608 1124 l 504 1124 l 513 1225 l 617 1225 z "},"ȭ":{"ha":757,"x_min":68,"x_max":690,"o":"m 369 -10 q 210 31 279 -10 q 105 144 142 71 q 68 315 68 218 q 108 513 68 428 q 220 644 147 597 q 388 690 293 690 q 548 650 479 690 q 653 536 617 610 q 690 364 690 463 q 651 168 690 253 q 538 37 611 83 q 369 -10 465 -10 m 374 65 q 542 147 481 65 q 603 368 603 228 q 546 551 603 486 q 388 617 489 617 q 218 535 279 617 q 157 311 157 454 q 213 128 157 192 q 374 65 268 65 m 200 835 q 237 943 203 906 q 326 981 271 981 q 381 969 356 981 q 442 935 407 957 q 488 908 471 917 q 522 900 506 900 q 573 921 554 900 q 594 976 592 942 l 649 976 q 610 868 644 906 q 521 831 575 831 q 466 842 492 831 q 406 876 440 854 q 361 902 379 893 q 326 911 343 911 q 276 890 294 911 q 254 835 257 869 l 200 835 m 243 1210 l 653 1210 l 647 1139 l 236 1139 l 243 1210 z "},"œ":{"ha":1257,"x_min":68,"x_max":1199,"o":"m 688 326 l 688 313 q 747 131 688 196 q 919 65 806 65 q 1032 85 975 65 q 1136 146 1089 106 l 1164 81 q 1053 15 1124 40 q 918 -10 983 -10 q 742 35 813 -10 q 639 164 672 81 q 533 37 603 83 q 368 -10 463 -10 q 210 31 278 -10 q 105 144 142 71 q 68 315 68 218 q 108 513 68 428 q 220 644 147 597 q 389 690 293 690 q 554 646 488 690 q 651 513 621 601 q 760 644 689 597 q 931 690 831 690 q 1127 615 1056 690 q 1199 393 1199 539 q 1194 326 1199 363 l 688 326 m 935 621 q 770 560 832 621 q 693 389 708 500 l 1121 389 q 1074 562 1125 503 q 935 621 1024 621 m 374 65 q 542 147 481 65 q 603 368 603 228 q 546 551 603 486 q 388 617 489 617 q 218 535 279 617 q 157 311 157 454 q 213 128 157 192 q 374 65 268 65 z "},"p":{"ha":796,"x_min":65,"x_max":729,"o":"m 442 690 q 592 650 526 690 q 693 536 657 610 q 729 364 729 463 q 690 168 729 253 q 578 37 650 83 q 414 -10 507 -10 q 271 27 332 -10 q 181 129 210 64 l 150 -250 l 65 -250 l 138 674 l 222 674 l 214 567 q 308 658 247 625 q 442 690 369 690 m 411 65 q 580 146 518 65 q 642 367 642 226 q 585 551 642 485 q 425 617 528 617 q 256 535 318 617 q 194 313 194 454 q 251 128 194 192 q 411 65 307 65 z "},"þ":{"ha":796,"x_min":65,"x_max":729,"o":"m 442 690 q 592 650 526 690 q 693 536 657 610 q 729 364 729 463 q 690 168 729 253 q 578 37 650 83 q 414 -10 507 -10 q 271 27 332 -10 q 181 129 210 64 l 150 -250 l 65 -250 l 163 979 l 247 979 l 214 567 q 308 658 247 625 q 442 690 369 690 m 411 65 q 580 146 518 65 q 642 367 642 226 q 585 551 642 485 q 425 617 528 617 q 256 535 318 617 q 194 313 194 454 q 251 128 194 192 q 411 65 307 65 z "},"q":{"ha":796,"x_min":67,"x_max":711,"o":"m 711 674 l 638 -250 l 553 -250 l 582 114 q 488 23 549 56 q 354 -10 426 -10 q 204 31 269 -10 q 103 144 139 71 q 67 317 67 218 q 106 513 67 428 q 217 644 146 597 q 382 690 289 690 q 526 653 464 690 q 617 551 588 617 l 626 674 l 711 674 m 371 65 q 540 147 478 65 q 601 368 601 228 q 545 553 601 489 q 385 617 489 617 q 217 536 278 617 q 156 314 156 456 q 212 131 156 196 q 371 65 268 65 z "},"r":{"ha":471,"x_min":85,"x_max":485,"o":"m 485 690 l 485 617 l 425 611 q 265 547 319 601 q 201 394 210 493 l 169 0 l 85 0 l 138 674 l 221 674 l 213 561 q 304 651 247 621 q 450 688 361 681 l 485 690 z "},"ŕ":{"ha":471,"x_min":85,"x_max":563,"o":"m 485 690 l 485 617 l 425 611 q 265 547 319 601 q 201 394 210 493 l 169 0 l 85 0 l 138 674 l 221 674 l 213 561 q 304 651 247 621 q 450 688 361 681 l 485 690 m 292 764 l 450 1043 l 563 1043 l 356 764 l 292 764 z "},"ř":{"ha":471,"x_min":85,"x_max":538,"o":"m 485 690 l 485 617 l 425 611 q 265 547 319 601 q 201 394 210 493 l 169 0 l 85 0 l 138 674 l 221 674 l 213 561 q 304 651 247 621 q 450 688 361 681 l 485 690 m 538 1043 l 357 764 l 290 764 l 154 1043 l 239 1043 l 328 833 l 450 1043 l 538 1043 z "},"ŗ":{"ha":471,"x_min":50,"x_max":485,"o":"m 485 690 l 485 617 l 425 611 q 265 547 319 601 q 201 394 210 493 l 169 0 l 85 0 l 138 674 l 221 674 l 213 561 q 304 651 247 621 q 450 688 361 681 l 485 690 m 178 -103 l 172 -181 q 149 -276 167 -235 q 90 -354 131 -317 l 50 -321 q 93 -264 81 -290 q 108 -204 106 -237 l 54 -204 l 61 -103 l 178 -103 z "},"ȑ":{"ha":471,"x_min":85,"x_max":485,"o":"m 485 690 l 485 617 l 425 611 q 265 547 319 601 q 201 394 210 493 l 169 0 l 85 0 l 138 674 l 221 674 l 213 561 q 304 651 247 621 q 450 688 361 681 l 485 690 m 133 1043 l 219 1043 l 267 764 l 219 764 l 133 1043 m 294 1043 l 381 1043 l 428 764 l 381 764 l 294 1043 z "},"ṛ":{"ha":471,"x_min":54,"x_max":485,"o":"m 485 690 l 485 617 l 425 611 q 265 547 319 601 q 201 394 210 493 l 169 0 l 85 0 l 138 674 l 221 674 l 213 561 q 304 651 247 621 q 450 688 361 681 l 485 690 m 172 -140 l 163 -247 l 54 -247 l 63 -140 l 172 -140 z "},"ȓ":{"ha":471,"x_min":85,"x_max":550,"o":"m 485 690 l 485 617 l 425 611 q 265 547 319 601 q 201 394 210 493 l 169 0 l 85 0 l 138 674 l 221 674 l 213 561 q 304 651 247 621 q 450 688 361 681 l 485 690 m 342 1003 q 470 961 414 1003 q 550 835 526 919 l 485 807 q 424 904 461 875 q 338 933 388 933 q 246 905 288 933 q 171 807 204 876 l 108 833 q 206 963 144 922 q 342 1003 267 1003 z "},"ṟ":{"ha":471,"x_min":-96,"x_max":485,"o":"m 485 690 l 485 617 l 425 611 q 265 547 319 601 q 201 394 210 493 l 169 0 l 85 0 l 138 674 l 221 674 l 213 561 q 304 651 247 621 q 450 688 361 681 l 485 690 m -90 -158 l 321 -158 l 315 -229 l -96 -229 l -90 -158 z "},"s":{"ha":664,"x_min":50,"x_max":599,"o":"m 311 -10 q 167 14 236 -10 q 50 81 99 38 l 88 146 q 195 83 143 103 q 313 64 247 64 q 492 176 492 64 q 469 235 492 213 q 414 272 447 258 q 324 301 381 285 q 210 341 253 322 q 136 397 167 360 q 106 493 106 433 q 176 638 106 585 q 364 690 246 690 q 497 667 435 690 q 599 601 558 643 l 563 536 q 365 617 469 617 q 238 586 282 617 q 193 497 193 556 q 215 439 193 461 q 269 403 238 417 q 360 372 300 390 q 473 334 429 353 q 547 278 517 315 q 578 181 578 240 q 505 42 578 93 q 311 -10 432 -10 z "},"ś":{"ha":664,"x_min":50,"x_max":615,"o":"m 311 -10 q 167 14 236 -10 q 50 81 99 38 l 88 146 q 195 83 143 103 q 313 64 247 64 q 492 176 492 64 q 469 235 492 213 q 414 272 447 258 q 324 301 381 285 q 210 341 253 322 q 136 397 167 360 q 106 493 106 433 q 176 638 106 585 q 364 690 246 690 q 497 667 435 690 q 599 601 558 643 l 563 536 q 365 617 469 617 q 238 586 282 617 q 193 497 193 556 q 215 439 193 461 q 269 403 238 417 q 360 372 300 390 q 473 334 429 353 q 547 278 517 315 q 578 181 578 240 q 505 42 578 93 q 311 -10 432 -10 m 344 764 l 503 1043 l 615 1043 l 408 764 l 344 764 z "},"ṥ":{"ha":664,"x_min":50,"x_max":618,"o":"m 311 -10 q 167 14 236 -10 q 50 81 99 38 l 88 146 q 195 83 143 103 q 313 64 247 64 q 492 176 492 64 q 469 235 492 213 q 414 272 447 258 q 324 301 381 285 q 210 341 253 322 q 136 397 167 360 q 106 493 106 433 q 176 638 106 585 q 364 690 246 690 q 497 667 435 690 q 599 601 558 643 l 563 536 q 365 617 469 617 q 238 586 282 617 q 193 497 193 556 q 215 439 193 461 q 269 403 238 417 q 360 372 300 390 q 473 334 429 353 q 547 278 517 315 q 578 181 578 240 q 505 42 578 93 q 311 -10 432 -10 m 347 764 l 506 1043 l 618 1043 l 411 764 l 347 764 m 319 1044 l 311 938 l 200 938 l 208 1044 l 319 1044 z "},"š":{"ha":664,"x_min":50,"x_max":599,"o":"m 311 -10 q 167 14 236 -10 q 50 81 99 38 l 88 146 q 195 83 143 103 q 313 64 247 64 q 492 176 492 64 q 469 235 492 213 q 414 272 447 258 q 324 301 381 285 q 210 341 253 322 q 136 397 167 360 q 106 493 106 433 q 176 638 106 585 q 364 690 246 690 q 497 667 435 690 q 599 601 558 643 l 563 536 q 365 617 469 617 q 238 586 282 617 q 193 497 193 556 q 215 439 193 461 q 269 403 238 417 q 360 372 300 390 q 473 334 429 353 q 547 278 517 315 q 578 181 578 240 q 505 42 578 93 q 311 -10 432 -10 m 590 1043 l 410 764 l 343 764 l 207 1043 l 292 1043 l 381 833 l 503 1043 l 590 1043 z "},"ṧ":{"ha":664,"x_min":50,"x_max":599,"o":"m 311 -10 q 167 14 236 -10 q 50 81 99 38 l 88 146 q 195 83 143 103 q 313 64 247 64 q 492 176 492 64 q 469 235 492 213 q 414 272 447 258 q 324 301 381 285 q 210 341 253 322 q 136 397 167 360 q 106 493 106 433 q 176 638 106 585 q 364 690 246 690 q 497 667 435 690 q 599 601 558 643 l 563 536 q 365 617 469 617 q 238 586 282 617 q 193 497 193 556 q 215 439 193 461 q 269 403 238 417 q 360 372 300 390 q 473 334 429 353 q 547 278 517 315 q 578 181 578 240 q 505 42 578 93 q 311 -10 432 -10 m 590 1043 l 410 764 l 343 764 l 207 1043 l 292 1043 l 381 833 l 503 1043 l 590 1043 m 468 1228 l 460 1121 l 349 1121 l 357 1228 l 468 1228 z "},"ş":{"ha":664,"x_min":50,"x_max":599,"o":"m 193 497 q 215 439 193 461 q 269 403 238 417 q 360 372 300 390 q 473 334 429 353 q 547 278 517 315 q 578 181 578 240 q 508 44 578 94 q 324 -10 439 -7 l 314 -60 q 344 -57 333 -57 q 418 -81 390 -57 q 446 -150 446 -106 q 405 -234 446 -203 q 289 -265 364 -265 q 226 -259 260 -265 q 168 -239 193 -253 l 188 -186 q 290 -206 240 -206 q 353 -192 331 -206 q 375 -153 375 -179 q 363 -123 375 -133 q 326 -112 350 -112 q 261 -126 300 -112 l 236 -106 l 254 -6 q 142 24 194 1 q 50 81 90 46 l 88 146 q 195 83 143 103 q 313 64 247 64 q 492 176 492 64 q 469 235 492 213 q 414 272 447 258 q 324 301 381 285 q 210 341 253 322 q 136 397 167 360 q 106 493 106 433 q 176 638 106 585 q 364 690 246 690 q 497 667 435 690 q 599 601 558 643 l 563 536 q 365 617 469 617 q 238 586 282 617 q 193 497 193 556 z "},"ŝ":{"ha":664,"x_min":50,"x_max":599,"o":"m 311 -10 q 167 14 236 -10 q 50 81 99 38 l 88 146 q 195 83 143 103 q 313 64 247 64 q 492 176 492 64 q 469 235 492 213 q 414 272 447 258 q 324 301 381 285 q 210 341 253 322 q 136 397 167 360 q 106 493 106 433 q 176 638 106 585 q 364 690 246 690 q 497 667 435 690 q 599 601 558 643 l 563 536 q 365 617 469 617 q 238 586 282 617 q 193 497 193 556 q 215 439 193 461 q 269 403 238 417 q 360 372 300 390 q 473 334 429 353 q 547 278 517 315 q 578 181 578 240 q 505 42 578 93 q 311 -10 432 -10 m 185 764 l 365 1043 l 432 1043 l 568 764 l 483 764 l 394 974 l 274 764 l 185 764 z "},"ș":{"ha":664,"x_min":50,"x_max":599,"o":"m 311 -10 q 167 14 236 -10 q 50 81 99 38 l 88 146 q 195 83 143 103 q 313 64 247 64 q 492 176 492 64 q 469 235 492 213 q 414 272 447 258 q 324 301 381 285 q 210 341 253 322 q 136 397 167 360 q 106 493 106 433 q 176 638 106 585 q 364 690 246 690 q 497 667 435 690 q 599 601 558 643 l 563 536 q 365 617 469 617 q 238 586 282 617 q 193 497 193 556 q 215 439 193 461 q 269 403 238 417 q 360 372 300 390 q 473 334 429 353 q 547 278 517 315 q 578 181 578 240 q 505 42 578 93 q 311 -10 432 -10 m 353 -103 l 347 -181 q 324 -276 342 -235 q 265 -354 306 -317 l 225 -321 q 268 -264 256 -290 q 283 -204 281 -237 l 229 -204 l 236 -103 l 353 -103 z "},"ṡ":{"ha":664,"x_min":50,"x_max":599,"o":"m 311 -10 q 167 14 236 -10 q 50 81 99 38 l 88 146 q 195 83 143 103 q 313 64 247 64 q 492 176 492 64 q 469 235 492 213 q 414 272 447 258 q 324 301 381 285 q 210 341 253 322 q 136 397 167 360 q 106 493 106 433 q 176 638 106 585 q 364 690 246 690 q 497 667 435 690 q 599 601 558 643 l 563 536 q 365 617 469 617 q 238 586 282 617 q 193 497 193 556 q 215 439 193 461 q 269 403 238 417 q 360 372 300 390 q 473 334 429 353 q 547 278 517 315 q 578 181 578 240 q 505 42 578 93 q 311 -10 432 -10 m 447 958 l 439 851 l 328 851 l 336 958 l 447 958 z "},"ṣ":{"ha":664,"x_min":50,"x_max":599,"o":"m 311 -10 q 167 14 236 -10 q 50 81 99 38 l 88 146 q 195 83 143 103 q 313 64 247 64 q 492 176 492 64 q 469 235 492 213 q 414 272 447 258 q 324 301 381 285 q 210 341 253 322 q 136 397 167 360 q 106 493 106 433 q 176 638 106 585 q 364 690 246 690 q 497 667 435 690 q 599 601 558 643 l 563 536 q 365 617 469 617 q 238 586 282 617 q 193 497 193 556 q 215 439 193 461 q 269 403 238 417 q 360 372 300 390 q 473 334 429 353 q 547 278 517 315 q 578 181 578 240 q 505 42 578 93 q 311 -10 432 -10 m 347 -140 l 338 -247 l 229 -247 l 238 -140 l 347 -140 z "},"ṩ":{"ha":664,"x_min":50,"x_max":599,"o":"m 311 -10 q 167 14 236 -10 q 50 81 99 38 l 88 146 q 195 83 143 103 q 313 64 247 64 q 492 176 492 64 q 469 235 492 213 q 414 272 447 258 q 324 301 381 285 q 210 341 253 322 q 136 397 167 360 q 106 493 106 433 q 176 638 106 585 q 364 690 246 690 q 497 667 435 690 q 599 601 558 643 l 563 536 q 365 617 469 617 q 238 586 282 617 q 193 497 193 556 q 215 439 193 461 q 269 403 238 417 q 360 372 300 390 q 473 334 429 353 q 547 278 517 315 q 578 181 578 240 q 505 42 578 93 q 311 -10 432 -10 m 347 -140 l 338 -247 l 229 -247 l 238 -140 l 347 -140 m 447 958 l 439 851 l 328 851 l 336 958 l 447 958 z "},"ß":{"ha":831,"x_min":85,"x_max":772,"o":"m 139 683 q 235 909 151 833 q 449 985 318 985 q 604 942 547 985 q 661 824 661 900 q 628 718 661 761 q 533 625 594 675 q 464 559 486 586 q 442 500 442 532 q 477 431 442 456 q 585 379 513 406 q 682 337 644 357 q 746 282 719 317 q 772 193 772 247 q 704 47 772 103 q 521 -10 636 -10 q 386 14 453 -10 q 272 81 319 38 l 310 146 q 417 83 365 103 q 525 64 468 64 q 642 97 599 64 q 686 189 686 131 q 649 260 686 235 q 539 310 613 285 q 442 349 479 331 q 380 401 406 368 q 354 486 354 435 q 385 582 354 543 q 474 668 415 621 q 553 742 526 710 q 579 818 579 775 q 544 888 579 863 q 447 913 508 913 q 224 679 242 913 l 169 0 l 85 0 l 139 683 z "},"t":{"ha":454,"x_min":32,"x_max":453,"o":"m 221 238 q 219 210 219 228 q 256 100 219 138 q 364 63 293 63 q 424 68 397 63 l 414 -3 q 353 -8 386 -8 q 192 46 249 -8 q 135 200 135 100 q 136 231 135 219 l 165 606 l 32 606 l 38 674 l 171 674 l 188 882 l 272 882 l 256 674 l 453 674 l 449 606 l 250 606 l 221 238 z "},"ŧ":{"ha":468,"x_min":39,"x_max":460,"o":"m 257 606 l 243 424 l 413 424 l 407 356 l 238 356 l 228 238 q 226 210 226 228 q 263 100 226 138 q 371 63 300 63 q 431 68 404 63 l 421 -3 q 360 -8 393 -8 q 199 46 256 -8 q 142 200 142 100 q 143 231 142 219 l 153 356 l 47 356 l 53 424 l 158 424 l 172 606 l 39 606 l 44 674 l 178 674 l 194 882 l 279 882 l 263 674 l 460 674 l 456 606 l 257 606 z "},"ť":{"ha":454,"x_min":32,"x_max":453,"o":"m 388 743 l 336 743 l 357 979 l 443 979 l 388 743 m 221 238 q 219 210 219 228 q 256 100 219 138 q 364 63 293 63 q 424 68 397 63 l 414 -3 q 353 -8 386 -8 q 192 46 249 -8 q 135 200 135 100 q 136 231 135 219 l 165 606 l 32 606 l 38 674 l 171 674 l 188 882 l 272 882 l 256 674 l 453 674 l 449 606 l 250 606 l 221 238 z "},"ţ":{"ha":454,"x_min":32,"x_max":453,"o":"m 221 238 q 219 210 219 228 q 256 100 219 138 q 364 63 293 63 q 424 68 397 63 l 414 -3 q 353 -8 386 -8 q 289 -3 315 -8 l 278 -60 q 308 -57 297 -57 q 382 -81 354 -57 q 410 -150 410 -106 q 369 -234 410 -203 q 253 -265 328 -265 q 190 -259 224 -265 q 132 -239 157 -253 l 151 -186 q 254 -206 204 -206 q 317 -192 294 -206 q 339 -153 339 -179 q 326 -123 339 -133 q 290 -112 314 -112 q 225 -126 264 -112 l 200 -106 l 224 22 q 135 200 135 74 q 136 231 135 219 l 165 606 l 32 606 l 38 674 l 171 674 l 188 882 l 272 882 l 256 674 l 453 674 l 449 606 l 250 606 l 221 238 z "},"ț":{"ha":454,"x_min":32,"x_max":453,"o":"m 221 238 q 219 210 219 228 q 256 100 219 138 q 364 63 293 63 q 424 68 397 63 l 414 -3 q 353 -8 386 -8 q 192 46 249 -8 q 135 200 135 100 q 136 231 135 219 l 165 606 l 32 606 l 38 674 l 171 674 l 188 882 l 272 882 l 256 674 l 453 674 l 449 606 l 250 606 l 221 238 m 317 -103 l 311 -181 q 288 -276 306 -235 q 229 -354 269 -317 l 189 -321 q 232 -264 219 -290 q 247 -204 244 -237 l 193 -204 l 200 -103 l 317 -103 z "},"ẗ":{"ha":454,"x_min":32,"x_max":453,"o":"m 221 238 q 219 210 219 228 q 256 100 219 138 q 364 63 293 63 q 424 68 397 63 l 414 -3 q 353 -8 386 -8 q 192 46 249 -8 q 135 200 135 100 q 136 231 135 219 l 165 606 l 32 606 l 38 674 l 171 674 l 188 882 l 272 882 l 256 674 l 453 674 l 449 606 l 250 606 l 221 238 m 186 1121 l 178 1021 l 74 1021 l 82 1121 l 186 1121 m 417 1121 l 408 1021 l 304 1021 l 313 1121 l 417 1121 z "},"ṭ":{"ha":454,"x_min":32,"x_max":453,"o":"m 221 238 q 219 210 219 228 q 256 100 219 138 q 364 63 293 63 q 424 68 397 63 l 414 -3 q 353 -8 386 -8 q 192 46 249 -8 q 135 200 135 100 q 136 231 135 219 l 165 606 l 32 606 l 38 674 l 171 674 l 188 882 l 272 882 l 256 674 l 453 674 l 449 606 l 250 606 l 221 238 m 311 -140 l 301 -247 l 193 -247 l 201 -140 l 311 -140 z "},"ṯ":{"ha":454,"x_min":32,"x_max":460,"o":"m 221 238 q 219 210 219 228 q 256 100 219 138 q 364 63 293 63 q 424 68 397 63 l 414 -3 q 353 -8 386 -8 q 192 46 249 -8 q 135 200 135 100 q 136 231 135 219 l 165 606 l 32 606 l 38 674 l 171 674 l 188 882 l 272 882 l 256 674 l 453 674 l 449 606 l 250 606 l 221 238 m 49 -158 l 460 -158 l 454 -229 l 43 -229 l 49 -158 z "},"u":{"ha":768,"x_min":100,"x_max":683,"o":"m 683 674 l 629 0 l 547 0 l 556 118 q 462 24 521 57 q 329 -10 403 -10 q 159 48 218 -10 q 100 218 100 106 q 101 254 100 242 l 135 674 l 219 674 l 186 261 q 185 228 185 250 q 342 65 185 65 q 500 125 440 65 q 568 292 560 185 l 599 674 l 683 674 z "},"ú":{"ha":768,"x_min":100,"x_max":683,"o":"m 683 674 l 629 0 l 547 0 l 556 118 q 462 24 521 57 q 329 -10 403 -10 q 159 48 218 -10 q 100 218 100 106 q 101 254 100 242 l 135 674 l 219 674 l 186 261 q 185 228 185 250 q 342 65 185 65 q 500 125 440 65 q 568 292 560 185 l 599 674 l 683 674 m 385 764 l 543 1043 l 656 1043 l 449 764 l 385 764 z "},"ŭ":{"ha":768,"x_min":100,"x_max":683,"o":"m 683 674 l 629 0 l 547 0 l 556 118 q 462 24 521 57 q 329 -10 403 -10 q 159 48 218 -10 q 100 218 100 106 q 101 254 100 242 l 135 674 l 219 674 l 186 261 q 185 228 185 250 q 342 65 185 65 q 500 125 440 65 q 568 292 560 185 l 599 674 l 683 674 m 421 810 q 292 851 349 810 q 213 976 236 892 l 278 1004 q 426 878 322 878 q 517 906 476 878 q 592 1004 558 935 l 654 978 q 557 849 618 889 q 421 810 496 810 z "},"û":{"ha":768,"x_min":100,"x_max":683,"o":"m 683 674 l 629 0 l 547 0 l 556 118 q 462 24 521 57 q 329 -10 403 -10 q 159 48 218 -10 q 100 218 100 106 q 101 254 100 242 l 135 674 l 219 674 l 186 261 q 185 228 185 250 q 342 65 185 65 q 500 125 440 65 q 568 292 560 185 l 599 674 l 683 674 m 225 764 l 406 1043 l 472 1043 l 608 764 l 524 764 l 435 974 l 314 764 l 225 764 z "},"ȕ":{"ha":768,"x_min":100,"x_max":683,"o":"m 683 674 l 629 0 l 547 0 l 556 118 q 462 24 521 57 q 329 -10 403 -10 q 159 48 218 -10 q 100 218 100 106 q 101 254 100 242 l 135 674 l 219 674 l 186 261 q 185 228 185 250 q 342 65 185 65 q 500 125 440 65 q 568 292 560 185 l 599 674 l 683 674 m 226 1043 l 313 1043 l 360 764 l 313 764 l 226 1043 m 388 1043 l 474 1043 l 521 764 l 474 764 l 388 1043 z "},"ü":{"ha":768,"x_min":100,"x_max":683,"o":"m 683 674 l 629 0 l 547 0 l 556 118 q 462 24 521 57 q 329 -10 403 -10 q 159 48 218 -10 q 100 218 100 106 q 101 254 100 242 l 135 674 l 219 674 l 186 261 q 185 228 185 250 q 342 65 185 65 q 500 125 440 65 q 568 292 560 185 l 599 674 l 683 674 m 369 956 l 361 854 l 257 854 l 265 956 l 369 956 m 600 956 l 592 854 l 488 854 l 496 956 l 600 956 z "},"ụ":{"ha":768,"x_min":100,"x_max":683,"o":"m 683 674 l 629 0 l 547 0 l 556 118 q 462 24 521 57 q 329 -10 403 -10 q 159 48 218 -10 q 100 218 100 106 q 101 254 100 242 l 135 674 l 219 674 l 186 261 q 185 228 185 250 q 342 65 185 65 q 500 125 440 65 q 568 292 560 185 l 599 674 l 683 674 m 401 -140 l 392 -247 l 283 -247 l 292 -140 l 401 -140 z "},"ù":{"ha":768,"x_min":100,"x_max":683,"o":"m 683 674 l 629 0 l 547 0 l 556 118 q 462 24 521 57 q 329 -10 403 -10 q 159 48 218 -10 q 100 218 100 106 q 101 254 100 242 l 135 674 l 219 674 l 186 261 q 185 228 185 250 q 342 65 185 65 q 500 125 440 65 q 568 292 560 185 l 599 674 l 683 674 m 229 1043 l 329 1043 l 449 764 l 385 764 l 229 1043 z "},"ủ":{"ha":768,"x_min":100,"x_max":683,"o":"m 683 674 l 629 0 l 547 0 l 556 118 q 462 24 521 57 q 329 -10 403 -10 q 159 48 218 -10 q 100 218 100 106 q 101 254 100 242 l 135 674 l 219 674 l 186 261 q 185 228 185 250 q 342 65 185 65 q 500 125 440 65 q 568 292 560 185 l 599 674 l 683 674 m 451 764 l 388 764 l 390 801 q 409 851 393 831 q 453 897 425 872 q 483 928 474 915 q 493 953 493 940 q 478 977 493 968 q 436 986 464 986 q 350 969 404 986 l 335 1028 q 446 1049 382 1049 q 538 1025 503 1049 q 572 961 572 1001 q 557 911 572 931 q 510 865 542 892 q 468 826 482 843 q 453 786 454 810 l 451 764 z "},"ư":{"ha":783,"x_min":100,"x_max":861,"o":"m 861 856 l 860 824 q 806 685 854 738 q 679 622 758 633 l 629 0 l 547 0 l 556 118 q 462 24 521 57 q 329 -10 403 -10 q 159 48 218 -10 q 100 218 100 106 q 101 254 100 242 l 135 674 l 219 674 l 186 261 q 185 228 185 250 q 342 65 185 65 q 500 125 440 65 q 568 292 560 185 l 599 674 l 622 674 q 738 713 700 675 q 782 838 775 751 l 783 856 l 861 856 z "},"ứ":{"ha":783,"x_min":100,"x_max":861,"o":"m 861 856 l 860 824 q 806 685 854 738 q 679 622 758 633 l 629 0 l 547 0 l 556 118 q 462 24 521 57 q 329 -10 403 -10 q 159 48 218 -10 q 100 218 100 106 q 101 254 100 242 l 135 674 l 219 674 l 186 261 q 185 228 185 250 q 342 65 185 65 q 500 125 440 65 q 568 292 560 185 l 599 674 l 622 674 q 738 713 700 675 q 782 838 775 751 l 783 856 l 861 856 m 385 764 l 543 1043 l 656 1043 l 449 764 l 385 764 z "},"ự":{"ha":783,"x_min":100,"x_max":861,"o":"m 861 856 l 860 824 q 806 685 854 738 q 679 622 758 633 l 629 0 l 547 0 l 556 118 q 462 24 521 57 q 329 -10 403 -10 q 159 48 218 -10 q 100 218 100 106 q 101 254 100 242 l 135 674 l 219 674 l 186 261 q 185 228 185 250 q 342 65 185 65 q 500 125 440 65 q 568 292 560 185 l 599 674 l 622 674 q 738 713 700 675 q 782 838 775 751 l 783 856 l 861 856 m 401 -140 l 392 -247 l 283 -247 l 292 -140 l 401 -140 z "},"ừ":{"ha":783,"x_min":100,"x_max":861,"o":"m 861 856 l 860 824 q 806 685 854 738 q 679 622 758 633 l 629 0 l 547 0 l 556 118 q 462 24 521 57 q 329 -10 403 -10 q 159 48 218 -10 q 100 218 100 106 q 101 254 100 242 l 135 674 l 219 674 l 186 261 q 185 228 185 250 q 342 65 185 65 q 500 125 440 65 q 568 292 560 185 l 599 674 l 622 674 q 738 713 700 675 q 782 838 775 751 l 783 856 l 861 856 m 229 1043 l 329 1043 l 449 764 l 385 764 l 229 1043 z "},"ử":{"ha":783,"x_min":100,"x_max":861,"o":"m 861 856 l 860 824 q 806 685 854 738 q 679 622 758 633 l 629 0 l 547 0 l 556 118 q 462 24 521 57 q 329 -10 403 -10 q 159 48 218 -10 q 100 218 100 106 q 101 254 100 242 l 135 674 l 219 674 l 186 261 q 185 228 185 250 q 342 65 185 65 q 500 125 440 65 q 568 292 560 185 l 599 674 l 622 674 q 738 713 700 675 q 782 838 775 751 l 783 856 l 861 856 m 451 764 l 388 764 l 390 801 q 409 851 393 831 q 453 897 425 872 q 483 928 474 915 q 493 953 493 940 q 478 977 493 968 q 436 986 464 986 q 350 969 404 986 l 335 1028 q 446 1049 382 1049 q 538 1025 503 1049 q 572 961 572 1001 q 557 911 572 931 q 510 865 542 892 q 468 826 482 843 q 453 786 454 810 l 451 764 z "},"ữ":{"ha":783,"x_min":100,"x_max":861,"o":"m 861 856 l 860 824 q 806 685 854 738 q 679 622 758 633 l 629 0 l 547 0 l 556 118 q 462 24 521 57 q 329 -10 403 -10 q 159 48 218 -10 q 100 218 100 106 q 101 254 100 242 l 135 674 l 219 674 l 186 261 q 185 228 185 250 q 342 65 185 65 q 500 125 440 65 q 568 292 560 185 l 599 674 l 622 674 q 738 713 700 675 q 782 838 775 751 l 783 856 l 861 856 m 204 835 q 241 943 207 906 q 331 981 275 981 q 385 969 360 981 q 446 935 411 957 q 492 908 475 917 q 526 900 510 900 q 577 921 558 900 q 599 976 596 942 l 653 976 q 614 868 649 906 q 525 831 579 831 q 470 842 496 831 q 410 876 444 854 q 365 902 383 893 q 331 911 347 911 q 280 890 299 911 q 258 835 261 869 l 204 835 z "}}}
